<?xml version="1.0" encoding="utf-8"?>
<!-- Generator: Adobe Illustrator 25.2.2, SVG Export Plug-In . SVG Version: 6.00 Build 0)  -->
<svg version="1.1" id="Calque_1" xmlns="http://www.w3.org/2000/svg" xmlns:xlink="http://www.w3.org/1999/xlink" x="0px" y="0px"
	 viewBox="0 0 842.89 595.31" style="enable-background:new 0 0 842.89 595.31;" xml:space="preserve">
<style type="text/css">
	.st0{fill:url(#SVGID_1_);}
	.st1{fill:#FFFFFF;}
</style>
<g>
	<g>
		<path d="M349.07,299.76c-1.04,0.4-2.53,0.7-4.48,0.9c-1.95,0.2-3.68,0.3-5.19,0.3c-4.7,0-8.71-0.74-12.06-2.21
			c-3.34-1.47-6.01-3.52-8-6.15c-1.51-1.99-2.61-4.34-3.28-7.04c-0.68-2.7-1.01-6.13-1.01-10.26V255h-16.11v-13.13h16.11v-16.11
			h15.52v16.11h19.1V255h-19.1v22.08c0,1.83,0.16,3.3,0.48,4.42c0.32,1.12,0.79,2.07,1.43,2.86c0.79,0.88,1.83,1.57,3.1,2.09
			c1.27,0.52,2.86,0.78,4.77,0.78c1.11,0,2.31-0.06,3.58-0.18c1.27-0.12,2.19-0.26,2.75-0.42L349.07,299.76z"/>
		<path d="M418.3,299.76h-14.92v-4.66c-2.39,2.07-4.93,3.56-7.64,4.48c-2.71,0.91-5.53,1.37-8.47,1.37c-4.3,0-8.38-0.88-12.23-2.63
			c-3.86-1.75-7.06-4.14-9.61-7.16c-2.31-2.63-4.12-5.67-5.43-9.13c-1.31-3.46-1.97-7.18-1.97-11.16c0-4.3,0.73-8.27,2.21-11.94
			c1.47-3.66,3.5-6.84,6.09-9.55c2.58-2.7,5.59-4.83,9.01-6.39c3.42-1.55,7.12-2.33,11.1-2.33c3.34,0,6.43,0.52,9.25,1.55
			c2.82,1.04,5.39,2.47,7.7,4.3v-4.65h14.92V299.76z M402.78,262.16c-1.59-2.15-3.62-3.88-6.09-5.19c-2.47-1.31-5.21-1.97-8.24-1.97
			c-2.31,0-4.38,0.44-6.21,1.31c-1.83,0.88-3.38,2.05-4.66,3.52c-1.27,1.47-2.27,3.16-2.98,5.07c-0.72,1.91-1.07,3.9-1.07,5.97
			c0,2.31,0.38,4.42,1.13,6.33c0.76,1.91,1.83,3.56,3.22,4.95c1.39,1.39,3.02,2.49,4.89,3.28c1.87,0.8,3.88,1.19,6.03,1.19
			c2.94,0,5.63-0.66,8.06-1.97c2.43-1.31,4.4-3.04,5.91-5.19V262.16z"/>
		<path d="M475.59,228.14c-0.64-0.16-1.39-0.3-2.27-0.42c-0.88-0.12-1.67-0.18-2.39-0.18c-3.9,0-6.8,1.12-8.71,3.34
			c-0.64,0.88-1.15,1.95-1.55,3.22c-0.4,1.27-0.6,3.26-0.6,5.97v1.79h17.9V255h-17.9v44.76h-15.52V255h-14.92v-13.13h14.92v-2.39
			c0-4.69,0.52-8.51,1.55-11.46c1.03-2.94,2.58-5.41,4.65-7.4c2.07-1.99,4.6-3.62,7.58-4.89c2.98-1.27,6.46-1.91,10.44-1.91
			c1.59,0,3.12,0.08,4.6,0.24c1.47,0.16,3,0.44,4.6,0.84L475.59,228.14z"/>
		<path d="M535.86,299.76c-1.04,0.4-2.53,0.7-4.48,0.9c-1.95,0.2-3.68,0.3-5.19,0.3c-4.7,0-8.71-0.74-12.06-2.21
			c-3.34-1.47-6.01-3.52-8-6.15c-1.51-1.99-2.61-4.34-3.28-7.04c-0.68-2.7-1.01-6.13-1.01-10.26V255h-16.11v-13.13h16.11v-16.11
			h15.52v16.11h19.1V255h-19.1v22.08c0,1.83,0.16,3.3,0.48,4.42c0.32,1.12,0.79,2.07,1.43,2.86c0.79,0.88,1.83,1.57,3.1,2.09
			c1.27,0.52,2.86,0.78,4.77,0.78c1.11,0,2.31-0.06,3.58-0.18c1.27-0.12,2.19-0.26,2.75-0.42L535.86,299.76z"/>
		<path d="M605.09,299.76h-14.92v-4.66c-2.39,2.07-4.93,3.56-7.64,4.48c-2.71,0.91-5.53,1.37-8.47,1.37c-4.3,0-8.38-0.88-12.23-2.63
			c-3.86-1.75-7.06-4.14-9.61-7.16c-2.31-2.63-4.12-5.67-5.43-9.13c-1.31-3.46-1.97-7.18-1.97-11.16c0-4.3,0.73-8.27,2.21-11.94
			c1.47-3.66,3.5-6.84,6.09-9.55c2.58-2.7,5.59-4.83,9.01-6.39c3.42-1.55,7.12-2.33,11.1-2.33c3.34,0,6.43,0.52,9.25,1.55
			c2.82,1.04,5.39,2.47,7.7,4.3v-4.65h14.92V299.76z M589.57,262.16c-1.59-2.15-3.62-3.88-6.09-5.19c-2.47-1.31-5.21-1.97-8.24-1.97
			c-2.31,0-4.38,0.44-6.21,1.31c-1.83,0.88-3.38,2.05-4.66,3.52c-1.27,1.47-2.27,3.16-2.98,5.07c-0.72,1.91-1.07,3.9-1.07,5.97
			c0,2.31,0.38,4.42,1.13,6.33c0.76,1.91,1.83,3.56,3.22,4.95c1.39,1.39,3.02,2.49,4.89,3.28c1.87,0.8,3.88,1.19,6.03,1.19
			c2.94,0,5.63-0.66,8.06-1.97c2.43-1.31,4.4-3.04,5.91-5.19V262.16z"/>
		<path d="M662.38,228.14c-0.64-0.16-1.39-0.3-2.27-0.42c-0.88-0.12-1.67-0.18-2.39-0.18c-3.9,0-6.8,1.12-8.71,3.34
			c-0.64,0.88-1.15,1.95-1.55,3.22c-0.4,1.27-0.6,3.26-0.6,5.97v1.79h17.9V255h-17.9v44.76h-15.52V255h-14.92v-13.13h14.92v-2.39
			c0-4.69,0.52-8.51,1.55-11.46c1.03-2.94,2.58-5.41,4.65-7.4c2.07-1.99,4.6-3.62,7.58-4.89c2.98-1.27,6.46-1.91,10.44-1.91
			c1.59,0,3.12,0.08,4.6,0.24c1.47,0.16,3,0.44,4.6,0.84L662.38,228.14z"/>
	</g>
	<g>
		<g>
			<linearGradient id="SVGID_1_" gradientUnits="userSpaceOnUse" x1="172.1295" y1="260.5488" x2="261.5215" y2="260.5488">
				<stop  offset="0.3438" style="stop-color:#2FAC66"/>
				<stop  offset="0.5653" style="stop-color:#1B9894"/>
				<stop  offset="0.7718" style="stop-color:#1584AD"/>
				<stop  offset="0.9218" style="stop-color:#1B76B6"/>
				<stop  offset="1" style="stop-color:#1D71B8"/>
			</linearGradient>
			<ellipse class="st0" cx="216.83" cy="260.55" rx="44.7" ry="46.25"/>
		</g>
		<path class="st1" d="M250.64,273.58c23.94-12.87,9.31-28.19,8.04-29.45c0,0,0,0,0,0c0,0,2.13-8.01-3.57-14.04
			c-4.26-4.51-11.16-4.63-14.38-4.41c-7.8-21.38-22.59-13.5-25.23-11.87c-1.98-0.98-7.76-3.28-13.76-0.23
			c-7.4,3.77-8.66,14.14-8.66,14.14c-1.03,4.7-0.4,13.61,2.14,23.72c-4.83,4.95-9.07,10.48-12.13,16.48
			c-16.5-9.19-7.49-23.85-8.1-23.7c0,0-6.94,4.61-6.59,12.91c0.35,8.3,9.26,13.76,9.26,13.76c0.86,0.65,1.95,1.31,3.23,1.96
			c-10.19,26.58,13.21,27.54,13.21,27.54c0.02-0.16-10.75-4.62-10.4-15.24c0.09-2.69,0.87-6.14,2.45-10.04
			c5.62,2.05,13.01,3.84,21.1,4.77c3.78,5.88,8.34,11.2,13.74,15.29c0.7,0.53,1.39,1.02,2.06,1.48
			c-11.77,15.58-23.45,5.93-25.83,5.49c0,0,3.6,6.49,11.81,7.75c8.21,1.27,15.38-6.77,15.38-6.77c1-0.93,2.09-2.22,3.23-3.8
			c17.47,8.52,23.56-9.21,23.56-9.21c-0.15-0.06-7.41,9.06-17.44,5.87c-0.97-0.31-2.03-0.78-3.13-1.34c2.55-4.41,5.14-10,7.36-16.27
			C242.43,277.26,246.7,275.7,250.64,273.58z M258.59,244.04C258.59,244.04,258.59,244.04,258.59,244.04
			c-0.12,0.11,5.19,10.48-1.9,18.27c-2.97,3.26-8.67,6.86-16.58,9.4c3.69-12.87,5.44-27.6,2.26-40.61
			C255.22,231.17,258.02,242.91,258.59,244.04z M233.95,273.36c-6.64,1.44-14.42,2.12-23.15,1.46c-3.71-5.92-7.05-13.09-9.53-21.54
			c6.09-6.06,13.93-12,23.81-17.11c4.14-2.14,7.76-3.49,10.95-4.26C238.4,241.99,239.1,256.4,233.95,273.36z M215.59,214.31
			c2.36,0.43,12.85-0.3,16.46,6.45c0.85,1.58,1.72,3.59,2.52,5.97c-8.85,2.42-22.95,9.76-34.87,20.44
			c-0.26-1.17-0.55-2.32-0.78-3.53C193.52,215.19,211.89,214.53,215.59,214.31z M194.57,272.21c-2.29-0.56-4.32-1.2-6.16-1.88
			c2.1-3.96,4.95-8.21,8.65-12.5c1.73,5.39,3.97,10.94,6.78,16.22C200.84,273.59,197.75,272.99,194.57,272.21z M229.14,286.11
			c-0.98,2.15-1.97,4.05-2.96,5.78c-3.68-2.65-7.67-6.43-11.5-11.43c5.65,0.24,11.48,0.01,17.16-0.87
			C231.03,281.73,230.14,283.9,229.14,286.11z"/>
	</g>
</g>
</svg>
