<?xml version="1.0" encoding="utf-8"?>
<!-- Generator: Adobe Illustrator 25.2.2, SVG Export Plug-In . SVG Version: 6.00 Build 0)  -->
<svg version="1.1" id="Calque_1" xmlns="http://www.w3.org/2000/svg" xmlns:xlink="http://www.w3.org/1999/xlink" x="0px" y="0px"
	 viewBox="0 0 625.88 560" style="enable-background:new 0 0 625.88 560;" xml:space="preserve">
<style type="text/css">
	.st0{fill:url(#SVGID_1_);}
	.st1{fill:url(#SVGID_2_);}
	.st2{fill:url(#SVGID_3_);}
	.st3{fill:url(#SVGID_4_);}
	.st4{fill:url(#SVGID_5_);}
	.st5{fill:url(#SVGID_6_);}
	.st6{fill:url(#SVGID_7_);}
	.st7{fill:url(#SVGID_8_);}
	.st8{fill:url(#SVGID_9_);}
	.st9{fill:url(#SVGID_10_);}
	.st10{fill:url(#SVGID_11_);}
	.st11{fill:url(#SVGID_12_);}
	.st12{fill:url(#SVGID_13_);}
	.st13{fill:#1D71B8;}
	.st14{fill:#2FAC66;}
	.st15{fill:url(#SVGID_14_);}
	.st16{fill:#C4C4C4;}
	.st17{fill:#FFFFFF;}
	.st18{fill:#D3D3D3;}
	.st19{fill:#B7B7B7;}
	.st20{fill:url(#SVGID_15_);}
	.st21{fill:url(#SVGID_16_);}
	.st22{fill:url(#SVGID_17_);}
	.st23{fill:url(#SVGID_18_);}
	.st24{fill:url(#SVGID_19_);}
	.st25{fill:url(#SVGID_20_);}
	.st26{fill:url(#SVGID_21_);}
	.st27{fill:url(#SVGID_22_);}
	.st28{fill:url(#SVGID_23_);}
	.st29{fill:url(#SVGID_24_);}
	.st30{fill:url(#SVGID_25_);}
	.st31{fill:url(#SVGID_26_);}
	.st32{fill:url(#SVGID_27_);}
	.st33{fill:url(#SVGID_28_);}
	.st34{fill:url(#SVGID_29_);}
	.st35{clip-path:url(#SVGID_31_);fill:url(#SVGID_32_);}
	.st36{clip-path:url(#SVGID_34_);fill:url(#SVGID_35_);}
	.st37{clip-path:url(#SVGID_37_);fill:url(#SVGID_38_);}
	.st38{clip-path:url(#SVGID_40_);fill:url(#SVGID_41_);}
	.st39{clip-path:url(#SVGID_43_);fill:url(#SVGID_44_);}
	.st40{clip-path:url(#SVGID_46_);fill:url(#SVGID_47_);}
	.st41{clip-path:url(#SVGID_49_);fill:url(#SVGID_50_);}
	.st42{clip-path:url(#SVGID_52_);fill:url(#SVGID_53_);}
	.st43{clip-path:url(#SVGID_55_);fill:url(#SVGID_56_);}
	.st44{clip-path:url(#SVGID_58_);fill:url(#SVGID_59_);}
	.st45{clip-path:url(#SVGID_61_);fill:url(#SVGID_62_);}
	.st46{clip-path:url(#SVGID_64_);fill:url(#SVGID_65_);}
	.st47{clip-path:url(#SVGID_67_);fill:url(#SVGID_68_);}
	.st48{clip-path:url(#SVGID_70_);fill:url(#SVGID_71_);}
	.st49{clip-path:url(#SVGID_73_);fill:url(#SVGID_74_);}
	.st50{clip-path:url(#SVGID_76_);fill:url(#SVGID_77_);}
	.st51{clip-path:url(#SVGID_79_);fill:url(#SVGID_80_);}
	.st52{clip-path:url(#SVGID_82_);fill:url(#SVGID_83_);}
	.st53{clip-path:url(#SVGID_85_);fill:url(#SVGID_86_);}
	.st54{clip-path:url(#SVGID_88_);fill:url(#SVGID_89_);}
	.st55{clip-path:url(#SVGID_91_);fill:url(#SVGID_92_);}
	.st56{clip-path:url(#SVGID_94_);fill:url(#SVGID_95_);}
	.st57{clip-path:url(#SVGID_97_);fill:url(#SVGID_98_);}
	.st58{clip-path:url(#SVGID_100_);fill:url(#SVGID_101_);}
	.st59{clip-path:url(#SVGID_103_);fill:url(#SVGID_104_);}
	.st60{clip-path:url(#SVGID_106_);fill:url(#SVGID_107_);}
	.st61{clip-path:url(#SVGID_109_);fill:url(#SVGID_110_);}
	.st62{clip-path:url(#SVGID_109_);fill:#FFFFFF;}
	.st63{clip-path:url(#SVGID_112_);fill:url(#SVGID_113_);}
	.st64{clip-path:url(#SVGID_115_);fill:url(#SVGID_116_);}
	.st65{clip-path:url(#SVGID_118_);fill:url(#SVGID_119_);}
	.st66{clip-path:url(#SVGID_121_);fill:url(#SVGID_122_);}
	.st67{clip-path:url(#SVGID_124_);fill:url(#SVGID_125_);}
	.st68{clip-path:url(#SVGID_127_);fill:url(#SVGID_128_);}
	.st69{clip-path:url(#SVGID_130_);fill:url(#SVGID_131_);}
	.st70{clip-path:url(#SVGID_133_);fill:url(#SVGID_134_);}
	.st71{clip-path:url(#SVGID_136_);fill:url(#SVGID_137_);}
	.st72{clip-path:url(#SVGID_139_);fill:url(#SVGID_140_);}
	.st73{clip-path:url(#SVGID_142_);fill:url(#SVGID_143_);}
	.st74{clip-path:url(#SVGID_142_);fill:#FFFFFF;}
	.st75{clip-path:url(#SVGID_145_);fill:url(#SVGID_146_);}
	.st76{clip-path:url(#SVGID_148_);fill:url(#SVGID_149_);}
	.st77{fill:url(#SVGID_150_);}
	.st78{fill:url(#SVGID_151_);}
	.st79{clip-path:url(#SVGID_153_);fill:url(#SVGID_154_);}
	.st80{fill:url(#SVGID_155_);}
	.st81{fill:url(#SVGID_156_);}
	.st82{fill:url(#SVGID_157_);}
	.st83{clip-path:url(#SVGID_159_);fill:url(#SVGID_160_);}
	.st84{fill:url(#SVGID_161_);}
	.st85{clip-path:url(#SVGID_163_);fill:url(#SVGID_164_);}
	.st86{clip-path:url(#SVGID_166_);fill:url(#SVGID_167_);}
	.st87{clip-path:url(#SVGID_169_);fill:url(#SVGID_170_);}
	.st88{clip-path:url(#SVGID_172_);fill:url(#SVGID_173_);}
	.st89{clip-path:url(#SVGID_175_);fill:url(#SVGID_176_);}
	.st90{clip-path:url(#SVGID_178_);fill:url(#SVGID_179_);}
	.st91{clip-path:url(#SVGID_181_);fill:url(#SVGID_182_);}
	.st92{fill:url(#SVGID_183_);}
	.st93{fill:url(#SVGID_184_);}
	.st94{fill:url(#SVGID_185_);}
	.st95{clip-path:url(#SVGID_187_);fill:url(#SVGID_188_);}
	.st96{fill:url(#SVGID_189_);}
	.st97{clip-path:url(#SVGID_191_);fill:url(#SVGID_192_);}
	.st98{clip-path:url(#SVGID_194_);fill:url(#SVGID_195_);}
	.st99{clip-path:url(#SVGID_197_);fill:url(#SVGID_198_);}
	.st100{clip-path:url(#SVGID_200_);fill:url(#SVGID_201_);}
	.st101{clip-path:url(#SVGID_203_);fill:url(#SVGID_204_);}
	.st102{fill:#199194;}
	.st103{clip-path:url(#SVGID_206_);fill:url(#SVGID_207_);}
	.st104{clip-path:url(#SVGID_206_);fill:#C4C4C4;}
	.st105{fill:url(#SVGID_208_);}
	.st106{fill:#C4C4C4;stroke:#FFFFFF;stroke-width:2;stroke-miterlimit:10;}
	.st107{fill:url(#SVGID_209_);}
	.st108{fill:url(#SVGID_210_);}
	.st109{fill:url(#SVGID_211_);}
	.st110{fill:url(#SVGID_212_);}
	.st111{clip-path:url(#SVGID_214_);fill:url(#SVGID_215_);}
	.st112{clip-path:url(#SVGID_217_);fill:url(#SVGID_218_);}
	.st113{clip-path:url(#SVGID_220_);fill:url(#SVGID_221_);}
	.st114{clip-path:url(#SVGID_220_);fill:#C4C4C4;}
	.st115{clip-path:url(#SVGID_223_);fill:url(#SVGID_224_);}
	.st116{clip-path:url(#SVGID_223_);fill:#C4C4C4;}
</style>
<g>
	<g>
		<defs>
			<path id="SVGID_90_" d="M399.56,178.9c-6.2-6.2-14.77-10.04-24.18-10.04H216.65c-18.83,0-34.24,15.38-34.24,34.18v158.45
				c0,9.4,3.85,17.94,10.05,24.14c6.2,6.2,14.77,10.04,24.18,10.04h158.73c9.41,0,17.97-3.84,24.18-10.04
				c6.2-6.2,10.06-14.74,10.06-24.14V203.04C409.62,193.64,405.76,185.09,399.56,178.9z M255.55,361.49c0,2.14-0.88,4.08-2.29,5.49
				c-1.41,1.41-3.36,2.28-5.5,2.28h-31.12c-2.14,0-4.08-0.87-5.5-2.28c-1.41-1.41-2.28-3.35-2.28-5.49v-31.07
				c0-4.27,3.5-7.77,7.78-7.77h31.12c2.14,0,4.09,0.87,5.5,2.28c1.41,1.41,2.29,3.35,2.29,5.49V361.49z M255.55,299.35
				c0,2.14-0.88,4.08-2.29,5.49c-1.41,1.41-3.36,2.28-5.5,2.28h-31.12c-2.14,0-4.08-0.87-5.5-2.28c-1.41-1.41-2.28-3.35-2.28-5.49
				v-31.07c0-4.27,3.5-7.77,7.78-7.77h31.12c2.14,0,4.09,0.88,5.5,2.28c1.41,1.41,2.29,3.35,2.29,5.49V299.35z M319.36,361.49
				c0,2.14-0.88,4.08-2.29,5.49c-1.41,1.41-3.35,2.28-5.5,2.28h-31.12c-2.14,0-4.09-0.87-5.5-2.28c-1.41-1.41-2.29-3.35-2.29-5.49
				v-31.07c0-4.27,3.5-7.77,7.78-7.77h31.12c2.14,0,4.09,0.87,5.5,2.28c1.41,1.41,2.29,3.35,2.29,5.49V361.49z M319.36,299.35
				c0,2.14-0.88,4.08-2.29,5.49c-1.41,1.41-3.35,2.28-5.5,2.28h-31.12c-2.14,0-4.09-0.87-5.5-2.28c-1.41-1.41-2.29-3.35-2.29-5.49
				v-31.07c0-4.27,3.5-7.77,7.78-7.77h31.12c2.14,0,4.09,0.88,5.5,2.28c1.41,1.41,2.29,3.35,2.29,5.49V299.35z M383.16,361.49
				c0,4.27-3.5,7.77-7.78,7.77h-31.12c-4.28,0-7.78-3.5-7.78-7.77v-93.21c0-4.27,3.5-7.77,7.78-7.77h31.12
				c4.28,0,7.78,3.5,7.78,7.77V361.49z M383.16,238.77c0,4.27-3.5,7.77-7.78,7.77H216.65c-4.28,0-7.78-3.49-7.78-7.77v-35.73
				c0-4.28,3.5-7.77,7.78-7.77h158.73c4.28,0,7.78,3.49,7.78,7.77V238.77z"/>
		</defs>
		<clipPath id="SVGID_1_">
			<use xlink:href="#SVGID_90_"  style="overflow:visible;"/>
		</clipPath>
		<linearGradient id="SVGID_2_" gradientUnits="userSpaceOnUse" x1="58.3365" y1="280" x2="532.2498" y2="280">
			<stop  offset="0.3438" style="stop-color:#2FAC66"/>
			<stop  offset="0.5653" style="stop-color:#1B9894"/>
			<stop  offset="0.7718" style="stop-color:#1584AD"/>
			<stop  offset="0.9218" style="stop-color:#1B76B6"/>
			<stop  offset="1" style="stop-color:#1D71B8"/>
		</linearGradient>
		<circle style="clip-path:url(#SVGID_1_);fill:url(#SVGID_2_);" cx="295.29" cy="280" r="236.96"/>
	</g>
	<g>
		<defs>
			<path id="SVGID_93_" d="M305.74,280.71h-19.45c-1.72,0-3.11,1.39-3.11,3.1c0,1.72,1.39,3.11,3.11,3.11h19.45
				c1.72,0,3.11-1.39,3.11-3.11C308.85,282.1,307.46,280.71,305.74,280.71z"/>
		</defs>
		<clipPath id="SVGID_3_">
			<use xlink:href="#SVGID_93_"  style="overflow:visible;"/>
		</clipPath>
		<linearGradient id="SVGID_4_" gradientUnits="userSpaceOnUse" x1="58.3379" y1="279.9985" x2="532.2513" y2="279.9985">
			<stop  offset="0.3438" style="stop-color:#2FAC66"/>
			<stop  offset="0.5653" style="stop-color:#1B9894"/>
			<stop  offset="0.7718" style="stop-color:#1584AD"/>
			<stop  offset="0.9218" style="stop-color:#1B76B6"/>
			<stop  offset="1" style="stop-color:#1D71B8"/>
		</linearGradient>
		<circle style="clip-path:url(#SVGID_3_);fill:url(#SVGID_4_);" cx="295.29" cy="280" r="236.96"/>
	</g>
	<g>
		<defs>
			<path id="SVGID_96_" d="M372.65,311.81c0,1.71-1.4,3.1-3.11,3.1h-19.45c-1.72,0-3.11-1.39-3.11-3.1c0-1.72,1.39-3.11,3.11-3.11
				h19.45C371.26,308.7,372.65,310.09,372.65,311.81z M369.54,321.32h-19.45c-1.72,0-3.11,1.4-3.11,3.11c0,1.71,1.39,3.1,3.11,3.1
				h19.45c1.72,0,3.11-1.39,3.11-3.1C372.65,322.71,371.26,321.32,369.54,321.32z"/>
		</defs>
		<clipPath id="SVGID_5_">
			<use xlink:href="#SVGID_96_"  style="overflow:visible;"/>
		</clipPath>
		<linearGradient id="SVGID_6_" gradientUnits="userSpaceOnUse" x1="58.335" y1="283.2279" x2="532.2484" y2="283.2279">
			<stop  offset="0.3438" style="stop-color:#2FAC66"/>
			<stop  offset="0.5653" style="stop-color:#1B9894"/>
			<stop  offset="0.7718" style="stop-color:#1584AD"/>
			<stop  offset="0.9218" style="stop-color:#1B76B6"/>
			<stop  offset="1" style="stop-color:#1D71B8"/>
		</linearGradient>
		<circle style="clip-path:url(#SVGID_5_);fill:url(#SVGID_6_);" cx="295.29" cy="283.23" r="236.96"/>
	</g>
	<g>
		<defs>
			<path id="SVGID_99_" d="M308.13,345.96c0,1.71-1.39,3.11-3.11,3.11h-19.45c-1.72,0-3.11-1.39-3.11-3.11
				c0-1.72,1.39-3.11,3.11-3.11h19.45C306.74,342.85,308.13,344.24,308.13,345.96z M295.29,340.37c1.93,0,3.5-1.57,3.5-3.5
				c0-1.93-1.57-3.5-3.5-3.5c-1.94,0-3.5,1.57-3.5,3.5C291.79,338.8,293.36,340.37,295.29,340.37z M295.29,351.56
				c-1.94,0-3.5,1.56-3.5,3.49c0,1.93,1.57,3.5,3.5,3.5c1.93,0,3.5-1.57,3.5-3.5C298.79,353.12,297.23,351.56,295.29,351.56z"/>
		</defs>
		<clipPath id="SVGID_7_">
			<use xlink:href="#SVGID_99_"  style="overflow:visible;"/>
		</clipPath>
		<linearGradient id="SVGID_8_" gradientUnits="userSpaceOnUse" x1="57.6159" y1="280.0022" x2="531.5292" y2="280.0022">
			<stop  offset="0.3438" style="stop-color:#2FAC66"/>
			<stop  offset="0.5653" style="stop-color:#1B9894"/>
			<stop  offset="0.7718" style="stop-color:#1584AD"/>
			<stop  offset="0.9218" style="stop-color:#1B76B6"/>
			<stop  offset="1" style="stop-color:#1D71B8"/>
		</linearGradient>
		<circle style="clip-path:url(#SVGID_7_);fill:url(#SVGID_8_);" cx="294.57" cy="280" r="236.96"/>
	</g>
	<g>
		<defs>
			<path id="SVGID_102_" d="M241.29,336.89c-1.21-1.21-3.18-1.21-4.4,0l-4.68,4.67l-4.67-4.67c-1.22-1.21-3.19-1.21-4.4,0
				c-1.22,1.21-1.22,3.18,0,4.39l4.67,4.67l-4.67,4.67c-1.22,1.21-1.22,3.18,0,4.39c0.6,0.6,1.4,0.9,2.2,0.9c0.8,0,1.59-0.3,2.2-0.9
				l4.67-4.67l4.68,4.67c0.6,0.6,1.4,0.9,2.2,0.9c0.8,0,1.59-0.3,2.2-0.9c1.22-1.22,1.22-3.18,0-4.39l-4.67-4.67l4.67-4.67
				C242.5,340.08,242.5,338.11,241.29,336.89z"/>
		</defs>
		<clipPath id="SVGID_9_">
			<use xlink:href="#SVGID_102_"  style="overflow:visible;"/>
		</clipPath>
		<linearGradient id="SVGID_10_" gradientUnits="userSpaceOnUse" x1="58.3378" y1="280.0024" x2="532.2512" y2="280.0024">
			<stop  offset="0.3438" style="stop-color:#2FAC66"/>
			<stop  offset="0.5653" style="stop-color:#1B9894"/>
			<stop  offset="0.7718" style="stop-color:#1584AD"/>
			<stop  offset="0.9218" style="stop-color:#1B76B6"/>
			<stop  offset="1" style="stop-color:#1D71B8"/>
		</linearGradient>
		<circle style="clip-path:url(#SVGID_9_);fill:url(#SVGID_10_);" cx="295.29" cy="280" r="236.96"/>
	</g>
	<g>
		<defs>
			<path id="SVGID_105_" d="M241.93,280.71h-6.61v-6.6c0-1.72-1.39-3.11-3.11-3.11c-1.72,0-3.11,1.39-3.11,3.11v6.6h-6.61
				c-1.72,0-3.11,1.39-3.11,3.1c0,1.72,1.39,3.11,3.11,3.11h6.61v6.6c0,1.72,1.39,3.11,3.11,3.11c1.72,0,3.11-1.39,3.11-3.11v-6.6
				h6.61c1.72,0,3.12-1.39,3.12-3.11C245.05,282.1,243.66,280.71,241.93,280.71z"/>
		</defs>
		<clipPath id="SVGID_11_">
			<use xlink:href="#SVGID_105_"  style="overflow:visible;"/>
		</clipPath>
		<linearGradient id="SVGID_12_" gradientUnits="userSpaceOnUse" x1="58.3379" y1="279.9999" x2="532.2513" y2="279.9999">
			<stop  offset="0.3438" style="stop-color:#2FAC66"/>
			<stop  offset="0.5653" style="stop-color:#1B9894"/>
			<stop  offset="0.7718" style="stop-color:#1584AD"/>
			<stop  offset="0.9218" style="stop-color:#1B76B6"/>
			<stop  offset="1" style="stop-color:#1D71B8"/>
		</linearGradient>
		<circle style="clip-path:url(#SVGID_11_);fill:url(#SVGID_12_);" cx="295.29" cy="280" r="236.96"/>
	</g>
</g>
</svg>
