<?xml version="1.0" encoding="utf-8"?>
<!-- Generator: Adobe Illustrator 25.2.2, SVG Export Plug-In . SVG Version: 6.00 Build 0)  -->
<svg version="1.1" id="Calque_1" xmlns="http://www.w3.org/2000/svg" xmlns:xlink="http://www.w3.org/1999/xlink" x="0px" y="0px"
	 viewBox="0 0 625.88 560" style="enable-background:new 0 0 625.88 560;" xml:space="preserve">
<style type="text/css">
	.st0{fill:url(#SVGID_1_);}
	.st1{fill:url(#SVGID_2_);}
	.st2{fill:url(#SVGID_3_);}
	.st3{fill:url(#SVGID_4_);}
	.st4{fill:url(#SVGID_5_);}
	.st5{fill:url(#SVGID_6_);}
	.st6{fill:url(#SVGID_7_);}
	.st7{fill:url(#SVGID_8_);}
	.st8{fill:url(#SVGID_9_);}
	.st9{fill:url(#SVGID_10_);}
	.st10{fill:url(#SVGID_11_);}
	.st11{fill:url(#SVGID_12_);}
	.st12{fill:url(#SVGID_13_);}
	.st13{fill:#1D71B8;}
	.st14{fill:#2FAC66;}
	.st15{fill:url(#SVGID_14_);}
	.st16{fill:#C4C4C4;}
	.st17{fill:#FFFFFF;}
	.st18{fill:#D3D3D3;}
	.st19{fill:#B7B7B7;}
	.st20{fill:url(#SVGID_15_);}
	.st21{fill:url(#SVGID_16_);}
	.st22{fill:url(#SVGID_17_);}
	.st23{fill:url(#SVGID_18_);}
	.st24{fill:url(#SVGID_19_);}
	.st25{fill:url(#SVGID_20_);}
	.st26{fill:url(#SVGID_21_);}
	.st27{fill:url(#SVGID_22_);}
	.st28{fill:url(#SVGID_23_);}
	.st29{fill:url(#SVGID_24_);}
	.st30{fill:url(#SVGID_25_);}
	.st31{fill:url(#SVGID_26_);}
	.st32{fill:url(#SVGID_27_);}
	.st33{fill:url(#SVGID_28_);}
	.st34{fill:url(#SVGID_29_);}
	.st35{clip-path:url(#SVGID_31_);fill:url(#SVGID_32_);}
	.st36{clip-path:url(#SVGID_34_);fill:url(#SVGID_35_);}
	.st37{clip-path:url(#SVGID_37_);fill:url(#SVGID_38_);}
	.st38{clip-path:url(#SVGID_40_);fill:url(#SVGID_41_);}
	.st39{clip-path:url(#SVGID_43_);fill:url(#SVGID_44_);}
	.st40{clip-path:url(#SVGID_46_);fill:url(#SVGID_47_);}
	.st41{clip-path:url(#SVGID_49_);fill:url(#SVGID_50_);}
	.st42{clip-path:url(#SVGID_52_);fill:url(#SVGID_53_);}
	.st43{clip-path:url(#SVGID_55_);fill:url(#SVGID_56_);}
	.st44{clip-path:url(#SVGID_58_);fill:url(#SVGID_59_);}
	.st45{clip-path:url(#SVGID_61_);fill:url(#SVGID_62_);}
	.st46{clip-path:url(#SVGID_64_);fill:url(#SVGID_65_);}
	.st47{clip-path:url(#SVGID_67_);fill:url(#SVGID_68_);}
	.st48{clip-path:url(#SVGID_70_);fill:url(#SVGID_71_);}
	.st49{clip-path:url(#SVGID_73_);fill:url(#SVGID_74_);}
	.st50{clip-path:url(#SVGID_76_);fill:url(#SVGID_77_);}
	.st51{clip-path:url(#SVGID_79_);fill:url(#SVGID_80_);}
	.st52{clip-path:url(#SVGID_82_);fill:url(#SVGID_83_);}
	.st53{clip-path:url(#SVGID_85_);fill:url(#SVGID_86_);}
	.st54{clip-path:url(#SVGID_88_);fill:url(#SVGID_89_);}
	.st55{clip-path:url(#SVGID_91_);fill:url(#SVGID_92_);}
	.st56{clip-path:url(#SVGID_94_);fill:url(#SVGID_95_);}
	.st57{clip-path:url(#SVGID_97_);fill:url(#SVGID_98_);}
	.st58{clip-path:url(#SVGID_100_);fill:url(#SVGID_101_);}
	.st59{clip-path:url(#SVGID_103_);fill:url(#SVGID_104_);}
	.st60{clip-path:url(#SVGID_106_);fill:url(#SVGID_107_);}
	.st61{clip-path:url(#SVGID_109_);fill:url(#SVGID_110_);}
	.st62{clip-path:url(#SVGID_109_);fill:#FFFFFF;}
	.st63{clip-path:url(#SVGID_112_);fill:url(#SVGID_113_);}
	.st64{clip-path:url(#SVGID_115_);fill:url(#SVGID_116_);}
	.st65{clip-path:url(#SVGID_118_);fill:url(#SVGID_119_);}
	.st66{clip-path:url(#SVGID_121_);fill:url(#SVGID_122_);}
	.st67{clip-path:url(#SVGID_124_);fill:url(#SVGID_125_);}
	.st68{clip-path:url(#SVGID_127_);fill:url(#SVGID_128_);}
	.st69{clip-path:url(#SVGID_130_);fill:url(#SVGID_131_);}
	.st70{clip-path:url(#SVGID_133_);fill:url(#SVGID_134_);}
	.st71{clip-path:url(#SVGID_136_);fill:url(#SVGID_137_);}
	.st72{clip-path:url(#SVGID_139_);fill:url(#SVGID_140_);}
	.st73{clip-path:url(#SVGID_142_);fill:url(#SVGID_143_);}
	.st74{clip-path:url(#SVGID_142_);fill:#FFFFFF;}
	.st75{clip-path:url(#SVGID_145_);fill:url(#SVGID_146_);}
	.st76{clip-path:url(#SVGID_148_);fill:url(#SVGID_149_);}
	.st77{fill:url(#SVGID_150_);}
	.st78{fill:url(#SVGID_151_);}
	.st79{clip-path:url(#SVGID_153_);fill:url(#SVGID_154_);}
	.st80{fill:url(#SVGID_155_);}
	.st81{fill:url(#SVGID_156_);}
	.st82{fill:url(#SVGID_157_);}
	.st83{clip-path:url(#SVGID_159_);fill:url(#SVGID_160_);}
	.st84{fill:url(#SVGID_161_);}
	.st85{clip-path:url(#SVGID_163_);fill:url(#SVGID_164_);}
	.st86{clip-path:url(#SVGID_166_);fill:url(#SVGID_167_);}
	.st87{clip-path:url(#SVGID_169_);fill:url(#SVGID_170_);}
	.st88{clip-path:url(#SVGID_172_);fill:url(#SVGID_173_);}
	.st89{clip-path:url(#SVGID_175_);fill:url(#SVGID_176_);}
	.st90{clip-path:url(#SVGID_178_);fill:url(#SVGID_179_);}
	.st91{clip-path:url(#SVGID_181_);fill:url(#SVGID_182_);}
	.st92{fill:url(#SVGID_183_);}
	.st93{fill:url(#SVGID_184_);}
	.st94{fill:url(#SVGID_185_);}
	.st95{clip-path:url(#SVGID_187_);fill:url(#SVGID_188_);}
	.st96{fill:url(#SVGID_189_);}
	.st97{clip-path:url(#SVGID_191_);fill:url(#SVGID_192_);}
	.st98{clip-path:url(#SVGID_194_);fill:url(#SVGID_195_);}
	.st99{clip-path:url(#SVGID_197_);fill:url(#SVGID_198_);}
	.st100{clip-path:url(#SVGID_200_);fill:url(#SVGID_201_);}
	.st101{clip-path:url(#SVGID_203_);fill:url(#SVGID_204_);}
	.st102{fill:#199194;}
	.st103{clip-path:url(#SVGID_206_);fill:url(#SVGID_207_);}
	.st104{clip-path:url(#SVGID_206_);fill:#C4C4C4;}
	.st105{fill:url(#SVGID_208_);}
	.st106{fill:#C4C4C4;stroke:#FFFFFF;stroke-width:2;stroke-miterlimit:10;}
	.st107{fill:url(#SVGID_209_);}
	.st108{fill:url(#SVGID_210_);}
	.st109{fill:url(#SVGID_211_);}
	.st110{fill:url(#SVGID_212_);}
	.st111{clip-path:url(#SVGID_214_);fill:url(#SVGID_215_);}
	.st112{clip-path:url(#SVGID_217_);fill:url(#SVGID_218_);}
	.st113{clip-path:url(#SVGID_220_);fill:url(#SVGID_221_);}
	.st114{clip-path:url(#SVGID_220_);fill:#C4C4C4;}
	.st115{clip-path:url(#SVGID_223_);fill:url(#SVGID_224_);}
	.st116{clip-path:url(#SVGID_223_);fill:#C4C4C4;}
</style>
<g>
	<defs>
		<path id="SVGID_72_" d="M312.38,187.75h-63.11v-4.77l8.2-4.34h5.93v-7.79c-1.99-0.6-3.45-2.43-3.45-4.62
			c0-2.68,2.17-4.85,4.84-4.85c2.67,0,4.84,2.17,4.84,4.85c0,2.29-1.58,4.19-3.71,4.7v7.71h40.37c0,0,0.25-2.67,0.62-8.45
			c-4.87-0.32-13.39-2.26-13.39-2.46c0-0.2,8.62-2.18,13.47-2.49c0.33-4.98,0.84-8.52,1.25-14.24c-3.12-0.2-8.76-1.6-8.76-1.73
			c0-0.13,5.87-1.79,8.97-1.99c0.79-10.88,1.43-19.26,1.8-19.26c0.37,0,1.33,8.39,2.12,19.26c3.1,0.2,8.65,1.85,8.65,1.99
			c0,0.13-5.53,1.52-8.65,1.73c0.41,5.71,0.69,9.25,1.02,14.24c4.85,0.31,13.59,2.29,13.59,2.49c0,0.2-8.51,2.14-13.38,2.46
			c0.37,5.78,0.62,8.45,0.62,8.45h40.11v-7.79c-1.99-0.6-3.45-2.43-3.45-4.62c0-2.68,2.17-4.85,4.84-4.85
			c2.68,0,4.85,2.17,4.85,4.85c0,2.29-1.58,4.19-3.71,4.7v7.71h10.42l8.2,4.34v4.77H312.38z M419.9,412.97
			c-8.33,0-12.66,2.35-16.48,4.43c-3.22,1.75-5.55,3.02-10.93,3.02c-5.38,0-7.71-1.26-10.93-3.02c-3.82-2.08-8.15-4.43-16.48-4.43
			c-8.32,0-12.65,2.35-16.48,4.43c-3.22,1.75-5.55,3.02-10.93,3.02c-5.37,0-7.7-1.26-10.93-3.02c-3.82-2.08-8.15-4.43-16.48-4.43
			c-8.33,0-12.66,2.35-16.48,4.43c-3.22,1.75-5.54,3.02-10.92,3.02c-5.38,0-7.71-1.26-10.94-3.02c-3.82-2.07-8.14-4.43-16.47-4.43
			c-8.33,0-12.66,2.35-16.48,4.43c-3.22,1.75-5.54,3.02-10.92,3.02c-5.38,0-7.71-1.26-10.94-3.02c-3.82-2.07-8.15-4.42-16.47-4.42
			c-3.21,0-5.82,2.61-5.82,5.83c0,3.22,2.61,5.83,5.82,5.83c5.37,0,7.7,1.26,10.93,3.01c3.63,1.97,8.14,4.43,16.48,4.43
			c8.33,0,12.66-2.35,16.48-4.43c3.22-1.75,5.55-3.01,10.93-3.01c5.38,0,7.71,1.26,10.93,3.02c3.82,2.07,8.15,4.42,16.48,4.42
			c8.34,0,12.85-2.46,16.49-4.43c3.22-1.75,5.55-3.01,10.92-3.01c5.38,0,7.7,1.26,10.93,3.01c3.82,2.08,8.15,4.43,16.48,4.43
			c8.33,0,12.66-2.35,16.48-4.43c3.22-1.75,5.55-3.01,10.93-3.01c5.38,0,7.71,1.26,10.93,3.02c3.63,1.97,8.15,4.43,16.48,4.43
			c8.34,0,12.66-2.35,16.48-4.43c3.22-1.75,5.55-3.02,10.93-3.02c3.21,0,5.82-2.62,5.82-5.83
			C425.72,415.58,423.11,412.97,419.9,412.97z M255.44,398.44c10.85,0,16.84,3.25,21.21,5.63c2.76,1.5,3.34,1.82,6.21,1.82
			c2.86,0,3.43-0.31,6.19-1.81c4.37-2.38,10.36-5.63,21.21-5.63s16.83,3.26,21.21,5.63c2.76,1.5,3.34,1.81,6.2,1.81
			s3.44-0.31,6.2-1.81c4.37-2.38,10.36-5.63,21.21-5.63c7.29,0,12.36,1.48,16.24,3.16l37.85-121.16c0,0-69-41.29-106.79-40.79
			c-37.79-0.5-105.59,40.24-105.59,40.24l36.29,120.28C246.37,399.16,250.35,398.44,255.44,398.44z M311.63,229.75h1.5
			c30.17,0,72.47,20.96,92.77,32.08l1.74-11.74l-8.3-31.81H225.42l-8.3,31.81l1.74,11.75C239.15,250.71,281.46,229.75,311.63,229.75
			z M404.53,210.97l-9.71-17.05h-82.45h-82.45l-9.71,17.05h92.16H404.53z"/>
	</defs>
	<clipPath id="SVGID_1_">
		<use xlink:href="#SVGID_72_"  style="overflow:visible;"/>
	</clipPath>
	<linearGradient id="SVGID_2_" gradientUnits="userSpaceOnUse" x1="73.1931" y1="284" x2="547.1066" y2="284">
		<stop  offset="0.3438" style="stop-color:#2FAC66"/>
		<stop  offset="0.5653" style="stop-color:#1B9894"/>
		<stop  offset="0.7718" style="stop-color:#1584AD"/>
		<stop  offset="0.9218" style="stop-color:#1B76B6"/>
		<stop  offset="1" style="stop-color:#1D71B8"/>
	</linearGradient>
	<circle style="clip-path:url(#SVGID_1_);fill:url(#SVGID_2_);" cx="310.15" cy="284" r="236.96"/>
</g>
</svg>
