<?xml version="1.0" encoding="utf-8"?>
<!-- Generator: Adobe Illustrator 25.2.2, SVG Export Plug-In . SVG Version: 6.00 Build 0)  -->
<svg version="1.1" id="Calque_1" xmlns="http://www.w3.org/2000/svg" xmlns:xlink="http://www.w3.org/1999/xlink" x="0px" y="0px"
	 viewBox="0 0 625.88 560" style="enable-background:new 0 0 625.88 560;" xml:space="preserve">
<style type="text/css">
	.st0{fill:url(#SVGID_1_);}
	.st1{fill:url(#SVGID_2_);}
	.st2{fill:url(#SVGID_3_);}
	.st3{fill:url(#SVGID_4_);}
	.st4{fill:url(#SVGID_5_);}
	.st5{fill:url(#SVGID_6_);}
	.st6{fill:url(#SVGID_7_);}
	.st7{fill:url(#SVGID_8_);}
	.st8{fill:url(#SVGID_9_);}
	.st9{fill:url(#SVGID_10_);}
	.st10{fill:url(#SVGID_11_);}
	.st11{fill:url(#SVGID_12_);}
	.st12{fill:url(#SVGID_13_);}
	.st13{fill:#1D71B8;}
	.st14{fill:#2FAC66;}
	.st15{fill:url(#SVGID_14_);}
	.st16{fill:#C4C4C4;}
	.st17{fill:#FFFFFF;}
	.st18{fill:#D3D3D3;}
	.st19{fill:#B7B7B7;}
	.st20{fill:url(#SVGID_15_);}
	.st21{fill:url(#SVGID_16_);}
	.st22{fill:url(#SVGID_17_);}
	.st23{fill:url(#SVGID_18_);}
	.st24{fill:url(#SVGID_19_);}
	.st25{fill:url(#SVGID_20_);}
	.st26{fill:url(#SVGID_21_);}
	.st27{fill:url(#SVGID_22_);}
	.st28{fill:url(#SVGID_23_);}
	.st29{fill:url(#SVGID_24_);}
	.st30{fill:url(#SVGID_25_);}
	.st31{fill:url(#SVGID_26_);}
	.st32{fill:url(#SVGID_27_);}
	.st33{fill:url(#SVGID_28_);}
	.st34{fill:url(#SVGID_29_);}
	.st35{clip-path:url(#SVGID_31_);fill:url(#SVGID_32_);}
	.st36{clip-path:url(#SVGID_34_);fill:url(#SVGID_35_);}
	.st37{clip-path:url(#SVGID_37_);fill:url(#SVGID_38_);}
	.st38{clip-path:url(#SVGID_40_);fill:url(#SVGID_41_);}
	.st39{clip-path:url(#SVGID_43_);fill:url(#SVGID_44_);}
	.st40{clip-path:url(#SVGID_46_);fill:url(#SVGID_47_);}
	.st41{clip-path:url(#SVGID_49_);fill:url(#SVGID_50_);}
	.st42{clip-path:url(#SVGID_52_);fill:url(#SVGID_53_);}
	.st43{clip-path:url(#SVGID_55_);fill:url(#SVGID_56_);}
	.st44{clip-path:url(#SVGID_58_);fill:url(#SVGID_59_);}
	.st45{clip-path:url(#SVGID_61_);fill:url(#SVGID_62_);}
	.st46{clip-path:url(#SVGID_64_);fill:url(#SVGID_65_);}
	.st47{clip-path:url(#SVGID_67_);fill:url(#SVGID_68_);}
	.st48{clip-path:url(#SVGID_70_);fill:url(#SVGID_71_);}
	.st49{clip-path:url(#SVGID_73_);fill:url(#SVGID_74_);}
	.st50{clip-path:url(#SVGID_76_);fill:url(#SVGID_77_);}
	.st51{clip-path:url(#SVGID_79_);fill:url(#SVGID_80_);}
	.st52{clip-path:url(#SVGID_82_);fill:url(#SVGID_83_);}
	.st53{clip-path:url(#SVGID_85_);fill:url(#SVGID_86_);}
	.st54{clip-path:url(#SVGID_88_);fill:url(#SVGID_89_);}
	.st55{clip-path:url(#SVGID_91_);fill:url(#SVGID_92_);}
	.st56{clip-path:url(#SVGID_94_);fill:url(#SVGID_95_);}
	.st57{clip-path:url(#SVGID_97_);fill:url(#SVGID_98_);}
	.st58{clip-path:url(#SVGID_100_);fill:url(#SVGID_101_);}
	.st59{clip-path:url(#SVGID_103_);fill:url(#SVGID_104_);}
	.st60{clip-path:url(#SVGID_106_);fill:url(#SVGID_107_);}
	.st61{clip-path:url(#SVGID_109_);fill:url(#SVGID_110_);}
	.st62{clip-path:url(#SVGID_109_);fill:#FFFFFF;}
	.st63{clip-path:url(#SVGID_112_);fill:url(#SVGID_113_);}
	.st64{clip-path:url(#SVGID_115_);fill:url(#SVGID_116_);}
	.st65{clip-path:url(#SVGID_118_);fill:url(#SVGID_119_);}
	.st66{clip-path:url(#SVGID_121_);fill:url(#SVGID_122_);}
	.st67{clip-path:url(#SVGID_124_);fill:url(#SVGID_125_);}
	.st68{clip-path:url(#SVGID_127_);fill:url(#SVGID_128_);}
	.st69{clip-path:url(#SVGID_130_);fill:url(#SVGID_131_);}
	.st70{clip-path:url(#SVGID_133_);fill:url(#SVGID_134_);}
	.st71{clip-path:url(#SVGID_136_);fill:url(#SVGID_137_);}
	.st72{clip-path:url(#SVGID_139_);fill:url(#SVGID_140_);}
	.st73{clip-path:url(#SVGID_142_);fill:url(#SVGID_143_);}
	.st74{clip-path:url(#SVGID_142_);fill:#FFFFFF;}
	.st75{clip-path:url(#SVGID_145_);fill:url(#SVGID_146_);}
	.st76{clip-path:url(#SVGID_148_);fill:url(#SVGID_149_);}
	.st77{fill:url(#SVGID_150_);}
	.st78{fill:url(#SVGID_151_);}
	.st79{clip-path:url(#SVGID_153_);fill:url(#SVGID_154_);}
	.st80{fill:url(#SVGID_155_);}
	.st81{fill:url(#SVGID_156_);}
	.st82{fill:url(#SVGID_157_);}
	.st83{clip-path:url(#SVGID_159_);fill:url(#SVGID_160_);}
	.st84{fill:url(#SVGID_161_);}
	.st85{clip-path:url(#SVGID_163_);fill:url(#SVGID_164_);}
	.st86{clip-path:url(#SVGID_166_);fill:url(#SVGID_167_);}
	.st87{clip-path:url(#SVGID_169_);fill:url(#SVGID_170_);}
	.st88{clip-path:url(#SVGID_172_);fill:url(#SVGID_173_);}
	.st89{clip-path:url(#SVGID_175_);fill:url(#SVGID_176_);}
	.st90{clip-path:url(#SVGID_178_);fill:url(#SVGID_179_);}
	.st91{clip-path:url(#SVGID_181_);fill:url(#SVGID_182_);}
	.st92{fill:url(#SVGID_183_);}
	.st93{fill:url(#SVGID_184_);}
	.st94{fill:url(#SVGID_185_);}
	.st95{clip-path:url(#SVGID_187_);fill:url(#SVGID_188_);}
	.st96{fill:url(#SVGID_189_);}
	.st97{clip-path:url(#SVGID_191_);fill:url(#SVGID_192_);}
	.st98{clip-path:url(#SVGID_194_);fill:url(#SVGID_195_);}
	.st99{clip-path:url(#SVGID_197_);fill:url(#SVGID_198_);}
	.st100{clip-path:url(#SVGID_200_);fill:url(#SVGID_201_);}
	.st101{clip-path:url(#SVGID_203_);fill:url(#SVGID_204_);}
	.st102{fill:#199194;}
	.st103{clip-path:url(#SVGID_206_);fill:url(#SVGID_207_);}
	.st104{clip-path:url(#SVGID_206_);fill:#C4C4C4;}
	.st105{fill:url(#SVGID_208_);}
	.st106{fill:#C4C4C4;stroke:#FFFFFF;stroke-width:2;stroke-miterlimit:10;}
	.st107{fill:url(#SVGID_209_);}
	.st108{fill:url(#SVGID_210_);}
	.st109{fill:url(#SVGID_211_);}
	.st110{fill:url(#SVGID_212_);}
	.st111{clip-path:url(#SVGID_214_);fill:url(#SVGID_215_);}
	.st112{clip-path:url(#SVGID_217_);fill:url(#SVGID_218_);}
	.st113{clip-path:url(#SVGID_220_);fill:url(#SVGID_221_);}
	.st114{clip-path:url(#SVGID_220_);fill:#C4C4C4;}
	.st115{clip-path:url(#SVGID_223_);fill:url(#SVGID_224_);}
	.st116{clip-path:url(#SVGID_223_);fill:#C4C4C4;}
</style>
<g>
	<defs>
		<path id="SVGID_158_" d="M384.59,187.79v9.91v187.73c0,10.26-8.39,18.65-18.64,18.65H224.57c-10.26,0-18.65-8.39-18.65-18.65
			V197.71v-9.91c0-10.25,8.39-18.65,18.65-18.65h21.48v18.93h-25.19v196.53h148.8V209.37v-21.29h-25.19v-18.93h21.49
			C376.2,169.14,384.59,177.54,384.59,187.79z M335.73,173.41h-25.76v-3.66c0-7.64-6.2-13.84-13.84-13.84
			c-7.64,0-13.84,6.19-13.84,13.84v3.66h-27.52v23.55h80.95V173.41z M308.55,300.96l-32.23-27.58c-11.22,13.53-19.9,27-25.09,38.28
			l23.37,20.01C284.94,324.8,296.91,314.14,308.55,300.96z M243.66,338.99l-2.78,3.25c-1.2,1.41-1.03,3.54,0.37,4.74
			c0.68,0.59,1.55,0.87,2.45,0.81c0.9-0.07,1.72-0.48,2.31-1.17l2.76-3.23c-1.07-0.44-2.05-1.03-2.92-1.77
			C245.06,340.93,244.31,340.07,243.66,338.99z M271.04,333.94l-10.75-9.21l-10.75-9.2c-4.5,11.02-5.2,19.48-1.07,23.01
			C252.6,342.09,260.84,340.08,271.04,333.94z M341.28,230.08c-8.11-6.95-32.06,7.46-55.63,32.71l31.91,27.31
			C338.88,262.91,349.4,237.03,341.28,230.08z M278.91,270.31l16.14,13.81l16.14,13.81c1.32-1.55,2.6-3.11,3.86-4.66l-16.06-13.75
			l-16.07-13.75C281.58,267.25,280.25,268.75,278.91,270.31z M351.38,267.86l-3.36-13.74c-2.61,6.05-6.24,12.45-10.46,18.81
			l0.05,0.04l-0.98,1.34c-2.38,3.51-4.92,6.99-7.56,10.39l-15.98,21.97c-2.32-0.29-4.74,0.55-6.37,2.46c-2.56,3-2.23,7.5,0.73,10.1
			c0.02,0.02,0.04,0.04,0.06,0.06c3.01,2.58,7.57,2.23,10.15-0.79c1.8-2.1,2.14-4.91,1.21-7.31l33.28-38.95L351.38,267.86z
			 M353.47,211.99H237.04v8.23h116.44V211.99z M237.04,249.23h46.51v-8.23h-46.51V249.23z M237.04,278.23h26.38v-8.23h-26.38V278.23
			z M237.04,307.23h8.7V299h-8.7V307.23z M353.47,299h-17.74v8.23h17.74V299z M353.47,328h-65.22v8.23h65.22V328z M237.04,365.23
			h116.44V357H237.04V365.23z"/>
	</defs>
	<clipPath id="SVGID_1_">
		<use xlink:href="#SVGID_158_"  style="overflow:visible;"/>
	</clipPath>
	<linearGradient id="SVGID_2_" gradientUnits="userSpaceOnUse" x1="58.2996" y1="280" x2="532.213" y2="280">
		<stop  offset="0.3438" style="stop-color:#2FAC66"/>
		<stop  offset="0.5653" style="stop-color:#1B9894"/>
		<stop  offset="0.7718" style="stop-color:#1584AD"/>
		<stop  offset="0.9218" style="stop-color:#1B76B6"/>
		<stop  offset="1" style="stop-color:#1D71B8"/>
	</linearGradient>
	<circle style="clip-path:url(#SVGID_1_);fill:url(#SVGID_2_);" cx="295.26" cy="280" r="236.96"/>
</g>
</svg>
