<?xml version="1.0" encoding="utf-8"?>
<!-- Generator: Adobe Illustrator 25.2.2, SVG Export Plug-In . SVG Version: 6.00 Build 0)  -->
<svg version="1.1" id="Calque_1" xmlns="http://www.w3.org/2000/svg" xmlns:xlink="http://www.w3.org/1999/xlink" x="0px" y="0px"
	 viewBox="0 0 625.88 560" style="enable-background:new 0 0 625.88 560;" xml:space="preserve">
<style type="text/css">
	.st0{fill:url(#SVGID_1_);}
	.st1{fill:url(#SVGID_2_);}
	.st2{fill:url(#SVGID_3_);}
	.st3{fill:url(#SVGID_4_);}
	.st4{fill:url(#SVGID_5_);}
	.st5{fill:url(#SVGID_6_);}
	.st6{fill:url(#SVGID_7_);}
	.st7{fill:url(#SVGID_8_);}
	.st8{fill:url(#SVGID_9_);}
	.st9{fill:url(#SVGID_10_);}
	.st10{fill:url(#SVGID_11_);}
	.st11{fill:url(#SVGID_12_);}
	.st12{fill:url(#SVGID_13_);}
	.st13{fill:#1D71B8;}
	.st14{fill:#2FAC66;}
	.st15{fill:url(#SVGID_14_);}
	.st16{fill:#C4C4C4;}
	.st17{fill:#FFFFFF;}
	.st18{fill:#D3D3D3;}
	.st19{fill:#B7B7B7;}
	.st20{fill:url(#SVGID_15_);}
	.st21{fill:url(#SVGID_16_);}
	.st22{fill:url(#SVGID_17_);}
	.st23{fill:url(#SVGID_18_);}
	.st24{fill:url(#SVGID_19_);}
	.st25{fill:url(#SVGID_20_);}
	.st26{fill:url(#SVGID_21_);}
	.st27{fill:url(#SVGID_22_);}
	.st28{fill:url(#SVGID_23_);}
	.st29{fill:url(#SVGID_24_);}
	.st30{fill:url(#SVGID_25_);}
	.st31{fill:url(#SVGID_26_);}
	.st32{fill:url(#SVGID_27_);}
	.st33{fill:url(#SVGID_28_);}
	.st34{fill:url(#SVGID_29_);}
	.st35{clip-path:url(#SVGID_31_);fill:url(#SVGID_32_);}
	.st36{clip-path:url(#SVGID_34_);fill:url(#SVGID_35_);}
	.st37{clip-path:url(#SVGID_37_);fill:url(#SVGID_38_);}
	.st38{clip-path:url(#SVGID_40_);fill:url(#SVGID_41_);}
	.st39{clip-path:url(#SVGID_43_);fill:url(#SVGID_44_);}
	.st40{clip-path:url(#SVGID_46_);fill:url(#SVGID_47_);}
	.st41{clip-path:url(#SVGID_49_);fill:url(#SVGID_50_);}
	.st42{clip-path:url(#SVGID_52_);fill:url(#SVGID_53_);}
	.st43{clip-path:url(#SVGID_55_);fill:url(#SVGID_56_);}
	.st44{clip-path:url(#SVGID_58_);fill:url(#SVGID_59_);}
	.st45{clip-path:url(#SVGID_61_);fill:url(#SVGID_62_);}
	.st46{clip-path:url(#SVGID_64_);fill:url(#SVGID_65_);}
	.st47{clip-path:url(#SVGID_67_);fill:url(#SVGID_68_);}
	.st48{clip-path:url(#SVGID_70_);fill:url(#SVGID_71_);}
	.st49{clip-path:url(#SVGID_73_);fill:url(#SVGID_74_);}
	.st50{clip-path:url(#SVGID_76_);fill:url(#SVGID_77_);}
	.st51{clip-path:url(#SVGID_79_);fill:url(#SVGID_80_);}
	.st52{clip-path:url(#SVGID_82_);fill:url(#SVGID_83_);}
	.st53{clip-path:url(#SVGID_85_);fill:url(#SVGID_86_);}
	.st54{clip-path:url(#SVGID_88_);fill:url(#SVGID_89_);}
	.st55{clip-path:url(#SVGID_91_);fill:url(#SVGID_92_);}
	.st56{clip-path:url(#SVGID_94_);fill:url(#SVGID_95_);}
	.st57{clip-path:url(#SVGID_97_);fill:url(#SVGID_98_);}
	.st58{clip-path:url(#SVGID_100_);fill:url(#SVGID_101_);}
	.st59{clip-path:url(#SVGID_103_);fill:url(#SVGID_104_);}
	.st60{clip-path:url(#SVGID_106_);fill:url(#SVGID_107_);}
	.st61{clip-path:url(#SVGID_109_);fill:url(#SVGID_110_);}
	.st62{clip-path:url(#SVGID_109_);fill:#FFFFFF;}
	.st63{clip-path:url(#SVGID_112_);fill:url(#SVGID_113_);}
	.st64{clip-path:url(#SVGID_115_);fill:url(#SVGID_116_);}
	.st65{clip-path:url(#SVGID_118_);fill:url(#SVGID_119_);}
	.st66{clip-path:url(#SVGID_121_);fill:url(#SVGID_122_);}
	.st67{clip-path:url(#SVGID_124_);fill:url(#SVGID_125_);}
	.st68{clip-path:url(#SVGID_127_);fill:url(#SVGID_128_);}
	.st69{clip-path:url(#SVGID_130_);fill:url(#SVGID_131_);}
	.st70{clip-path:url(#SVGID_133_);fill:url(#SVGID_134_);}
	.st71{clip-path:url(#SVGID_136_);fill:url(#SVGID_137_);}
	.st72{clip-path:url(#SVGID_139_);fill:url(#SVGID_140_);}
	.st73{clip-path:url(#SVGID_142_);fill:url(#SVGID_143_);}
	.st74{clip-path:url(#SVGID_142_);fill:#FFFFFF;}
	.st75{clip-path:url(#SVGID_145_);fill:url(#SVGID_146_);}
	.st76{clip-path:url(#SVGID_148_);fill:url(#SVGID_149_);}
	.st77{fill:url(#SVGID_150_);}
	.st78{fill:url(#SVGID_151_);}
	.st79{clip-path:url(#SVGID_153_);fill:url(#SVGID_154_);}
	.st80{fill:url(#SVGID_155_);}
	.st81{fill:url(#SVGID_156_);}
	.st82{fill:url(#SVGID_157_);}
	.st83{clip-path:url(#SVGID_159_);fill:url(#SVGID_160_);}
	.st84{fill:url(#SVGID_161_);}
	.st85{clip-path:url(#SVGID_163_);fill:url(#SVGID_164_);}
	.st86{clip-path:url(#SVGID_166_);fill:url(#SVGID_167_);}
	.st87{clip-path:url(#SVGID_169_);fill:url(#SVGID_170_);}
	.st88{clip-path:url(#SVGID_172_);fill:url(#SVGID_173_);}
	.st89{clip-path:url(#SVGID_175_);fill:url(#SVGID_176_);}
	.st90{clip-path:url(#SVGID_178_);fill:url(#SVGID_179_);}
	.st91{clip-path:url(#SVGID_181_);fill:url(#SVGID_182_);}
	.st92{fill:url(#SVGID_183_);}
	.st93{fill:url(#SVGID_184_);}
	.st94{fill:url(#SVGID_185_);}
	.st95{clip-path:url(#SVGID_187_);fill:url(#SVGID_188_);}
	.st96{fill:url(#SVGID_189_);}
	.st97{clip-path:url(#SVGID_191_);fill:url(#SVGID_192_);}
	.st98{clip-path:url(#SVGID_194_);fill:url(#SVGID_195_);}
	.st99{clip-path:url(#SVGID_197_);fill:url(#SVGID_198_);}
	.st100{clip-path:url(#SVGID_200_);fill:url(#SVGID_201_);}
	.st101{clip-path:url(#SVGID_203_);fill:url(#SVGID_204_);}
	.st102{fill:#199194;}
	.st103{clip-path:url(#SVGID_206_);fill:url(#SVGID_207_);}
	.st104{clip-path:url(#SVGID_206_);fill:#C4C4C4;}
	.st105{fill:url(#SVGID_208_);}
	.st106{fill:#C4C4C4;stroke:#FFFFFF;stroke-width:2;stroke-miterlimit:10;}
	.st107{fill:url(#SVGID_209_);}
	.st108{fill:url(#SVGID_210_);}
	.st109{fill:url(#SVGID_211_);}
	.st110{fill:url(#SVGID_212_);}
	.st111{clip-path:url(#SVGID_214_);fill:url(#SVGID_215_);}
	.st112{clip-path:url(#SVGID_217_);fill:url(#SVGID_218_);}
	.st113{clip-path:url(#SVGID_220_);fill:url(#SVGID_221_);}
	.st114{clip-path:url(#SVGID_220_);fill:#C4C4C4;}
	.st115{clip-path:url(#SVGID_223_);fill:url(#SVGID_224_);}
	.st116{clip-path:url(#SVGID_223_);fill:#C4C4C4;}
</style>
<g>
	<defs>
		<path id="SVGID_174_" d="M251.48,315.12l20.4-11.85c0,6.99,2.54,17.34,13.33,25.8c-3.81,11.77-11.74,21.71-28.24,16.19
			C259.5,335.69,251.48,315.12,251.48,315.12z M349.79,303.27c0,6.99-2.54,17.34-13.33,25.8c3.81,11.77,11.74,21.71,28.24,16.19
			c-2.54-9.57,5.48-30.14,5.48-30.14L349.79,303.27z M411.32,332.07l-32.91-11.99c-3.02,8.26-5.54,19.13-4.58,22.76l2.28,8.57
			l-8.41,2.82c-4.08,1.36-8.02,2.06-11.72,2.06c-5.65,0-14.65-1.73-21.75-10.95c-5.68,8.36-6.93,18.1-6.71,25.86
			c0.19,1.65,0.31,3.33,0.36,5c0.32,2.79,0.74,4.53,0.74,4.54l2.84,11.68l-12.01,0.04h-29.22l2.94-11.75c0,0,0.41-1.73,0.74-4.52
			c0.04-1.67,0.16-3.35,0.36-5c0.23-7.78-1.04-17.56-6.76-25.93c-7.11,9.3-16.14,11.03-21.81,11.03c-3.7,0-7.65-0.69-11.72-2.06
			l-8.41-2.82l2.28-8.57c0.97-3.67-1.58-14.6-4.61-22.86l-33.18,12.09c-15.69,6.56-23.85,40.6-26.31,77.4h30.99h7.49h176.96h7.49
			h30.99C435.17,372.67,427.02,338.63,411.32,332.07z M310.46,176.23c0.13,0,0.64,0,0.76,0c28.34,1.09,41.7,12.51,51.9,24.7
			c0.6,0.71,1.05,1.52,1.42,2.35c0.13-25.54-8.72-41.53-17.31-51.2c-10.09-11.35-28.62-12.16-36.39-12.16
			c-7.77,0-26.31,0.81-36.39,12.16c-8.59,9.66-17.44,25.8-17.44,51.16c0.39-0.96,0.9-1.87,1.58-2.67
			C268.78,188.58,282.11,177.32,310.46,176.23z M349.17,276.86c0.97-2.53,1.78-5.09,2.5-7.67c0.4-1.41,0.45-3.6,1.12-4.86
			c0.6-1.13,1.2-0.69,2.35-1.03c1.61-0.48,2.78-1.8,3.51-3.24c1.78-3.49,3.11-21.45,3.6-26.65c-3.53,9.88-3.26,25.79-9.87,25.07
			c-1.24-0.13-3.16-0.06-3.64,1.51l-0.09,0.3c-1.47,4.86-3.09,9.65-5.23,14.13c-2.16,4.46-4.64,8.71-7.75,12.3
			c-7.51,8.72-20.37,13.26-31.66,10.59c-3.04-0.72-6.41-1.97-9.07-3.65c-7.31-4.63-12.17-11.54-15.88-19.23
			c-2.14-4.48-3.76-9.27-5.23-14.13c0,0-0.09-0.31-0.11-0.35c-0.4-1.2-1.69-1.85-2.88-1.45c-3.63,1.2-4.09-1.68-4.85-4.54
			c-0.9-3.4-5.62-18.97-5.77-20.64c0.4,4.56,1.82,21.82,3.05,25.63c0.95,2.93,3.18,4.62,6.25,4.63c0.38,1.88,0.79,3.76,1.32,5.62
			c0.73,2.57,1.53,5.14,2.51,7.66c1.91,5.06,4.51,9.97,7.99,14.39c6.64,8.46,16.4,13.24,27.01,14.33c6.67,0.69,13.67-1,19.75-3.65
			C338.41,297.45,345.34,287.06,349.17,276.86z M275.12,218.82c10.63-8.65,14.99-17.29,35.71-17.29c20.72,0,25.09,8.65,35.71,17.29
			c9.87,8.03,8.64-2.23,8.98-11.53c-9.37-11.18-20.25-20.22-44.69-21.16c-24.3,0.94-35.32,9.8-44.7,20.86
			C266.52,216.36,265.15,226.93,275.12,218.82z M328.03,334.84c-6.42,4.71-12.58,10.49-17.14,17.53
			c-4.58-7.08-10.77-12.87-17.23-17.59c-0.25,0.66-0.5,1.31-0.77,1.93c9.57,11.54,11.14,25.62,10.8,35.2
			c-0.2,1.6-0.32,3.23-0.35,4.91c-0.42,3.82-1.01,6.18-1.01,6.18h17.11c0,0-0.59-2.36-1.01-6.18c-0.03-1.68-0.15-3.32-0.35-4.91
			c-0.34-9.56,1.22-23.59,10.73-35.11C328.54,336.16,328.28,335.51,328.03,334.84z"/>
	</defs>
	<clipPath id="SVGID_1_">
		<use xlink:href="#SVGID_174_"  style="overflow:visible;"/>
	</clipPath>
	<linearGradient id="SVGID_2_" gradientUnits="userSpaceOnUse" x1="73.7231" y1="283" x2="547.6365" y2="283">
		<stop  offset="0.3438" style="stop-color:#2FAC66"/>
		<stop  offset="0.5653" style="stop-color:#1B9894"/>
		<stop  offset="0.7718" style="stop-color:#1584AD"/>
		<stop  offset="0.9218" style="stop-color:#1B76B6"/>
		<stop  offset="1" style="stop-color:#1D71B8"/>
	</linearGradient>
	<circle style="clip-path:url(#SVGID_1_);fill:url(#SVGID_2_);" cx="310.68" cy="283" r="236.96"/>
</g>
</svg>
