<?xml version="1.0" encoding="utf-8"?>
<!-- Generator: Adobe Illustrator 25.2.2, SVG Export Plug-In . SVG Version: 6.00 Build 0)  -->
<svg version="1.1" id="Calque_1" xmlns="http://www.w3.org/2000/svg" xmlns:xlink="http://www.w3.org/1999/xlink" x="0px" y="0px"
	 viewBox="0 0 625.88 560" style="enable-background:new 0 0 625.88 560;" xml:space="preserve">
<style type="text/css">
	.st0{fill:url(#SVGID_1_);}
	.st1{fill:url(#SVGID_2_);}
	.st2{fill:url(#SVGID_3_);}
	.st3{fill:url(#SVGID_4_);}
	.st4{fill:url(#SVGID_5_);}
	.st5{fill:url(#SVGID_6_);}
	.st6{fill:url(#SVGID_7_);}
	.st7{fill:url(#SVGID_8_);}
	.st8{fill:url(#SVGID_9_);}
	.st9{fill:url(#SVGID_10_);}
	.st10{fill:url(#SVGID_11_);}
	.st11{fill:url(#SVGID_12_);}
	.st12{fill:url(#SVGID_13_);}
	.st13{fill:#1D71B8;}
	.st14{fill:#2FAC66;}
	.st15{fill:url(#SVGID_14_);}
	.st16{fill:#C4C4C4;}
	.st17{fill:#FFFFFF;}
	.st18{fill:#D3D3D3;}
	.st19{fill:#B7B7B7;}
	.st20{fill:url(#SVGID_15_);}
	.st21{fill:url(#SVGID_16_);}
	.st22{fill:url(#SVGID_17_);}
	.st23{fill:url(#SVGID_18_);}
	.st24{fill:url(#SVGID_19_);}
	.st25{fill:url(#SVGID_20_);}
	.st26{fill:url(#SVGID_21_);}
	.st27{fill:url(#SVGID_22_);}
	.st28{fill:url(#SVGID_23_);}
	.st29{fill:url(#SVGID_24_);}
	.st30{fill:url(#SVGID_25_);}
	.st31{fill:url(#SVGID_26_);}
	.st32{fill:url(#SVGID_27_);}
	.st33{fill:url(#SVGID_28_);}
	.st34{fill:url(#SVGID_29_);}
	.st35{clip-path:url(#SVGID_31_);fill:url(#SVGID_32_);}
	.st36{clip-path:url(#SVGID_34_);fill:url(#SVGID_35_);}
	.st37{clip-path:url(#SVGID_37_);fill:url(#SVGID_38_);}
	.st38{clip-path:url(#SVGID_40_);fill:url(#SVGID_41_);}
	.st39{clip-path:url(#SVGID_43_);fill:url(#SVGID_44_);}
	.st40{clip-path:url(#SVGID_46_);fill:url(#SVGID_47_);}
	.st41{clip-path:url(#SVGID_49_);fill:url(#SVGID_50_);}
	.st42{clip-path:url(#SVGID_52_);fill:url(#SVGID_53_);}
	.st43{clip-path:url(#SVGID_55_);fill:url(#SVGID_56_);}
	.st44{clip-path:url(#SVGID_58_);fill:url(#SVGID_59_);}
	.st45{clip-path:url(#SVGID_61_);fill:url(#SVGID_62_);}
	.st46{clip-path:url(#SVGID_64_);fill:url(#SVGID_65_);}
	.st47{clip-path:url(#SVGID_67_);fill:url(#SVGID_68_);}
	.st48{clip-path:url(#SVGID_70_);fill:url(#SVGID_71_);}
	.st49{clip-path:url(#SVGID_73_);fill:url(#SVGID_74_);}
	.st50{clip-path:url(#SVGID_76_);fill:url(#SVGID_77_);}
	.st51{clip-path:url(#SVGID_79_);fill:url(#SVGID_80_);}
	.st52{clip-path:url(#SVGID_82_);fill:url(#SVGID_83_);}
	.st53{clip-path:url(#SVGID_85_);fill:url(#SVGID_86_);}
	.st54{clip-path:url(#SVGID_88_);fill:url(#SVGID_89_);}
	.st55{clip-path:url(#SVGID_91_);fill:url(#SVGID_92_);}
	.st56{clip-path:url(#SVGID_94_);fill:url(#SVGID_95_);}
	.st57{clip-path:url(#SVGID_97_);fill:url(#SVGID_98_);}
	.st58{clip-path:url(#SVGID_100_);fill:url(#SVGID_101_);}
	.st59{clip-path:url(#SVGID_103_);fill:url(#SVGID_104_);}
	.st60{clip-path:url(#SVGID_106_);fill:url(#SVGID_107_);}
	.st61{clip-path:url(#SVGID_109_);fill:url(#SVGID_110_);}
	.st62{clip-path:url(#SVGID_109_);fill:#FFFFFF;}
	.st63{clip-path:url(#SVGID_112_);fill:url(#SVGID_113_);}
	.st64{clip-path:url(#SVGID_115_);fill:url(#SVGID_116_);}
	.st65{clip-path:url(#SVGID_118_);fill:url(#SVGID_119_);}
	.st66{clip-path:url(#SVGID_121_);fill:url(#SVGID_122_);}
	.st67{clip-path:url(#SVGID_124_);fill:url(#SVGID_125_);}
	.st68{clip-path:url(#SVGID_127_);fill:url(#SVGID_128_);}
	.st69{clip-path:url(#SVGID_130_);fill:url(#SVGID_131_);}
	.st70{clip-path:url(#SVGID_133_);fill:url(#SVGID_134_);}
	.st71{clip-path:url(#SVGID_136_);fill:url(#SVGID_137_);}
	.st72{clip-path:url(#SVGID_139_);fill:url(#SVGID_140_);}
	.st73{clip-path:url(#SVGID_142_);fill:url(#SVGID_143_);}
	.st74{clip-path:url(#SVGID_142_);fill:#FFFFFF;}
	.st75{clip-path:url(#SVGID_145_);fill:url(#SVGID_146_);}
	.st76{clip-path:url(#SVGID_148_);fill:url(#SVGID_149_);}
	.st77{fill:url(#SVGID_150_);}
	.st78{fill:url(#SVGID_151_);}
	.st79{clip-path:url(#SVGID_153_);fill:url(#SVGID_154_);}
	.st80{fill:url(#SVGID_155_);}
	.st81{fill:url(#SVGID_156_);}
	.st82{fill:url(#SVGID_157_);}
	.st83{clip-path:url(#SVGID_159_);fill:url(#SVGID_160_);}
	.st84{fill:url(#SVGID_161_);}
	.st85{clip-path:url(#SVGID_163_);fill:url(#SVGID_164_);}
	.st86{clip-path:url(#SVGID_166_);fill:url(#SVGID_167_);}
	.st87{clip-path:url(#SVGID_169_);fill:url(#SVGID_170_);}
	.st88{clip-path:url(#SVGID_172_);fill:url(#SVGID_173_);}
	.st89{clip-path:url(#SVGID_175_);fill:url(#SVGID_176_);}
	.st90{clip-path:url(#SVGID_178_);fill:url(#SVGID_179_);}
	.st91{clip-path:url(#SVGID_181_);fill:url(#SVGID_182_);}
	.st92{fill:url(#SVGID_183_);}
	.st93{fill:url(#SVGID_184_);}
	.st94{fill:url(#SVGID_185_);}
	.st95{clip-path:url(#SVGID_187_);fill:url(#SVGID_188_);}
	.st96{fill:url(#SVGID_189_);}
	.st97{clip-path:url(#SVGID_191_);fill:url(#SVGID_192_);}
	.st98{clip-path:url(#SVGID_194_);fill:url(#SVGID_195_);}
	.st99{clip-path:url(#SVGID_197_);fill:url(#SVGID_198_);}
	.st100{clip-path:url(#SVGID_200_);fill:url(#SVGID_201_);}
	.st101{clip-path:url(#SVGID_203_);fill:url(#SVGID_204_);}
	.st102{fill:#199194;}
	.st103{clip-path:url(#SVGID_206_);fill:url(#SVGID_207_);}
	.st104{clip-path:url(#SVGID_206_);fill:#C4C4C4;}
	.st105{fill:url(#SVGID_208_);}
	.st106{fill:#C4C4C4;stroke:#FFFFFF;stroke-width:2;stroke-miterlimit:10;}
	.st107{fill:url(#SVGID_209_);}
	.st108{fill:url(#SVGID_210_);}
	.st109{fill:url(#SVGID_211_);}
	.st110{fill:url(#SVGID_212_);}
	.st111{clip-path:url(#SVGID_214_);fill:url(#SVGID_215_);}
	.st112{clip-path:url(#SVGID_217_);fill:url(#SVGID_218_);}
	.st113{clip-path:url(#SVGID_220_);fill:url(#SVGID_221_);}
	.st114{clip-path:url(#SVGID_220_);fill:#C4C4C4;}
	.st115{clip-path:url(#SVGID_223_);fill:url(#SVGID_224_);}
	.st116{clip-path:url(#SVGID_223_);fill:#C4C4C4;}
</style>
<g>
	<g>
		<defs>
			<path id="SVGID_132_" d="M308.68,282.56l33.88-14.73l13.08,53.38l-45.62,15.67l-60.04-27.29l18.76-42.2L308.68,282.56z
				 M257.06,263.88l-8.06-2.09l-67.67,37.78l-4.28,29.86l60.63-19.89L257.06,263.88z M358.57,332.56l4.97,18.73l-53.69,20.81v0.05
				l-67.6-25.98l0.01-0.19l-7.71,2.82l11.62-28.44l63.51,28.85L358.57,332.56z M175.25,342.01l57.02-18.59l-12,30.6l-49.32,18.01
				L175.25,342.01z M308.51,264.96c2.29-2.28,16.11-16.48,25.58-35.2l5.82,26.65l-30.18,14.15l-4.95-1.89L308.51,264.96z
				 M248.47,249.37l-65.2,36.61l9.72-67.9l57.65-21.48c0.06,16.12,7.66,32.14,15.74,44.64l-4.66,11.57L248.47,249.37z M373.4,306.77
				l-6.3,10.65l-13.54-54.81l15.22-7.36c-1.28,4.24-1.99,8.73-1.99,13.38c0,13.25,5.13,26.41,11.44,37.65L373.4,306.77z
				 M350.88,251.16l-9.31-41.63c0.49-2.18,0.88-4.38,1.14-6.59l23.71-10.98l0.01,0.06l38.27,16.49l-5.89,16.15
				c-10.16,3.3-18.77,10.02-24.5,18.8l-4.22-1.58L350.88,251.16z M413.03,222.39c-0.06,0-0.11,0.01-0.17,0.01l3.25-8.97l10.59,4.56
				l0.98,6.82C423.07,223.26,418.16,222.39,413.03,222.39z M448.75,371.94l-73.63-25.14l-4.82-17.03l6.44-10.7l8.96-0.92
				c7.19,10.25,14.04,17.37,15.6,18.94l11.64,11.77l11.74-11.67c1.6-1.59,8.84-9.01,16.28-19.7L448.75,371.94z"/>
		</defs>
		<clipPath id="SVGID_1_">
			<use xlink:href="#SVGID_132_"  style="overflow:visible;"/>
		</clipPath>
		<linearGradient id="SVGID_2_" gradientUnits="userSpaceOnUse" x1="72.8922" y1="283.5677" x2="546.8055" y2="283.5677">
			<stop  offset="0.3438" style="stop-color:#2FAC66"/>
			<stop  offset="0.5653" style="stop-color:#1B9894"/>
			<stop  offset="0.7718" style="stop-color:#1584AD"/>
			<stop  offset="0.9218" style="stop-color:#1B76B6"/>
			<stop  offset="1" style="stop-color:#1D71B8"/>
		</linearGradient>
		<circle style="clip-path:url(#SVGID_1_);fill:url(#SVGID_2_);" cx="309.85" cy="283.57" r="236.96"/>
	</g>
	<g>
		<defs>
			<path id="SVGID_135_" d="M383.13,269.3c0,26.77,29.73,56.86,29.73,56.86s29.73-29.56,29.73-56.86
				c0-16.42-13.31-29.73-29.73-29.73C396.44,239.57,383.13,252.88,383.13,269.3z M434.62,269.3c0,12.01-9.74,21.75-21.75,21.75
				c-12.01,0-21.75-9.74-21.75-21.75c0-12.01,9.74-21.75,21.75-21.75C424.88,247.55,434.62,257.29,434.62,269.3z"/>
		</defs>
		<clipPath id="SVGID_3_">
			<use xlink:href="#SVGID_135_"  style="overflow:visible;"/>
		</clipPath>
		<linearGradient id="SVGID_4_" gradientUnits="userSpaceOnUse" x1="72.7217" y1="284.2458" x2="546.6351" y2="284.2458">
			<stop  offset="0.3438" style="stop-color:#2FAC66"/>
			<stop  offset="0.5653" style="stop-color:#1B9894"/>
			<stop  offset="0.7718" style="stop-color:#1584AD"/>
			<stop  offset="0.9218" style="stop-color:#1B76B6"/>
			<stop  offset="1" style="stop-color:#1D71B8"/>
		</linearGradient>
		<circle style="clip-path:url(#SVGID_3_);fill:url(#SVGID_4_);" cx="309.68" cy="284.25" r="236.96"/>
	</g>
	<g>
		<defs>
			<path id="SVGID_138_" d="M325.85,199.86c0-16.42-13.31-29.73-29.73-29.73c-16.42,0-29.73,13.31-29.73,29.73
				c0,26.77,29.73,56.86,29.73,56.86S325.85,227.16,325.85,199.86z M274.36,199.86c0-12.01,9.74-21.75,21.75-21.75
				c12.02,0,21.75,9.74,21.75,21.75c0,12.01-9.74,21.75-21.75,21.75C284.1,221.62,274.36,211.88,274.36,199.86z"/>
		</defs>
		<clipPath id="SVGID_5_">
			<use xlink:href="#SVGID_138_"  style="overflow:visible;"/>
		</clipPath>
		<linearGradient id="SVGID_6_" gradientUnits="userSpaceOnUse" x1="72.1397" y1="287.0324" x2="546.053" y2="287.0324">
			<stop  offset="0.3438" style="stop-color:#2FAC66"/>
			<stop  offset="0.5653" style="stop-color:#1B9894"/>
			<stop  offset="0.7718" style="stop-color:#1584AD"/>
			<stop  offset="0.9218" style="stop-color:#1B76B6"/>
			<stop  offset="1" style="stop-color:#1D71B8"/>
		</linearGradient>
		<circle style="clip-path:url(#SVGID_5_);fill:url(#SVGID_6_);" cx="309.1" cy="287.03" r="236.96"/>
	</g>
</g>
</svg>
