<?xml version="1.0" encoding="utf-8"?>
<!-- Generator: Adobe Illustrator 25.2.2, SVG Export Plug-In . SVG Version: 6.00 Build 0)  -->
<svg version="1.1" id="Calque_1" xmlns="http://www.w3.org/2000/svg" xmlns:xlink="http://www.w3.org/1999/xlink" x="0px" y="0px"
	 viewBox="0 0 625.88 560" style="enable-background:new 0 0 625.88 560;" xml:space="preserve">
<style type="text/css">
	.st0{fill:url(#SVGID_1_);}
	.st1{fill:url(#SVGID_2_);}
	.st2{fill:url(#SVGID_3_);}
	.st3{fill:url(#SVGID_4_);}
	.st4{fill:url(#SVGID_5_);}
	.st5{fill:url(#SVGID_6_);}
	.st6{fill:url(#SVGID_7_);}
	.st7{fill:url(#SVGID_8_);}
	.st8{fill:url(#SVGID_9_);}
	.st9{fill:url(#SVGID_10_);}
	.st10{fill:url(#SVGID_11_);}
	.st11{fill:url(#SVGID_12_);}
	.st12{fill:url(#SVGID_13_);}
	.st13{fill:#1D71B8;}
	.st14{fill:#2FAC66;}
	.st15{fill:url(#SVGID_14_);}
	.st16{fill:#C4C4C4;}
	.st17{fill:#FFFFFF;}
	.st18{fill:#D3D3D3;}
	.st19{fill:#B7B7B7;}
	.st20{fill:url(#SVGID_15_);}
	.st21{fill:url(#SVGID_16_);}
	.st22{fill:url(#SVGID_17_);}
	.st23{fill:url(#SVGID_18_);}
	.st24{fill:url(#SVGID_19_);}
	.st25{fill:url(#SVGID_20_);}
	.st26{fill:url(#SVGID_21_);}
	.st27{fill:url(#SVGID_22_);}
	.st28{fill:url(#SVGID_23_);}
	.st29{fill:url(#SVGID_24_);}
	.st30{fill:url(#SVGID_25_);}
	.st31{fill:url(#SVGID_26_);}
	.st32{fill:url(#SVGID_27_);}
	.st33{fill:url(#SVGID_28_);}
	.st34{fill:url(#SVGID_29_);}
	.st35{clip-path:url(#SVGID_31_);fill:url(#SVGID_32_);}
	.st36{clip-path:url(#SVGID_34_);fill:url(#SVGID_35_);}
	.st37{clip-path:url(#SVGID_37_);fill:url(#SVGID_38_);}
	.st38{clip-path:url(#SVGID_40_);fill:url(#SVGID_41_);}
	.st39{clip-path:url(#SVGID_43_);fill:url(#SVGID_44_);}
	.st40{clip-path:url(#SVGID_46_);fill:url(#SVGID_47_);}
	.st41{clip-path:url(#SVGID_49_);fill:url(#SVGID_50_);}
	.st42{clip-path:url(#SVGID_52_);fill:url(#SVGID_53_);}
	.st43{clip-path:url(#SVGID_55_);fill:url(#SVGID_56_);}
	.st44{clip-path:url(#SVGID_58_);fill:url(#SVGID_59_);}
	.st45{clip-path:url(#SVGID_61_);fill:url(#SVGID_62_);}
	.st46{clip-path:url(#SVGID_64_);fill:url(#SVGID_65_);}
	.st47{clip-path:url(#SVGID_67_);fill:url(#SVGID_68_);}
	.st48{clip-path:url(#SVGID_70_);fill:url(#SVGID_71_);}
	.st49{clip-path:url(#SVGID_73_);fill:url(#SVGID_74_);}
	.st50{clip-path:url(#SVGID_76_);fill:url(#SVGID_77_);}
	.st51{clip-path:url(#SVGID_79_);fill:url(#SVGID_80_);}
	.st52{clip-path:url(#SVGID_82_);fill:url(#SVGID_83_);}
	.st53{clip-path:url(#SVGID_85_);fill:url(#SVGID_86_);}
	.st54{clip-path:url(#SVGID_88_);fill:url(#SVGID_89_);}
	.st55{clip-path:url(#SVGID_91_);fill:url(#SVGID_92_);}
	.st56{clip-path:url(#SVGID_94_);fill:url(#SVGID_95_);}
	.st57{clip-path:url(#SVGID_97_);fill:url(#SVGID_98_);}
	.st58{clip-path:url(#SVGID_100_);fill:url(#SVGID_101_);}
	.st59{clip-path:url(#SVGID_103_);fill:url(#SVGID_104_);}
	.st60{clip-path:url(#SVGID_106_);fill:url(#SVGID_107_);}
	.st61{clip-path:url(#SVGID_109_);fill:url(#SVGID_110_);}
	.st62{clip-path:url(#SVGID_109_);fill:#FFFFFF;}
	.st63{clip-path:url(#SVGID_112_);fill:url(#SVGID_113_);}
	.st64{clip-path:url(#SVGID_115_);fill:url(#SVGID_116_);}
	.st65{clip-path:url(#SVGID_118_);fill:url(#SVGID_119_);}
	.st66{clip-path:url(#SVGID_121_);fill:url(#SVGID_122_);}
	.st67{clip-path:url(#SVGID_124_);fill:url(#SVGID_125_);}
	.st68{clip-path:url(#SVGID_127_);fill:url(#SVGID_128_);}
	.st69{clip-path:url(#SVGID_130_);fill:url(#SVGID_131_);}
	.st70{clip-path:url(#SVGID_133_);fill:url(#SVGID_134_);}
	.st71{clip-path:url(#SVGID_136_);fill:url(#SVGID_137_);}
	.st72{clip-path:url(#SVGID_139_);fill:url(#SVGID_140_);}
	.st73{clip-path:url(#SVGID_142_);fill:url(#SVGID_143_);}
	.st74{clip-path:url(#SVGID_142_);fill:#FFFFFF;}
	.st75{clip-path:url(#SVGID_145_);fill:url(#SVGID_146_);}
	.st76{clip-path:url(#SVGID_148_);fill:url(#SVGID_149_);}
	.st77{fill:url(#SVGID_150_);}
	.st78{fill:url(#SVGID_151_);}
	.st79{clip-path:url(#SVGID_153_);fill:url(#SVGID_154_);}
	.st80{fill:url(#SVGID_155_);}
	.st81{fill:url(#SVGID_156_);}
	.st82{fill:url(#SVGID_157_);}
	.st83{clip-path:url(#SVGID_159_);fill:url(#SVGID_160_);}
	.st84{fill:url(#SVGID_161_);}
	.st85{clip-path:url(#SVGID_163_);fill:url(#SVGID_164_);}
	.st86{clip-path:url(#SVGID_166_);fill:url(#SVGID_167_);}
	.st87{clip-path:url(#SVGID_169_);fill:url(#SVGID_170_);}
	.st88{clip-path:url(#SVGID_172_);fill:url(#SVGID_173_);}
	.st89{clip-path:url(#SVGID_175_);fill:url(#SVGID_176_);}
	.st90{clip-path:url(#SVGID_178_);fill:url(#SVGID_179_);}
	.st91{clip-path:url(#SVGID_181_);fill:url(#SVGID_182_);}
	.st92{fill:url(#SVGID_183_);}
	.st93{fill:url(#SVGID_184_);}
	.st94{fill:url(#SVGID_185_);}
	.st95{clip-path:url(#SVGID_187_);fill:url(#SVGID_188_);}
	.st96{fill:url(#SVGID_189_);}
	.st97{clip-path:url(#SVGID_191_);fill:url(#SVGID_192_);}
	.st98{clip-path:url(#SVGID_194_);fill:url(#SVGID_195_);}
	.st99{clip-path:url(#SVGID_197_);fill:url(#SVGID_198_);}
	.st100{clip-path:url(#SVGID_200_);fill:url(#SVGID_201_);}
	.st101{clip-path:url(#SVGID_203_);fill:url(#SVGID_204_);}
	.st102{fill:#199194;}
	.st103{clip-path:url(#SVGID_206_);fill:url(#SVGID_207_);}
	.st104{clip-path:url(#SVGID_206_);fill:#C4C4C4;}
	.st105{fill:url(#SVGID_208_);}
	.st106{fill:#C4C4C4;stroke:#FFFFFF;stroke-width:2;stroke-miterlimit:10;}
	.st107{fill:url(#SVGID_209_);}
	.st108{fill:url(#SVGID_210_);}
	.st109{fill:url(#SVGID_211_);}
	.st110{fill:url(#SVGID_212_);}
	.st111{clip-path:url(#SVGID_214_);fill:url(#SVGID_215_);}
	.st112{clip-path:url(#SVGID_217_);fill:url(#SVGID_218_);}
	.st113{clip-path:url(#SVGID_220_);fill:url(#SVGID_221_);}
	.st114{clip-path:url(#SVGID_220_);fill:#C4C4C4;}
	.st115{clip-path:url(#SVGID_223_);fill:url(#SVGID_224_);}
	.st116{clip-path:url(#SVGID_223_);fill:#C4C4C4;}
</style>
<g>
	<g>
		<defs>
			<path id="SVGID_141_" d="M451.64,386.96l-20.63-44.06c-1.26-2.7-4.26-4.06-7.06-3.38l-2.15-4.62c2.31-1.71,3.19-4.88,1.93-7.58
				l-2.8-6c-1.26-2.7-4.26-4.06-7.06-3.38l-2.58-5.52c27.9-19.15,38.78-56.23,24-87.87c-16.46-35.22-58.49-50.49-93.71-34.03
				c-35.22,16.45-50.49,58.49-34.03,93.71c14.78,31.64,50.21,47.09,82.79,37.99l2.58,5.53c-2.32,1.71-3.2,4.88-1.94,7.58l2.8,6
				c1.26,2.7,4.26,4.06,7.06,3.38l2.15,4.62c-2.31,1.71-3.2,4.88-1.93,7.58l20.63,44.06c1.44,3.07,5.13,4.42,8.21,2.98l9.28-4.33
				l9.47-4.43C451.73,393.72,453.07,390.03,451.64,386.96z M396.01,307.01c-29.03,13.56-63.68,0.98-77.24-28.05
				c-13.56-29.03-0.97-63.67,28.05-77.23c29.03-13.56,63.67-0.98,77.23,28.05C437.62,258.8,425.03,293.45,396.01,307.01z"/>
		</defs>
		<clipPath id="SVGID_1_">
			<use xlink:href="#SVGID_141_"  style="overflow:visible;"/>
		</clipPath>
		<linearGradient id="SVGID_2_" gradientUnits="userSpaceOnUse" x1="62.2978" y1="287.5677" x2="536.2112" y2="287.5677">
			<stop  offset="0.3438" style="stop-color:#2FAC66"/>
			<stop  offset="0.5653" style="stop-color:#1B9894"/>
			<stop  offset="0.7718" style="stop-color:#1584AD"/>
			<stop  offset="0.9218" style="stop-color:#1B76B6"/>
			<stop  offset="1" style="stop-color:#1D71B8"/>
		</linearGradient>
		<circle style="clip-path:url(#SVGID_1_);fill:url(#SVGID_2_);" cx="299.25" cy="287.57" r="236.96"/>
		<path style="clip-path:url(#SVGID_1_);fill:#FFFFFF;" d="M381.45,339.76c-0.74-1.59-1.21-3.24-1.43-4.91
			c-2.84,0.3-5.7,0.46-8.57,0.46c-12.53,0-24.63-2.96-35.52-8.27c-0.39,0.72-0.75,1.46-1.06,2.27c-1.3,3.47-1.71,7.28-3.23,10.62
			c-1.53,3.38-4.57,5.42-7.64,7.3c-3.21,1.96-6.52,3.76-9.29,6.32c-2.7,2.47-5.03,5.17-8.02,7.27c-2.94,2.06-7.67,5.12-11.49,4.44
			c-3.52-0.63-2.63-5.05-2.38-7.63c0.38-4.03,0.24-7.67-0.85-11.6c-0.98-3.43-1.52-6.41-0.48-9.9c1.03-3.49,2.88-6.81,2.57-10.54
			c-0.27-3.62-2.38-6.82-3.23-10.32c-0.88-3.65-0.08-7.33-0.76-10.94c-0.58-3.2-4.66-3.04-6.12-4.12c-1.45-1.1-2.69-4.17-4.88-5.06
			c-2.17-0.9-4.49-0.04-6.54,0.77c-4.98,1.99-9.7,4.11-14.96,1.75c-4.15-1.86-8.21-5.21-11.13-8.67c-3.14-3.72-3.95-7.9-3.74-12.67
			c0.21-4.67,0.12-9.92,1.65-14.4c1.66-4.87,5.62-6.87,10.02-8.86c4.47-2.01,6.53-5.28,9.46-9.04c3.1-4,6.27-5.24,11.18-4.17
			c5.54,1.2,9.72,0.21,15.01-1.62c0.63-0.22,1.44-0.55,2.28-0.77c0.78-3.61,1.72-7.19,3-10.72c0.16-0.43,0.37-0.84,0.53-1.27
			c-5.61-2.15-13.13,1.27-17.21,5.19c-2.35,2.26-6.01,6.53-9.66,6.2c-4.49-0.42-3.74-7.28-1.68-9.74c1.6-1.87,4.05-2.51,6.4-2.74
			c1.69-0.14,4.27,0.33,5.76-0.6c2.52-1.57,0.19-6.09,2.37-8.33c2.89-2.91,8.86-2.22,12.55-3.59c3.63-1.36,6.23-3.07,10.08-2.89
			c0.37-0.55,0.72-1.1,1.1-1.64c-3.16,1.28-8.31-0.05-9.16-3.73c-1.95-8.53,0.62-3.01,7.81-6.98c3.74-2.06,6.95-4.04,11.34-4.19
			c1.2-0.04,2.43-0.01,3.67,0.08c3.86-3.25,8.02-6.15,12.49-8.66c-12.86-5.3-26.95-8.24-41.72-8.24
			c-60.55,0-109.62,49.08-109.62,109.62c0,60.54,49.08,109.62,109.62,109.62c39.28,0,73.71-20.67,93.06-51.71L381.45,339.76z
			 M184.92,294.42c2.24-0.75,4.32,0.34,5.49,2.7c0.59,1.22,0.93,2.77,2.41,3.2c1.37,0.4,2.86-0.07,3.97,1.06
			c2.1,2.15,2.2,5.79,2.53,8.55c0.14,1.35-0.1,3.7,1.52,4.27c2.11,0.76,1.7-2.6,2.48-3.11c0.78-0.53,2.13,0.85,2.94,2.24
			c0.9,1.49,2.14,0.77,3.58,0.68c1.25-0.09,2.72,0.51,3.75,1.26c1.2,0.86,1.5,2.4,2.59,3.38c1.16,1.05,2.42,1.57,2.78,3.23
			c0.34,1.57-0.18,3.03-0.53,4.51c-0.7,3.03,0.75,6.09,2,8.78c0.7,1.48,1.55,2.98,2.11,4.5c0.64,1.69,0.7,3.44,1.49,5.12
			c-0.06,0.02-0.16,0.05-0.23,0.06c-0.13,0.82,0.13,1.86,0.31,2.65c0.2,0.88-0.39,1.83-1.04,2.5c-0.68,0.74-1.04,1.33-0.59,2.37
			c0.31,0.76,0.97,1.29,1.71,1.62c1.06,2.14,2.28,4.21,3.49,6.26c1.34,2.25,2.42,4.69,3.9,6.85c1.53,2.24,3.66,3.9,5.69,5.67
			c1.58,1.39,2.87,3.09,4.47,4.48c1.92,1.68,4.51,2.8,6.33,4.64C213.38,366.87,188.37,333.73,184.92,294.42z"/>
	</g>
	<g>
		<defs>
			<path id="SVGID_144_" d="M378.99,340.47c-0.74-1.59-1.21-3.24-1.43-4.91c-2.84,0.3-5.7,0.46-8.57,0.46
				c-12.53,0-24.63-2.96-35.52-8.27c-0.39,0.72-0.75,1.46-1.06,2.27c-1.3,3.47-1.71,7.28-3.23,10.62c-1.53,3.38-4.57,5.42-7.64,7.3
				c-3.21,1.96-6.52,3.76-9.29,6.32c-2.7,2.47-5.03,5.17-8.02,7.27c-2.94,2.06-7.67,5.12-11.49,4.44c-3.52-0.63-2.63-5.05-2.38-7.63
				c0.38-4.03,0.24-7.67-0.85-11.6c-0.98-3.43-1.52-6.41-0.48-9.9c1.03-3.49,2.88-6.81,2.57-10.54c-0.27-3.62-2.38-6.82-3.23-10.32
				c-0.88-3.65-0.08-7.33-0.76-10.94c-0.58-3.2-4.66-3.04-6.12-4.12c-1.45-1.1-2.69-4.17-4.88-5.06c-2.17-0.9-4.49-0.04-6.54,0.77
				c-4.98,1.99-9.7,4.11-14.96,1.75c-4.15-1.86-8.21-5.21-11.13-8.67c-3.14-3.72-3.95-7.9-3.74-12.67c0.21-4.67,0.12-9.92,1.65-14.4
				c1.66-4.87,5.62-6.87,10.02-8.86c4.47-2.01,6.53-5.28,9.46-9.04c3.1-4,6.27-5.24,11.18-4.17c5.54,1.2,9.72,0.21,15.01-1.62
				c0.63-0.22,1.44-0.55,2.28-0.77c0.78-3.61,1.72-7.19,3-10.72c0.16-0.43,0.37-0.84,0.53-1.27c-5.61-2.15-13.13,1.27-17.21,5.19
				c-2.35,2.26-6.01,6.53-9.66,6.2c-4.49-0.42-3.74-7.28-1.68-9.74c1.6-1.87,4.05-2.51,6.4-2.74c1.69-0.14,4.27,0.33,5.76-0.6
				c2.52-1.57,0.19-6.09,2.37-8.33c2.89-2.91,8.86-2.22,12.55-3.59c3.63-1.36,6.23-3.07,10.08-2.89c0.37-0.55,0.72-1.1,1.1-1.64
				c-3.16,1.28-8.31-0.05-9.16-3.73c-1.95-8.53,0.62-3.01,7.81-6.98c3.74-2.06,6.95-4.04,11.34-4.19c1.2-0.04,2.43-0.01,3.67,0.08
				c3.86-3.25,8.02-6.15,12.49-8.66c-12.86-5.3-26.95-8.24-41.72-8.24c-60.55,0-109.62,49.08-109.62,109.62
				c0,60.54,49.08,109.62,109.62,109.62c39.28,0,73.71-20.67,93.06-51.71L378.99,340.47z M182.47,295.13
				c2.24-0.75,4.32,0.34,5.49,2.7c0.59,1.22,0.93,2.77,2.41,3.2c1.37,0.4,2.86-0.07,3.97,1.06c2.1,2.15,2.2,5.79,2.53,8.55
				c0.14,1.35-0.1,3.7,1.52,4.27c2.11,0.76,1.7-2.6,2.48-3.11c0.78-0.53,2.13,0.85,2.94,2.24c0.9,1.49,2.14,0.77,3.58,0.68
				c1.25-0.09,2.72,0.51,3.75,1.26c1.2,0.86,1.5,2.4,2.59,3.38c1.16,1.05,2.42,1.57,2.78,3.23c0.34,1.57-0.18,3.03-0.53,4.51
				c-0.7,3.03,0.75,6.09,2,8.78c0.7,1.48,1.55,2.98,2.11,4.5c0.64,1.69,0.7,3.44,1.49,5.12c-0.06,0.02-0.16,0.05-0.23,0.06
				c-0.13,0.82,0.13,1.86,0.31,2.65c0.2,0.88-0.39,1.83-1.04,2.5c-0.68,0.74-1.04,1.33-0.59,2.37c0.31,0.76,0.97,1.29,1.71,1.62
				c1.06,2.14,2.28,4.21,3.49,6.26c1.34,2.25,2.42,4.69,3.9,6.85c1.53,2.24,3.66,3.9,5.69,5.67c1.58,1.39,2.87,3.09,4.47,4.48
				c1.92,1.68,4.51,2.8,6.33,4.64C210.93,367.57,185.92,334.44,182.47,295.13z"/>
		</defs>
		<clipPath id="SVGID_3_">
			<use xlink:href="#SVGID_144_"  style="overflow:visible;"/>
		</clipPath>
		<linearGradient id="SVGID_4_" gradientUnits="userSpaceOnUse" x1="59.8438" y1="288.2773" x2="533.7572" y2="288.2773">
			<stop  offset="0.3438" style="stop-color:#2FAC66"/>
			<stop  offset="0.5653" style="stop-color:#1B9894"/>
			<stop  offset="0.7718" style="stop-color:#1584AD"/>
			<stop  offset="0.9218" style="stop-color:#1B76B6"/>
			<stop  offset="1" style="stop-color:#1D71B8"/>
		</linearGradient>
		<circle style="clip-path:url(#SVGID_3_);fill:url(#SVGID_4_);" cx="296.8" cy="288.28" r="236.96"/>
	</g>
</g>
</svg>
