<?xml version="1.0" encoding="utf-8"?>
<!-- Generator: Adobe Illustrator 25.2.2, SVG Export Plug-In . SVG Version: 6.00 Build 0)  -->
<svg version="1.1" id="Calque_1" xmlns="http://www.w3.org/2000/svg" xmlns:xlink="http://www.w3.org/1999/xlink" x="0px" y="0px"
	 viewBox="0 0 625.88 560" style="enable-background:new 0 0 625.88 560;" xml:space="preserve">
<style type="text/css">
	.st0{fill:url(#SVGID_1_);}
	.st1{fill:url(#SVGID_2_);}
	.st2{fill:url(#SVGID_3_);}
	.st3{fill:url(#SVGID_4_);}
	.st4{fill:url(#SVGID_5_);}
	.st5{fill:url(#SVGID_6_);}
	.st6{fill:url(#SVGID_7_);}
	.st7{fill:url(#SVGID_8_);}
	.st8{fill:url(#SVGID_9_);}
	.st9{fill:url(#SVGID_10_);}
	.st10{fill:url(#SVGID_11_);}
	.st11{fill:url(#SVGID_12_);}
	.st12{fill:url(#SVGID_13_);}
	.st13{fill:#1D71B8;}
	.st14{fill:#2FAC66;}
	.st15{fill:url(#SVGID_14_);}
	.st16{fill:#C4C4C4;}
	.st17{fill:#FFFFFF;}
	.st18{fill:#D3D3D3;}
	.st19{fill:#B7B7B7;}
	.st20{fill:url(#SVGID_15_);}
	.st21{fill:url(#SVGID_16_);}
	.st22{fill:url(#SVGID_17_);}
	.st23{fill:url(#SVGID_18_);}
	.st24{fill:url(#SVGID_19_);}
	.st25{fill:url(#SVGID_20_);}
	.st26{fill:url(#SVGID_21_);}
	.st27{fill:url(#SVGID_22_);}
	.st28{fill:url(#SVGID_23_);}
	.st29{fill:url(#SVGID_24_);}
	.st30{fill:url(#SVGID_25_);}
	.st31{fill:url(#SVGID_26_);}
	.st32{fill:url(#SVGID_27_);}
	.st33{fill:url(#SVGID_28_);}
	.st34{fill:url(#SVGID_29_);}
	.st35{clip-path:url(#SVGID_31_);fill:url(#SVGID_32_);}
	.st36{clip-path:url(#SVGID_34_);fill:url(#SVGID_35_);}
	.st37{clip-path:url(#SVGID_37_);fill:url(#SVGID_38_);}
	.st38{clip-path:url(#SVGID_40_);fill:url(#SVGID_41_);}
	.st39{clip-path:url(#SVGID_43_);fill:url(#SVGID_44_);}
	.st40{clip-path:url(#SVGID_46_);fill:url(#SVGID_47_);}
	.st41{clip-path:url(#SVGID_49_);fill:url(#SVGID_50_);}
	.st42{clip-path:url(#SVGID_52_);fill:url(#SVGID_53_);}
	.st43{clip-path:url(#SVGID_55_);fill:url(#SVGID_56_);}
	.st44{clip-path:url(#SVGID_58_);fill:url(#SVGID_59_);}
	.st45{clip-path:url(#SVGID_61_);fill:url(#SVGID_62_);}
	.st46{clip-path:url(#SVGID_64_);fill:url(#SVGID_65_);}
	.st47{clip-path:url(#SVGID_67_);fill:url(#SVGID_68_);}
	.st48{clip-path:url(#SVGID_70_);fill:url(#SVGID_71_);}
	.st49{clip-path:url(#SVGID_73_);fill:url(#SVGID_74_);}
	.st50{clip-path:url(#SVGID_76_);fill:url(#SVGID_77_);}
	.st51{clip-path:url(#SVGID_79_);fill:url(#SVGID_80_);}
	.st52{clip-path:url(#SVGID_82_);fill:url(#SVGID_83_);}
	.st53{clip-path:url(#SVGID_85_);fill:url(#SVGID_86_);}
	.st54{clip-path:url(#SVGID_88_);fill:url(#SVGID_89_);}
	.st55{clip-path:url(#SVGID_91_);fill:url(#SVGID_92_);}
	.st56{clip-path:url(#SVGID_94_);fill:url(#SVGID_95_);}
	.st57{clip-path:url(#SVGID_97_);fill:url(#SVGID_98_);}
	.st58{clip-path:url(#SVGID_100_);fill:url(#SVGID_101_);}
	.st59{clip-path:url(#SVGID_103_);fill:url(#SVGID_104_);}
	.st60{clip-path:url(#SVGID_106_);fill:url(#SVGID_107_);}
	.st61{clip-path:url(#SVGID_109_);fill:url(#SVGID_110_);}
	.st62{clip-path:url(#SVGID_109_);fill:#FFFFFF;}
	.st63{clip-path:url(#SVGID_112_);fill:url(#SVGID_113_);}
	.st64{clip-path:url(#SVGID_115_);fill:url(#SVGID_116_);}
	.st65{clip-path:url(#SVGID_118_);fill:url(#SVGID_119_);}
	.st66{clip-path:url(#SVGID_121_);fill:url(#SVGID_122_);}
	.st67{clip-path:url(#SVGID_124_);fill:url(#SVGID_125_);}
	.st68{clip-path:url(#SVGID_127_);fill:url(#SVGID_128_);}
	.st69{clip-path:url(#SVGID_130_);fill:url(#SVGID_131_);}
	.st70{clip-path:url(#SVGID_133_);fill:url(#SVGID_134_);}
	.st71{clip-path:url(#SVGID_136_);fill:url(#SVGID_137_);}
	.st72{clip-path:url(#SVGID_139_);fill:url(#SVGID_140_);}
	.st73{clip-path:url(#SVGID_142_);fill:url(#SVGID_143_);}
	.st74{clip-path:url(#SVGID_142_);fill:#FFFFFF;}
	.st75{clip-path:url(#SVGID_145_);fill:url(#SVGID_146_);}
	.st76{clip-path:url(#SVGID_148_);fill:url(#SVGID_149_);}
	.st77{fill:url(#SVGID_150_);}
	.st78{fill:url(#SVGID_151_);}
	.st79{clip-path:url(#SVGID_153_);fill:url(#SVGID_154_);}
	.st80{fill:url(#SVGID_155_);}
	.st81{fill:url(#SVGID_156_);}
	.st82{fill:url(#SVGID_157_);}
	.st83{clip-path:url(#SVGID_159_);fill:url(#SVGID_160_);}
	.st84{fill:url(#SVGID_161_);}
	.st85{clip-path:url(#SVGID_163_);fill:url(#SVGID_164_);}
	.st86{clip-path:url(#SVGID_166_);fill:url(#SVGID_167_);}
	.st87{clip-path:url(#SVGID_169_);fill:url(#SVGID_170_);}
	.st88{clip-path:url(#SVGID_172_);fill:url(#SVGID_173_);}
	.st89{clip-path:url(#SVGID_175_);fill:url(#SVGID_176_);}
	.st90{clip-path:url(#SVGID_178_);fill:url(#SVGID_179_);}
	.st91{clip-path:url(#SVGID_181_);fill:url(#SVGID_182_);}
	.st92{fill:url(#SVGID_183_);}
	.st93{fill:url(#SVGID_184_);}
	.st94{fill:url(#SVGID_185_);}
	.st95{clip-path:url(#SVGID_187_);fill:url(#SVGID_188_);}
	.st96{fill:url(#SVGID_189_);}
	.st97{clip-path:url(#SVGID_191_);fill:url(#SVGID_192_);}
	.st98{clip-path:url(#SVGID_194_);fill:url(#SVGID_195_);}
	.st99{clip-path:url(#SVGID_197_);fill:url(#SVGID_198_);}
	.st100{clip-path:url(#SVGID_200_);fill:url(#SVGID_201_);}
	.st101{clip-path:url(#SVGID_203_);fill:url(#SVGID_204_);}
	.st102{fill:#199194;}
	.st103{clip-path:url(#SVGID_206_);fill:url(#SVGID_207_);}
	.st104{clip-path:url(#SVGID_206_);fill:#C4C4C4;}
	.st105{fill:url(#SVGID_208_);}
	.st106{fill:#C4C4C4;stroke:#FFFFFF;stroke-width:2;stroke-miterlimit:10;}
	.st107{fill:url(#SVGID_209_);}
	.st108{fill:url(#SVGID_210_);}
	.st109{fill:url(#SVGID_211_);}
	.st110{fill:url(#SVGID_212_);}
	.st111{clip-path:url(#SVGID_214_);fill:url(#SVGID_215_);}
	.st112{clip-path:url(#SVGID_217_);fill:url(#SVGID_218_);}
	.st113{clip-path:url(#SVGID_220_);fill:url(#SVGID_221_);}
	.st114{clip-path:url(#SVGID_220_);fill:#C4C4C4;}
	.st115{clip-path:url(#SVGID_223_);fill:url(#SVGID_224_);}
	.st116{clip-path:url(#SVGID_223_);fill:#C4C4C4;}
</style>
<g>
	<defs>
		<path id="SVGID_222_" d="M288.87,271.31c0,0-4.67-15.58,12.98-13.5l139.16,51.41c0,0,10.38,6.75,4.15,13.5l-36.87,27l38.86,38.87
			c0,0,9.43,15.13-3.55,26.56s-27,0-27,0l-36.87-36.35l-23.89,34.27c0,0-8.31,9.35-14.54-0.52L288.87,271.31z M263.95,272.34
			c0-2.58-2.09-4.67-4.67-4.67h-69.58c-2.58,0-4.67,2.09-4.67,4.67s2.09,4.67,4.67,4.67h69.58
			C261.85,277.02,263.95,274.92,263.95,272.34z M272.55,240.75c1.76-1.88,1.66-4.84-0.22-6.6l-31.67-29.6
			c-1.88-1.76-4.84-1.67-6.6,0.22c-1.76,1.88-1.66,4.84,0.22,6.6l31.67,29.6c0.9,0.84,2.05,1.26,3.19,1.26
			C270.38,242.23,271.63,241.73,272.55,240.75z M308.08,228.73V161c0-2.58-2.09-4.67-4.67-4.67s-4.67,2.09-4.67,4.67v67.72
			c0,2.58,2.09,4.67,4.67,4.67S308.08,231.31,308.08,228.73z M340.87,240.97l31.71-29.6c1.88-1.76,1.99-4.72,0.23-6.61
			c-1.76-1.89-4.72-1.99-6.61-0.23l-31.71,29.6c-1.88,1.76-1.99,4.72-0.23,6.61c0.92,0.99,2.17,1.48,3.42,1.48
			C338.82,242.23,339.97,241.81,340.87,240.97z M240.83,342.16l31.67-32.82c1.79-1.86,1.74-4.81-0.12-6.61
			c-1.85-1.79-4.81-1.74-6.61,0.12l-31.67,32.82c-1.79,1.86-1.74,4.81,0.12,6.61c0.91,0.87,2.08,1.31,3.24,1.31
			C238.69,343.59,239.91,343.11,240.83,342.16z"/>
	</defs>
	<clipPath id="SVGID_1_">
		<use xlink:href="#SVGID_222_"  style="overflow:visible;"/>
	</clipPath>
	<linearGradient id="SVGID_2_" gradientUnits="userSpaceOnUse" x1="78.5722" y1="283.1055" x2="556.9085" y2="283.1055">
		<stop  offset="0.3438" style="stop-color:#2FAC66"/>
		<stop  offset="0.5653" style="stop-color:#1B9894"/>
		<stop  offset="0.7718" style="stop-color:#1584AD"/>
		<stop  offset="0.9218" style="stop-color:#1B76B6"/>
		<stop  offset="1" style="stop-color:#1D71B8"/>
	</linearGradient>
	<circle style="clip-path:url(#SVGID_1_);fill:url(#SVGID_2_);" cx="317.74" cy="283.11" r="239.17"/>
</g>
</svg>
