<?xml version="1.0" encoding="utf-8"?>
<!-- Generator: Adobe Illustrator 25.2.2, SVG Export Plug-In . SVG Version: 6.00 Build 0)  -->
<svg version="1.1" id="Calque_1" xmlns="http://www.w3.org/2000/svg" xmlns:xlink="http://www.w3.org/1999/xlink" x="0px" y="0px"
	 viewBox="0 0 625.88 560" style="enable-background:new 0 0 625.88 560;" xml:space="preserve">
<style type="text/css">
	.st0{fill:url(#SVGID_1_);}
	.st1{fill:url(#SVGID_2_);}
	.st2{fill:url(#SVGID_3_);}
	.st3{fill:url(#SVGID_4_);}
	.st4{fill:url(#SVGID_5_);}
	.st5{fill:url(#SVGID_6_);}
	.st6{fill:url(#SVGID_7_);}
	.st7{fill:url(#SVGID_8_);}
	.st8{fill:url(#SVGID_9_);}
	.st9{fill:url(#SVGID_10_);}
	.st10{fill:url(#SVGID_11_);}
	.st11{fill:url(#SVGID_12_);}
	.st12{fill:url(#SVGID_13_);}
	.st13{fill:#1D71B8;}
	.st14{fill:#2FAC66;}
	.st15{fill:url(#SVGID_14_);}
	.st16{fill:#C4C4C4;}
	.st17{fill:#FFFFFF;}
	.st18{fill:#D3D3D3;}
	.st19{fill:#B7B7B7;}
	.st20{fill:url(#SVGID_15_);}
	.st21{fill:url(#SVGID_16_);}
	.st22{fill:url(#SVGID_17_);}
	.st23{fill:url(#SVGID_18_);}
	.st24{fill:url(#SVGID_19_);}
	.st25{fill:url(#SVGID_20_);}
	.st26{fill:url(#SVGID_21_);}
	.st27{fill:url(#SVGID_22_);}
	.st28{fill:url(#SVGID_23_);}
	.st29{fill:url(#SVGID_24_);}
	.st30{fill:url(#SVGID_25_);}
	.st31{fill:url(#SVGID_26_);}
	.st32{fill:url(#SVGID_27_);}
	.st33{fill:url(#SVGID_28_);}
	.st34{fill:url(#SVGID_29_);}
	.st35{clip-path:url(#SVGID_31_);fill:url(#SVGID_32_);}
	.st36{clip-path:url(#SVGID_34_);fill:url(#SVGID_35_);}
	.st37{clip-path:url(#SVGID_37_);fill:url(#SVGID_38_);}
	.st38{clip-path:url(#SVGID_40_);fill:url(#SVGID_41_);}
	.st39{clip-path:url(#SVGID_43_);fill:url(#SVGID_44_);}
	.st40{clip-path:url(#SVGID_46_);fill:url(#SVGID_47_);}
	.st41{clip-path:url(#SVGID_49_);fill:url(#SVGID_50_);}
	.st42{clip-path:url(#SVGID_52_);fill:url(#SVGID_53_);}
	.st43{clip-path:url(#SVGID_55_);fill:url(#SVGID_56_);}
	.st44{clip-path:url(#SVGID_58_);fill:url(#SVGID_59_);}
	.st45{clip-path:url(#SVGID_61_);fill:url(#SVGID_62_);}
	.st46{clip-path:url(#SVGID_64_);fill:url(#SVGID_65_);}
	.st47{clip-path:url(#SVGID_67_);fill:url(#SVGID_68_);}
	.st48{clip-path:url(#SVGID_70_);fill:url(#SVGID_71_);}
	.st49{clip-path:url(#SVGID_73_);fill:url(#SVGID_74_);}
	.st50{clip-path:url(#SVGID_76_);fill:url(#SVGID_77_);}
	.st51{clip-path:url(#SVGID_79_);fill:url(#SVGID_80_);}
	.st52{clip-path:url(#SVGID_82_);fill:url(#SVGID_83_);}
	.st53{clip-path:url(#SVGID_85_);fill:url(#SVGID_86_);}
	.st54{clip-path:url(#SVGID_88_);fill:url(#SVGID_89_);}
	.st55{clip-path:url(#SVGID_91_);fill:url(#SVGID_92_);}
	.st56{clip-path:url(#SVGID_94_);fill:url(#SVGID_95_);}
	.st57{clip-path:url(#SVGID_97_);fill:url(#SVGID_98_);}
	.st58{clip-path:url(#SVGID_100_);fill:url(#SVGID_101_);}
	.st59{clip-path:url(#SVGID_103_);fill:url(#SVGID_104_);}
	.st60{clip-path:url(#SVGID_106_);fill:url(#SVGID_107_);}
	.st61{clip-path:url(#SVGID_109_);fill:url(#SVGID_110_);}
	.st62{clip-path:url(#SVGID_109_);fill:#FFFFFF;}
	.st63{clip-path:url(#SVGID_112_);fill:url(#SVGID_113_);}
	.st64{clip-path:url(#SVGID_115_);fill:url(#SVGID_116_);}
	.st65{clip-path:url(#SVGID_118_);fill:url(#SVGID_119_);}
	.st66{clip-path:url(#SVGID_121_);fill:url(#SVGID_122_);}
	.st67{clip-path:url(#SVGID_124_);fill:url(#SVGID_125_);}
	.st68{clip-path:url(#SVGID_127_);fill:url(#SVGID_128_);}
	.st69{clip-path:url(#SVGID_130_);fill:url(#SVGID_131_);}
	.st70{clip-path:url(#SVGID_133_);fill:url(#SVGID_134_);}
	.st71{clip-path:url(#SVGID_136_);fill:url(#SVGID_137_);}
	.st72{clip-path:url(#SVGID_139_);fill:url(#SVGID_140_);}
	.st73{clip-path:url(#SVGID_142_);fill:url(#SVGID_143_);}
	.st74{clip-path:url(#SVGID_142_);fill:#FFFFFF;}
	.st75{clip-path:url(#SVGID_145_);fill:url(#SVGID_146_);}
	.st76{clip-path:url(#SVGID_148_);fill:url(#SVGID_149_);}
	.st77{fill:url(#SVGID_150_);}
	.st78{fill:url(#SVGID_151_);}
	.st79{clip-path:url(#SVGID_153_);fill:url(#SVGID_154_);}
	.st80{fill:url(#SVGID_155_);}
	.st81{fill:url(#SVGID_156_);}
	.st82{fill:url(#SVGID_157_);}
	.st83{clip-path:url(#SVGID_159_);fill:url(#SVGID_160_);}
	.st84{fill:url(#SVGID_161_);}
	.st85{clip-path:url(#SVGID_163_);fill:url(#SVGID_164_);}
	.st86{clip-path:url(#SVGID_166_);fill:url(#SVGID_167_);}
	.st87{clip-path:url(#SVGID_169_);fill:url(#SVGID_170_);}
	.st88{clip-path:url(#SVGID_172_);fill:url(#SVGID_173_);}
	.st89{clip-path:url(#SVGID_175_);fill:url(#SVGID_176_);}
	.st90{clip-path:url(#SVGID_178_);fill:url(#SVGID_179_);}
	.st91{clip-path:url(#SVGID_181_);fill:url(#SVGID_182_);}
	.st92{fill:url(#SVGID_183_);}
	.st93{fill:url(#SVGID_184_);}
	.st94{fill:url(#SVGID_185_);}
	.st95{clip-path:url(#SVGID_187_);fill:url(#SVGID_188_);}
	.st96{fill:url(#SVGID_189_);}
	.st97{clip-path:url(#SVGID_191_);fill:url(#SVGID_192_);}
	.st98{clip-path:url(#SVGID_194_);fill:url(#SVGID_195_);}
	.st99{clip-path:url(#SVGID_197_);fill:url(#SVGID_198_);}
	.st100{clip-path:url(#SVGID_200_);fill:url(#SVGID_201_);}
	.st101{clip-path:url(#SVGID_203_);fill:url(#SVGID_204_);}
	.st102{fill:#199194;}
	.st103{clip-path:url(#SVGID_206_);fill:url(#SVGID_207_);}
	.st104{clip-path:url(#SVGID_206_);fill:#C4C4C4;}
	.st105{fill:url(#SVGID_208_);}
	.st106{fill:#C4C4C4;stroke:#FFFFFF;stroke-width:2;stroke-miterlimit:10;}
	.st107{fill:url(#SVGID_209_);}
	.st108{fill:url(#SVGID_210_);}
	.st109{fill:url(#SVGID_211_);}
	.st110{fill:url(#SVGID_212_);}
	.st111{clip-path:url(#SVGID_214_);fill:url(#SVGID_215_);}
	.st112{clip-path:url(#SVGID_217_);fill:url(#SVGID_218_);}
	.st113{clip-path:url(#SVGID_220_);fill:url(#SVGID_221_);}
	.st114{clip-path:url(#SVGID_220_);fill:#C4C4C4;}
	.st115{clip-path:url(#SVGID_223_);fill:url(#SVGID_224_);}
	.st116{clip-path:url(#SVGID_223_);fill:#C4C4C4;}
</style>
<g>
	<g>
		<defs>
			<path id="SVGID_57_" d="M288.89,218.63c0-5.09,4.12-9.21,9.21-9.21c5.09,0,9.21,4.12,9.21,9.21s-4.12,9.21-9.21,9.21
				C293.01,227.84,288.89,223.71,288.89,218.63z M333.33,266.43c-0.43,0.94-0.46,2-0.1,2.97c0.57,1.51,2.02,2.51,3.63,2.51
				c0.47,0,0.93-0.08,1.36-0.25l5.04-1.89l10.12,25.24h6.76l-11-27.45l4.88-1.83c0.97-0.36,1.74-1.08,2.17-2.02
				c0.43-0.94,0.46-2,0.1-2.97c-0.56-1.51-2.02-2.52-3.63-2.52c-0.47,0-0.93,0.08-1.36,0.25l-15.78,5.93
				C334.53,264.77,333.75,265.49,333.33,266.43z M435.81,362.69V184.82h-20.58v199.81h20.58v-9.96h66.62v-11.98H435.81z
				 M323.01,281.19c-0.93-1.61-2.6-2.8-4.58-3.02l-1.81-0.2l-17.25-1.9l0.42-20l6.35,6.21l0.65,0.64c0.72,0.69,1.72,1.08,2.79,0.96
				l20.64-2.18c1.07-0.11,1.96-0.96,2.08-2.08c0.14-1.28-0.8-2.43-2.08-2.57l-18.12-1.91l-13.45-19.47
				c-0.24-0.35-0.54-0.71-0.86-1.02c-1.51-1.48-3.53-2.1-5.48-1.92c-3.93-0.09-7.43,2.7-8.07,6.69l-6.02,37.89l3.25,10.93h25.57
				c7.96,0,14.44,6.43,14.55,14.37l11.55,12.13c1.22,1.28,3.21,1.63,4.82,0.71c1.9-1.08,2.56-3.49,1.48-5.39L323.01,281.19z"/>
		</defs>
		<clipPath id="SVGID_1_">
			<use xlink:href="#SVGID_57_"  style="overflow:visible;"/>
		</clipPath>
		<linearGradient id="SVGID_2_" gradientUnits="userSpaceOnUse" x1="78.5746" y1="289.0681" x2="552.488" y2="289.0681">
			<stop  offset="0.3438" style="stop-color:#2FAC66"/>
			<stop  offset="0.5653" style="stop-color:#1B9894"/>
			<stop  offset="0.7718" style="stop-color:#1584AD"/>
			<stop  offset="0.9218" style="stop-color:#1B76B6"/>
			<stop  offset="1" style="stop-color:#1D71B8"/>
		</linearGradient>
		<circle style="clip-path:url(#SVGID_1_);fill:url(#SVGID_2_);" cx="315.53" cy="289.07" r="236.96"/>
	</g>
	<path class="st17" d="M376.39,241.75c-17.75-45.78-47.34-69.98-85.58-69.98H260.3c-20.86,0-37.84,16.97-37.84,37.84v93.06h-53.77
		v52.09c0,0,7.46,0,23.93,0s29.87,13.4,29.87,29.87h126.05c0-16.36,13.22-29.67,29.54-29.85v-0.02h28.58V330.2h-12.78
		C392.73,308.98,388.87,273.95,376.39,241.75z M344.43,301.57v28.63h-41.65v-19.41h4.25c4.4,0,7.97-3.57,7.97-7.97
		c0-4.4-3.57-7.97-7.97-7.97h-30.49l-11.93-40.11c-1.25-4.22-5.69-6.62-9.91-5.36c-4.22,1.25-6.62,5.69-5.36,9.91l12.9,43.37h-23.85
		V209.6c0-12.08,9.83-21.91,21.91-21.91h30.51c57.37,0,77.18,66.95,84.02,113.87H344.43z"/>
	<g>
		<defs>
			<path id="SVGID_60_" d="M376.39,241.75c-17.75-45.78-47.34-69.98-85.58-69.98H260.3c-20.86,0-37.84,16.97-37.84,37.84v93.06
				h-53.77v52.09c0,0,7.46,0,23.93,0s29.87,13.4,29.87,29.87h126.05c0-16.36,13.22-29.67,29.54-29.85v-0.02h28.58V330.2h-12.78
				C392.73,308.98,388.87,273.95,376.39,241.75z M344.43,301.57v28.63h-41.65v-19.41h4.25c4.4,0,7.97-3.57,7.97-7.97
				c0-4.4-3.57-7.97-7.97-7.97h-30.49l-11.93-40.11c-1.25-4.22-5.69-6.62-9.91-5.36c-4.22,1.25-6.62,5.69-5.36,9.91l12.9,43.37
				h-23.85V209.6c0-12.08,9.83-21.91,21.91-21.91h30.51c57.37,0,77.18,66.95,84.02,113.87H344.43z"/>
		</defs>
		<clipPath id="SVGID_3_">
			<use xlink:href="#SVGID_60_"  style="overflow:visible;"/>
		</clipPath>
		<linearGradient id="SVGID_4_" gradientUnits="userSpaceOnUse" x1="78.5746" y1="289.0681" x2="552.488" y2="289.0681">
			<stop  offset="0.3438" style="stop-color:#2FAC66"/>
			<stop  offset="0.5653" style="stop-color:#1B9894"/>
			<stop  offset="0.7718" style="stop-color:#1584AD"/>
			<stop  offset="0.9218" style="stop-color:#1B76B6"/>
			<stop  offset="1" style="stop-color:#1D71B8"/>
		</linearGradient>
		<circle style="clip-path:url(#SVGID_3_);fill:url(#SVGID_4_);" cx="315.53" cy="289.07" r="236.96"/>
	</g>
	<g>
		<defs>
			<path id="SVGID_63_" d="M190.51,365.72c-11.57,0-20.95,9.38-20.95,20.95c0,11.57,9.38,20.95,20.95,20.95
				c11.57,0,20.95-9.38,20.95-20.95C211.46,375.1,202.08,365.72,190.51,365.72z M190.51,395.83c-5.05,0-9.16-4.11-9.16-9.16
				c0-5.05,4.11-9.16,9.16-9.16c5.05,0,9.16,4.11,9.16,9.16C199.68,391.72,195.57,395.83,190.51,395.83z"/>
		</defs>
		<clipPath id="SVGID_5_">
			<use xlink:href="#SVGID_63_"  style="overflow:visible;"/>
		</clipPath>
		<linearGradient id="SVGID_6_" gradientUnits="userSpaceOnUse" x1="76.4641" y1="291.1122" x2="550.3775" y2="291.1122">
			<stop  offset="0.3438" style="stop-color:#2FAC66"/>
			<stop  offset="0.5653" style="stop-color:#1B9894"/>
			<stop  offset="0.7718" style="stop-color:#1584AD"/>
			<stop  offset="0.9218" style="stop-color:#1B76B6"/>
			<stop  offset="1" style="stop-color:#1D71B8"/>
		</linearGradient>
		<circle style="clip-path:url(#SVGID_5_);fill:url(#SVGID_6_);" cx="313.42" cy="291.11" r="236.96"/>
	</g>
	<g>
		<defs>
			<path id="SVGID_66_" d="M380.08,366.07c-11.57,0-20.95,9.38-20.95,20.95c0,11.57,9.38,20.95,20.95,20.95s20.95-9.38,20.95-20.95
				C401.03,375.45,391.65,366.07,380.08,366.07z M380.08,396.18c-5.05,0-9.16-4.11-9.16-9.16c0-5.05,4.11-9.16,9.16-9.16
				c5.05,0,9.16,4.11,9.16,9.16C389.24,392.07,385.13,396.18,380.08,396.18z"/>
		</defs>
		<clipPath id="SVGID_7_">
			<use xlink:href="#SVGID_66_"  style="overflow:visible;"/>
		</clipPath>
		<linearGradient id="SVGID_8_" gradientUnits="userSpaceOnUse" x1="80.2335" y1="291.4593" x2="554.1469" y2="291.4593">
			<stop  offset="0.3438" style="stop-color:#2FAC66"/>
			<stop  offset="0.5653" style="stop-color:#1B9894"/>
			<stop  offset="0.7718" style="stop-color:#1584AD"/>
			<stop  offset="0.9218" style="stop-color:#1B76B6"/>
			<stop  offset="1" style="stop-color:#1D71B8"/>
		</linearGradient>
		<circle style="clip-path:url(#SVGID_7_);fill:url(#SVGID_8_);" cx="317.19" cy="291.46" r="236.96"/>
	</g>
</g>
</svg>
