<?xml version="1.0" encoding="utf-8"?>
<!-- Generator: Adobe Illustrator 25.2.2, SVG Export Plug-In . SVG Version: 6.00 Build 0)  -->
<svg version="1.1" id="Calque_1" xmlns="http://www.w3.org/2000/svg" xmlns:xlink="http://www.w3.org/1999/xlink" x="0px" y="0px"
	 viewBox="0 0 625.88 560" style="enable-background:new 0 0 625.88 560;" xml:space="preserve">
<style type="text/css">
	.st0{fill:url(#SVGID_1_);}
	.st1{fill:url(#SVGID_2_);}
	.st2{fill:url(#SVGID_3_);}
	.st3{fill:url(#SVGID_4_);}
	.st4{fill:url(#SVGID_5_);}
	.st5{fill:url(#SVGID_6_);}
	.st6{fill:url(#SVGID_7_);}
	.st7{fill:url(#SVGID_8_);}
	.st8{fill:url(#SVGID_9_);}
	.st9{fill:url(#SVGID_10_);}
	.st10{fill:url(#SVGID_11_);}
	.st11{fill:url(#SVGID_12_);}
	.st12{fill:url(#SVGID_13_);}
	.st13{fill:#1D71B8;}
	.st14{fill:#2FAC66;}
	.st15{fill:url(#SVGID_14_);}
	.st16{fill:#C4C4C4;}
	.st17{fill:#FFFFFF;}
	.st18{fill:#D3D3D3;}
	.st19{fill:#B7B7B7;}
	.st20{fill:url(#SVGID_15_);}
	.st21{fill:url(#SVGID_16_);}
	.st22{fill:url(#SVGID_17_);}
	.st23{fill:url(#SVGID_18_);}
	.st24{fill:url(#SVGID_19_);}
	.st25{fill:url(#SVGID_20_);}
	.st26{fill:url(#SVGID_21_);}
	.st27{fill:url(#SVGID_22_);}
	.st28{fill:url(#SVGID_23_);}
	.st29{fill:url(#SVGID_24_);}
	.st30{fill:url(#SVGID_25_);}
	.st31{fill:url(#SVGID_26_);}
	.st32{fill:url(#SVGID_27_);}
	.st33{fill:url(#SVGID_28_);}
	.st34{fill:url(#SVGID_29_);}
	.st35{clip-path:url(#SVGID_31_);fill:url(#SVGID_32_);}
	.st36{clip-path:url(#SVGID_34_);fill:url(#SVGID_35_);}
	.st37{clip-path:url(#SVGID_37_);fill:url(#SVGID_38_);}
	.st38{clip-path:url(#SVGID_40_);fill:url(#SVGID_41_);}
	.st39{clip-path:url(#SVGID_43_);fill:url(#SVGID_44_);}
	.st40{clip-path:url(#SVGID_46_);fill:url(#SVGID_47_);}
	.st41{clip-path:url(#SVGID_49_);fill:url(#SVGID_50_);}
	.st42{clip-path:url(#SVGID_52_);fill:url(#SVGID_53_);}
	.st43{clip-path:url(#SVGID_55_);fill:url(#SVGID_56_);}
	.st44{clip-path:url(#SVGID_58_);fill:url(#SVGID_59_);}
	.st45{clip-path:url(#SVGID_61_);fill:url(#SVGID_62_);}
	.st46{clip-path:url(#SVGID_64_);fill:url(#SVGID_65_);}
	.st47{clip-path:url(#SVGID_67_);fill:url(#SVGID_68_);}
	.st48{clip-path:url(#SVGID_70_);fill:url(#SVGID_71_);}
	.st49{clip-path:url(#SVGID_73_);fill:url(#SVGID_74_);}
	.st50{clip-path:url(#SVGID_76_);fill:url(#SVGID_77_);}
	.st51{clip-path:url(#SVGID_79_);fill:url(#SVGID_80_);}
	.st52{clip-path:url(#SVGID_82_);fill:url(#SVGID_83_);}
	.st53{clip-path:url(#SVGID_85_);fill:url(#SVGID_86_);}
	.st54{clip-path:url(#SVGID_88_);fill:url(#SVGID_89_);}
	.st55{clip-path:url(#SVGID_91_);fill:url(#SVGID_92_);}
	.st56{clip-path:url(#SVGID_94_);fill:url(#SVGID_95_);}
	.st57{clip-path:url(#SVGID_97_);fill:url(#SVGID_98_);}
	.st58{clip-path:url(#SVGID_100_);fill:url(#SVGID_101_);}
	.st59{clip-path:url(#SVGID_103_);fill:url(#SVGID_104_);}
	.st60{clip-path:url(#SVGID_106_);fill:url(#SVGID_107_);}
	.st61{clip-path:url(#SVGID_109_);fill:url(#SVGID_110_);}
	.st62{clip-path:url(#SVGID_109_);fill:#FFFFFF;}
	.st63{clip-path:url(#SVGID_112_);fill:url(#SVGID_113_);}
	.st64{clip-path:url(#SVGID_115_);fill:url(#SVGID_116_);}
	.st65{clip-path:url(#SVGID_118_);fill:url(#SVGID_119_);}
	.st66{clip-path:url(#SVGID_121_);fill:url(#SVGID_122_);}
	.st67{clip-path:url(#SVGID_124_);fill:url(#SVGID_125_);}
	.st68{clip-path:url(#SVGID_127_);fill:url(#SVGID_128_);}
	.st69{clip-path:url(#SVGID_130_);fill:url(#SVGID_131_);}
	.st70{clip-path:url(#SVGID_133_);fill:url(#SVGID_134_);}
	.st71{clip-path:url(#SVGID_136_);fill:url(#SVGID_137_);}
	.st72{clip-path:url(#SVGID_139_);fill:url(#SVGID_140_);}
	.st73{clip-path:url(#SVGID_142_);fill:url(#SVGID_143_);}
	.st74{clip-path:url(#SVGID_142_);fill:#FFFFFF;}
	.st75{clip-path:url(#SVGID_145_);fill:url(#SVGID_146_);}
	.st76{clip-path:url(#SVGID_148_);fill:url(#SVGID_149_);}
	.st77{fill:url(#SVGID_150_);}
	.st78{fill:url(#SVGID_151_);}
	.st79{clip-path:url(#SVGID_153_);fill:url(#SVGID_154_);}
	.st80{fill:url(#SVGID_155_);}
	.st81{fill:url(#SVGID_156_);}
	.st82{fill:url(#SVGID_157_);}
	.st83{clip-path:url(#SVGID_159_);fill:url(#SVGID_160_);}
	.st84{fill:url(#SVGID_161_);}
	.st85{clip-path:url(#SVGID_163_);fill:url(#SVGID_164_);}
	.st86{clip-path:url(#SVGID_166_);fill:url(#SVGID_167_);}
	.st87{clip-path:url(#SVGID_169_);fill:url(#SVGID_170_);}
	.st88{clip-path:url(#SVGID_172_);fill:url(#SVGID_173_);}
	.st89{clip-path:url(#SVGID_175_);fill:url(#SVGID_176_);}
	.st90{clip-path:url(#SVGID_178_);fill:url(#SVGID_179_);}
	.st91{clip-path:url(#SVGID_181_);fill:url(#SVGID_182_);}
	.st92{fill:url(#SVGID_183_);}
	.st93{fill:url(#SVGID_184_);}
	.st94{fill:url(#SVGID_185_);}
	.st95{clip-path:url(#SVGID_187_);fill:url(#SVGID_188_);}
	.st96{fill:url(#SVGID_189_);}
	.st97{clip-path:url(#SVGID_191_);fill:url(#SVGID_192_);}
	.st98{clip-path:url(#SVGID_194_);fill:url(#SVGID_195_);}
	.st99{clip-path:url(#SVGID_197_);fill:url(#SVGID_198_);}
	.st100{clip-path:url(#SVGID_200_);fill:url(#SVGID_201_);}
	.st101{clip-path:url(#SVGID_203_);fill:url(#SVGID_204_);}
	.st102{fill:#199194;}
	.st103{clip-path:url(#SVGID_206_);fill:url(#SVGID_207_);}
	.st104{clip-path:url(#SVGID_206_);fill:#C4C4C4;}
	.st105{fill:url(#SVGID_208_);}
	.st106{fill:#C4C4C4;stroke:#FFFFFF;stroke-width:2;stroke-miterlimit:10;}
	.st107{fill:url(#SVGID_209_);}
	.st108{fill:url(#SVGID_210_);}
	.st109{fill:url(#SVGID_211_);}
	.st110{fill:url(#SVGID_212_);}
	.st111{clip-path:url(#SVGID_214_);fill:url(#SVGID_215_);}
	.st112{clip-path:url(#SVGID_217_);fill:url(#SVGID_218_);}
	.st113{clip-path:url(#SVGID_220_);fill:url(#SVGID_221_);}
	.st114{clip-path:url(#SVGID_220_);fill:#C4C4C4;}
	.st115{clip-path:url(#SVGID_223_);fill:url(#SVGID_224_);}
	.st116{clip-path:url(#SVGID_223_);fill:#C4C4C4;}
</style>
<g>
	<defs>
		<path id="SVGID_177_" d="M267.64,312.18l19.77-12.86l3.59,51l-36.67,13.9L267.64,312.18z M428.72,343.89l-52.22-23.11l15.2,59.43
			l-46.65-17.63l-17.07,47.05h72.75h11.22h28.37C435.99,374.62,431.35,344.58,428.72,343.89z M240.01,380.24l15.3-59.82
			l-53.05,23.47c-4.5,0.68-8.65,30.61-11.88,65.75h28.64h11.22H303l-16.99-46.84L240.01,380.24z M340.59,350.32l36.79,13.9
			l-13.31-52.04l-19.51-14.43L340.59,350.32z M329.84,360.37l-14.04,13.12l-14.05-13.12l-5.35,2.03l17.14,47.25h3.91l17.21-47.45
			L329.84,360.37z M286.28,283.98c-2.25-3.16-6.36-9.73-8.48-14.01c-1.3,0.65-31.5,7.94-36.05-56.65
			c-5.5,20.55-2.62,39.23,1.65,51.38C250.56,285.06,270.51,295.59,286.28,283.98z M252.27,235.34l0.08,0.76
			c0.39,3.89,1.02,9.6,5.48,12.89c1.56,3.77,3.5,6.71,5.62,8.3c2.25,2.99,4.66,4.51,7.16,4.51h0c0.37,0,0.74-0.04,1.1-0.11
			c6.88-1.34,8.18-13.87,5.91-25.57c-2.02-10.41-7.24-21.61-13.94-21.61c-0.37,0-0.74,0.04-1.1,0.11c-1.17,0.23-2.57,0.89-3.8,2.46
			c-7.34-40.73,7.56-58.15,7.55-58.14c-13.81,7.25-24.68,33.58-14.02,76.14C252.29,235.16,252.26,235.24,252.27,235.34z
			 M267.08,204.96c2.23,0.47,4.26,1.42,6.13,2.72c1.95-6.28,4.74-12.78,8.72-19.43c17.56,16.12,49.36,20.4,66.43,27.04
			c3.14-4.92,7.18-8.7,12.19-10.09c8.59-19.78-0.76-46.12-8.23-52.45c-14.45-10.31-31.49-14.31-49.61-7.43
			c-11.82-2.81-22.57,1.12-31.89,9.14C268.23,161.91,259.8,176.74,267.08,204.96z M359.69,288.8c13.4,3.19,26.54-5.91,31.51-19.42
			c6.6-17.94,2.3-40.5-4.75-62.02C386.41,215.82,389.76,270.96,359.69,288.8z M369.08,216.25c-1.04-0.99-2.13-1.46-3.07-1.64
			c-0.36-0.07-0.73-0.11-1.1-0.11c-6.7,0-11.92,11.2-13.94,21.61c-2.27,11.69-0.97,24.23,5.91,25.57c0.36,0.07,0.73,0.11,1.1,0.11h0
			c2.38,0,4.67-1.42,6.83-4.13c-3.5,5.99-9.38,12.1-19.29,17.22c-0.98,0.51-4.62,1.31-8.1,1.88c-4.96-2.7-12.53-4.55-18-3.63
			c-8.56,1.44-14.58,8.06-13.45,14.79c1.13,6.73,8.99,11.02,17.55,9.58c5.48-0.92,12.02-5.15,15.83-9.32
			c4.13-1.03,21.81-6.74,31.44-30.57c0,0,2.55-4.71,1.88-10.61c2.69-3.45,3.02-8.05,3.21-11.35l0.04-0.76
			c0.01-0.09-0.02-0.18-0.03-0.27c12.74-47.69-9.32-74.29-16.09-75.54C359.76,159.07,376.46,171.12,369.08,216.25z"/>
	</defs>
	<clipPath id="SVGID_1_">
		<use xlink:href="#SVGID_177_"  style="overflow:visible;"/>
	</clipPath>
	<linearGradient id="SVGID_2_" gradientUnits="userSpaceOnUse" x1="72.1533" y1="281.0974" x2="546.0667" y2="281.0974">
		<stop  offset="0.3438" style="stop-color:#2FAC66"/>
		<stop  offset="0.5653" style="stop-color:#1B9894"/>
		<stop  offset="0.7718" style="stop-color:#1584AD"/>
		<stop  offset="0.9218" style="stop-color:#1B76B6"/>
		<stop  offset="1" style="stop-color:#1D71B8"/>
	</linearGradient>
	<circle style="clip-path:url(#SVGID_1_);fill:url(#SVGID_2_);" cx="309.11" cy="281.1" r="236.96"/>
</g>
</svg>
