<?xml version="1.0" encoding="utf-8"?>
<!-- Generator: Adobe Illustrator 25.2.2, SVG Export Plug-In . SVG Version: 6.00 Build 0)  -->
<svg version="1.1" id="Calque_1" xmlns="http://www.w3.org/2000/svg" xmlns:xlink="http://www.w3.org/1999/xlink" x="0px" y="0px"
	 viewBox="0 0 625.88 560" style="enable-background:new 0 0 625.88 560;" xml:space="preserve">
<style type="text/css">
	.st0{fill:url(#SVGID_1_);}
	.st1{fill:url(#SVGID_2_);}
	.st2{fill:url(#SVGID_3_);}
	.st3{fill:url(#SVGID_4_);}
	.st4{fill:url(#SVGID_5_);}
	.st5{fill:url(#SVGID_6_);}
	.st6{fill:url(#SVGID_7_);}
	.st7{fill:url(#SVGID_8_);}
	.st8{fill:url(#SVGID_9_);}
	.st9{fill:url(#SVGID_10_);}
	.st10{fill:url(#SVGID_11_);}
	.st11{fill:url(#SVGID_12_);}
	.st12{fill:url(#SVGID_13_);}
	.st13{fill:#1D71B8;}
	.st14{fill:#2FAC66;}
	.st15{fill:url(#SVGID_14_);}
	.st16{fill:#C4C4C4;}
	.st17{fill:#FFFFFF;}
	.st18{fill:#D3D3D3;}
	.st19{fill:#B7B7B7;}
	.st20{fill:url(#SVGID_15_);}
	.st21{fill:url(#SVGID_16_);}
	.st22{fill:url(#SVGID_17_);}
	.st23{fill:url(#SVGID_18_);}
	.st24{fill:url(#SVGID_19_);}
	.st25{fill:url(#SVGID_20_);}
	.st26{fill:url(#SVGID_21_);}
	.st27{fill:url(#SVGID_22_);}
	.st28{fill:url(#SVGID_23_);}
	.st29{fill:url(#SVGID_24_);}
	.st30{fill:url(#SVGID_25_);}
	.st31{fill:url(#SVGID_26_);}
	.st32{fill:url(#SVGID_27_);}
	.st33{fill:url(#SVGID_28_);}
	.st34{fill:url(#SVGID_29_);}
	.st35{clip-path:url(#SVGID_31_);fill:url(#SVGID_32_);}
	.st36{clip-path:url(#SVGID_34_);fill:url(#SVGID_35_);}
	.st37{clip-path:url(#SVGID_37_);fill:url(#SVGID_38_);}
	.st38{clip-path:url(#SVGID_40_);fill:url(#SVGID_41_);}
	.st39{clip-path:url(#SVGID_43_);fill:url(#SVGID_44_);}
	.st40{clip-path:url(#SVGID_46_);fill:url(#SVGID_47_);}
	.st41{clip-path:url(#SVGID_49_);fill:url(#SVGID_50_);}
	.st42{clip-path:url(#SVGID_52_);fill:url(#SVGID_53_);}
	.st43{clip-path:url(#SVGID_55_);fill:url(#SVGID_56_);}
	.st44{clip-path:url(#SVGID_58_);fill:url(#SVGID_59_);}
	.st45{clip-path:url(#SVGID_61_);fill:url(#SVGID_62_);}
	.st46{clip-path:url(#SVGID_64_);fill:url(#SVGID_65_);}
	.st47{clip-path:url(#SVGID_67_);fill:url(#SVGID_68_);}
	.st48{clip-path:url(#SVGID_70_);fill:url(#SVGID_71_);}
	.st49{clip-path:url(#SVGID_73_);fill:url(#SVGID_74_);}
	.st50{clip-path:url(#SVGID_76_);fill:url(#SVGID_77_);}
	.st51{clip-path:url(#SVGID_79_);fill:url(#SVGID_80_);}
	.st52{clip-path:url(#SVGID_82_);fill:url(#SVGID_83_);}
	.st53{clip-path:url(#SVGID_85_);fill:url(#SVGID_86_);}
	.st54{clip-path:url(#SVGID_88_);fill:url(#SVGID_89_);}
	.st55{clip-path:url(#SVGID_91_);fill:url(#SVGID_92_);}
	.st56{clip-path:url(#SVGID_94_);fill:url(#SVGID_95_);}
	.st57{clip-path:url(#SVGID_97_);fill:url(#SVGID_98_);}
	.st58{clip-path:url(#SVGID_100_);fill:url(#SVGID_101_);}
	.st59{clip-path:url(#SVGID_103_);fill:url(#SVGID_104_);}
	.st60{clip-path:url(#SVGID_106_);fill:url(#SVGID_107_);}
	.st61{clip-path:url(#SVGID_109_);fill:url(#SVGID_110_);}
	.st62{clip-path:url(#SVGID_109_);fill:#FFFFFF;}
	.st63{clip-path:url(#SVGID_112_);fill:url(#SVGID_113_);}
	.st64{clip-path:url(#SVGID_115_);fill:url(#SVGID_116_);}
	.st65{clip-path:url(#SVGID_118_);fill:url(#SVGID_119_);}
	.st66{clip-path:url(#SVGID_121_);fill:url(#SVGID_122_);}
	.st67{clip-path:url(#SVGID_124_);fill:url(#SVGID_125_);}
	.st68{clip-path:url(#SVGID_127_);fill:url(#SVGID_128_);}
	.st69{clip-path:url(#SVGID_130_);fill:url(#SVGID_131_);}
	.st70{clip-path:url(#SVGID_133_);fill:url(#SVGID_134_);}
	.st71{clip-path:url(#SVGID_136_);fill:url(#SVGID_137_);}
	.st72{clip-path:url(#SVGID_139_);fill:url(#SVGID_140_);}
	.st73{clip-path:url(#SVGID_142_);fill:url(#SVGID_143_);}
	.st74{clip-path:url(#SVGID_142_);fill:#FFFFFF;}
	.st75{clip-path:url(#SVGID_145_);fill:url(#SVGID_146_);}
	.st76{clip-path:url(#SVGID_148_);fill:url(#SVGID_149_);}
	.st77{fill:url(#SVGID_150_);}
	.st78{fill:url(#SVGID_151_);}
	.st79{clip-path:url(#SVGID_153_);fill:url(#SVGID_154_);}
	.st80{fill:url(#SVGID_155_);}
	.st81{fill:url(#SVGID_156_);}
	.st82{fill:url(#SVGID_157_);}
	.st83{clip-path:url(#SVGID_159_);fill:url(#SVGID_160_);}
	.st84{fill:url(#SVGID_161_);}
	.st85{clip-path:url(#SVGID_163_);fill:url(#SVGID_164_);}
	.st86{clip-path:url(#SVGID_166_);fill:url(#SVGID_167_);}
	.st87{clip-path:url(#SVGID_169_);fill:url(#SVGID_170_);}
	.st88{clip-path:url(#SVGID_172_);fill:url(#SVGID_173_);}
	.st89{clip-path:url(#SVGID_175_);fill:url(#SVGID_176_);}
	.st90{clip-path:url(#SVGID_178_);fill:url(#SVGID_179_);}
	.st91{clip-path:url(#SVGID_181_);fill:url(#SVGID_182_);}
	.st92{fill:url(#SVGID_183_);}
	.st93{fill:url(#SVGID_184_);}
	.st94{fill:url(#SVGID_185_);}
	.st95{clip-path:url(#SVGID_187_);fill:url(#SVGID_188_);}
	.st96{fill:url(#SVGID_189_);}
	.st97{clip-path:url(#SVGID_191_);fill:url(#SVGID_192_);}
	.st98{clip-path:url(#SVGID_194_);fill:url(#SVGID_195_);}
	.st99{clip-path:url(#SVGID_197_);fill:url(#SVGID_198_);}
	.st100{clip-path:url(#SVGID_200_);fill:url(#SVGID_201_);}
	.st101{clip-path:url(#SVGID_203_);fill:url(#SVGID_204_);}
	.st102{fill:#199194;}
	.st103{clip-path:url(#SVGID_206_);fill:url(#SVGID_207_);}
	.st104{clip-path:url(#SVGID_206_);fill:#C4C4C4;}
	.st105{fill:url(#SVGID_208_);}
	.st106{fill:#C4C4C4;stroke:#FFFFFF;stroke-width:2;stroke-miterlimit:10;}
	.st107{fill:url(#SVGID_209_);}
	.st108{fill:url(#SVGID_210_);}
	.st109{fill:url(#SVGID_211_);}
	.st110{fill:url(#SVGID_212_);}
	.st111{clip-path:url(#SVGID_214_);fill:url(#SVGID_215_);}
	.st112{clip-path:url(#SVGID_217_);fill:url(#SVGID_218_);}
	.st113{clip-path:url(#SVGID_220_);fill:url(#SVGID_221_);}
	.st114{clip-path:url(#SVGID_220_);fill:#C4C4C4;}
	.st115{clip-path:url(#SVGID_223_);fill:url(#SVGID_224_);}
	.st116{clip-path:url(#SVGID_223_);fill:#C4C4C4;}
</style>
<linearGradient id="SVGID_1_" gradientUnits="userSpaceOnUse" x1="185.2971" y1="221.8508" x2="434.3491" y2="221.8508">
	<stop  offset="0.3438" style="stop-color:#2FAC66"/>
	<stop  offset="0.5653" style="stop-color:#1B9894"/>
	<stop  offset="0.7718" style="stop-color:#1584AD"/>
	<stop  offset="0.9218" style="stop-color:#1B76B6"/>
	<stop  offset="1" style="stop-color:#1D71B8"/>
</linearGradient>
<path class="st0" d="M414.83,200.08l0.03-0.02c-0.48-0.32-1.04-0.64-1.56-0.96c-0.06-0.04-0.13-0.08-0.19-0.12
	c-18.61-11.5-59.11-23.77-103.28-23.77c-44.17,0-84.67,12.27-103.28,23.77c-0.06,0.04-0.13,0.08-0.19,0.12
	c-0.51,0.32-1.08,0.64-1.56,0.96l0.03,0.02c-12.2,8-22.92,26.41-18.52,43.47c0.35,1.34,0.99,2.49,1.85,3.5l11.64,16.91
	c3.94,6.08,17.28,5.43,30.23,1.73c2.91-6.88,5.64-12.45,7.8-15.81c4.1-6.41,10.63-11.52,19.78-15.46l-0.51-8.84
	c-0.02-0.66-0.1-1.32-0.27-1.99c-0.7-2.73-1.78-5.26-3.11-7.63c3.32-3.7,6.88-5.75,10.72-6.77l1.65-13.68h39.27v17.34
	c1.46,0.08,2.95,0.13,4.46,0.13c1.5,0,2.99-0.05,4.46-0.15V195.5h39.27l1.45,12.08c4.7,0.63,8.69,2.63,11.69,7.11
	c-1.69,2.72-3.06,5.67-3.89,8.9c-0.17,0.66-0.25,1.33-0.27,1.99l-0.51,8.84c9.15,3.94,15.68,9.05,19.78,15.46
	c2.15,3.36,4.89,8.93,7.8,15.81c12.96,3.7,26.3,4.35,30.23-1.73l11.64-16.91c0.87-1,1.51-2.16,1.85-3.5
	C437.74,226.48,427.02,208.08,414.83,200.08z"/>
<linearGradient id="SVGID_2_" gradientUnits="userSpaceOnUse" x1="223.3948" y1="373.0742" x2="396.2513" y2="373.0742">
	<stop  offset="0.3438" style="stop-color:#2FAC66"/>
	<stop  offset="0.5653" style="stop-color:#1B9894"/>
	<stop  offset="0.7718" style="stop-color:#1584AD"/>
	<stop  offset="0.9218" style="stop-color:#1B76B6"/>
	<stop  offset="1" style="stop-color:#1D71B8"/>
</linearGradient>
<path class="st1" d="M309.82,369.26c0,0-70.4,1.19-85.7-18.61c-1.41,11.64-0.91,21.53,2.84,27c12.98,18.94,82.87,17.82,82.87,17.82
	s69.89,1.11,82.87-17.82c3.75-5.47,4.25-15.36,2.84-27C380.22,370.45,309.82,369.26,309.82,369.26z"/>
<linearGradient id="SVGID_3_" gradientUnits="userSpaceOnUse" x1="224.779" y1="279.8349" x2="394.8672" y2="279.8349">
	<stop  offset="0.3438" style="stop-color:#2FAC66"/>
	<stop  offset="0.5653" style="stop-color:#1B9894"/>
	<stop  offset="0.7718" style="stop-color:#1584AD"/>
	<stop  offset="0.9218" style="stop-color:#1B76B6"/>
	<stop  offset="1" style="stop-color:#1D71B8"/>
</linearGradient>
<path class="st2" d="M278.07,209.02l-4.11,34.12c-10.82,2.83-20.42,7.26-24.75,14.02c-6.24,9.75-20.03,45.49-24.43,73.59
	c0,0,24.77,19.9,84.99,19.9s85.1-19.9,85.1-19.9c-4.4-28.1-18.19-63.84-24.43-73.59c-4.33-6.76-13.93-11.2-24.75-14.02l-4.11-34.12
	H327.8v30.86c-6.62-0.77-12.92-1.09-17.98-1.09c-5.06,0-11.36,0.33-17.98,1.09v-30.86H278.07z M309.82,258.88
	c21.45,0,39.63,10.75,46.21,25.68c2.91-0.42,5.12-0.73,5.12-0.73c0.25-0.04,0.5-0.06,0.76-0.06c0.07,0,0.47-0.02,0.53-0.02
	c7.22,0,13.09,5.87,13.09,13.09c0,7.22-5.87,13.09-13.09,13.09c-0.47,0-0.77,0-6.42-0.8c-6.58,14.93-24.76,25.67-46.21,25.67
	c-26.99,0-48.87-17-48.87-37.96S282.83,258.88,309.82,258.88z"/>
<g>
	<defs>
		<path id="SVGID_186_" d="M287.54,306.63c0,3.57-3.73,6.47-8.33,6.47c-4.6,0-8.33-2.9-8.33-6.47s3.73-6.47,8.33-6.47
			C283.81,300.16,287.54,303.06,287.54,306.63z M294.37,312.77c-4.6,0-8.33,2.9-8.33,6.47s3.73,6.47,8.33,6.47
			c4.6,0,8.33-2.9,8.33-6.47S298.97,312.77,294.37,312.77z M278.6,295.85c4.6,0,8.33-2.9,8.33-6.47c0-3.57-3.73-6.47-8.33-6.47
			c-4.6,0-8.33,2.9-8.33,6.47C270.27,292.95,274,295.85,278.6,295.85z M291.84,282.24c4.6,0,8.33-2.9,8.33-6.47
			c0-3.57-3.73-6.47-8.33-6.47c-4.6,0-8.33,2.9-8.33,6.47C283.51,279.34,287.24,282.24,291.84,282.24z M313.14,278.07
			c4.6,0,8.33-2.9,8.33-6.47c0-3.57-3.73-6.47-8.33-6.47c-4.6,0-8.33,2.9-8.33,6.47C304.8,275.18,308.53,278.07,313.14,278.07z
			 M335.07,306.52c-4.6,0-8.33,2.9-8.33,6.47c0,3.57,3.73,6.47,8.33,6.47c4.6,0,8.33-2.9,8.33-6.47
			C343.4,309.41,339.67,306.52,335.07,306.52z M316.13,315.14c-4.6,0-8.33,2.9-8.33,6.47s3.73,6.47,8.33,6.47
			c4.6,0,8.33-2.9,8.33-6.47S320.73,315.14,316.13,315.14z M333.37,285.21c4.6,0,8.33-2.9,8.33-6.47s-3.73-6.47-8.33-6.47
			c-4.6,0-8.33,2.9-8.33,6.47S328.76,285.21,333.37,285.21z M291.75,296.84c0,7.75,8.09,14.04,18.07,14.04s18.07-6.29,18.07-14.04
			c0-7.75-8.09-14.04-18.07-14.04S291.75,289.09,291.75,296.84z M362.45,290.51c-0.11,0-0.22,0.01-0.33,0.02l0,0
			c0,0-19.45,2.78-19.6,2.8c-1.74,0.22-3.09,1.72-3.09,3.52c0,1.87,1.45,3.4,3.28,3.54c0.09,0.01,19.14,2.8,19.75,2.8
			c3.5,0,6.34-2.84,6.34-6.34S365.95,290.51,362.45,290.51z"/>
	</defs>
	<clipPath id="SVGID_4_">
		<use xlink:href="#SVGID_186_"  style="overflow:visible;"/>
	</clipPath>
	<linearGradient id="SVGID_5_" gradientUnits="userSpaceOnUse" x1="245.5556" y1="297.2222" x2="386.7065" y2="297.2222">
		<stop  offset="0.3438" style="stop-color:#2FAC66"/>
		<stop  offset="0.5653" style="stop-color:#1B9894"/>
		<stop  offset="0.7718" style="stop-color:#1584AD"/>
		<stop  offset="0.9218" style="stop-color:#1B76B6"/>
		<stop  offset="1" style="stop-color:#1D71B8"/>
	</linearGradient>
	<ellipse style="clip-path:url(#SVGID_4_);fill:url(#SVGID_5_);" cx="316.13" cy="297.22" rx="70.58" ry="40.56"/>
</g>
</svg>
