<?xml version="1.0" encoding="utf-8"?>
<!-- Generator: Adobe Illustrator 25.2.2, SVG Export Plug-In . SVG Version: 6.00 Build 0)  -->
<svg version="1.1" id="Calque_1" xmlns="http://www.w3.org/2000/svg" xmlns:xlink="http://www.w3.org/1999/xlink" x="0px" y="0px"
	 viewBox="0 0 625.88 560" style="enable-background:new 0 0 625.88 560;" xml:space="preserve">
<style type="text/css">
	.st0{fill:url(#SVGID_1_);}
	.st1{fill:url(#SVGID_2_);}
	.st2{fill:url(#SVGID_3_);}
	.st3{fill:url(#SVGID_4_);}
	.st4{fill:url(#SVGID_5_);}
	.st5{fill:url(#SVGID_6_);}
	.st6{fill:url(#SVGID_7_);}
	.st7{fill:url(#SVGID_8_);}
	.st8{fill:url(#SVGID_9_);}
	.st9{fill:url(#SVGID_10_);}
	.st10{fill:url(#SVGID_11_);}
	.st11{fill:url(#SVGID_12_);}
	.st12{fill:url(#SVGID_13_);}
	.st13{fill:#1D71B8;}
	.st14{fill:#2FAC66;}
	.st15{fill:url(#SVGID_14_);}
	.st16{fill:#C4C4C4;}
	.st17{fill:#FFFFFF;}
	.st18{fill:#D3D3D3;}
	.st19{fill:#B7B7B7;}
	.st20{fill:url(#SVGID_15_);}
	.st21{fill:url(#SVGID_16_);}
	.st22{fill:url(#SVGID_17_);}
	.st23{fill:url(#SVGID_18_);}
	.st24{fill:url(#SVGID_19_);}
	.st25{fill:url(#SVGID_20_);}
	.st26{fill:url(#SVGID_21_);}
	.st27{fill:url(#SVGID_22_);}
	.st28{fill:url(#SVGID_23_);}
	.st29{fill:url(#SVGID_24_);}
	.st30{fill:url(#SVGID_25_);}
	.st31{fill:url(#SVGID_26_);}
	.st32{fill:url(#SVGID_27_);}
	.st33{fill:url(#SVGID_28_);}
	.st34{fill:url(#SVGID_29_);}
	.st35{clip-path:url(#SVGID_31_);fill:url(#SVGID_32_);}
	.st36{clip-path:url(#SVGID_34_);fill:url(#SVGID_35_);}
	.st37{clip-path:url(#SVGID_37_);fill:url(#SVGID_38_);}
	.st38{clip-path:url(#SVGID_40_);fill:url(#SVGID_41_);}
	.st39{clip-path:url(#SVGID_43_);fill:url(#SVGID_44_);}
	.st40{clip-path:url(#SVGID_46_);fill:url(#SVGID_47_);}
	.st41{clip-path:url(#SVGID_49_);fill:url(#SVGID_50_);}
	.st42{clip-path:url(#SVGID_52_);fill:url(#SVGID_53_);}
	.st43{clip-path:url(#SVGID_55_);fill:url(#SVGID_56_);}
	.st44{clip-path:url(#SVGID_58_);fill:url(#SVGID_59_);}
	.st45{clip-path:url(#SVGID_61_);fill:url(#SVGID_62_);}
	.st46{clip-path:url(#SVGID_64_);fill:url(#SVGID_65_);}
	.st47{clip-path:url(#SVGID_67_);fill:url(#SVGID_68_);}
	.st48{clip-path:url(#SVGID_70_);fill:url(#SVGID_71_);}
	.st49{clip-path:url(#SVGID_73_);fill:url(#SVGID_74_);}
	.st50{clip-path:url(#SVGID_76_);fill:url(#SVGID_77_);}
	.st51{clip-path:url(#SVGID_79_);fill:url(#SVGID_80_);}
	.st52{clip-path:url(#SVGID_82_);fill:url(#SVGID_83_);}
	.st53{clip-path:url(#SVGID_85_);fill:url(#SVGID_86_);}
	.st54{clip-path:url(#SVGID_88_);fill:url(#SVGID_89_);}
	.st55{clip-path:url(#SVGID_91_);fill:url(#SVGID_92_);}
	.st56{clip-path:url(#SVGID_94_);fill:url(#SVGID_95_);}
	.st57{clip-path:url(#SVGID_97_);fill:url(#SVGID_98_);}
	.st58{clip-path:url(#SVGID_100_);fill:url(#SVGID_101_);}
	.st59{clip-path:url(#SVGID_103_);fill:url(#SVGID_104_);}
	.st60{clip-path:url(#SVGID_106_);fill:url(#SVGID_107_);}
	.st61{clip-path:url(#SVGID_109_);fill:url(#SVGID_110_);}
	.st62{clip-path:url(#SVGID_109_);fill:#FFFFFF;}
	.st63{clip-path:url(#SVGID_112_);fill:url(#SVGID_113_);}
	.st64{clip-path:url(#SVGID_115_);fill:url(#SVGID_116_);}
	.st65{clip-path:url(#SVGID_118_);fill:url(#SVGID_119_);}
	.st66{clip-path:url(#SVGID_121_);fill:url(#SVGID_122_);}
	.st67{clip-path:url(#SVGID_124_);fill:url(#SVGID_125_);}
	.st68{clip-path:url(#SVGID_127_);fill:url(#SVGID_128_);}
	.st69{clip-path:url(#SVGID_130_);fill:url(#SVGID_131_);}
	.st70{clip-path:url(#SVGID_133_);fill:url(#SVGID_134_);}
	.st71{clip-path:url(#SVGID_136_);fill:url(#SVGID_137_);}
	.st72{clip-path:url(#SVGID_139_);fill:url(#SVGID_140_);}
	.st73{clip-path:url(#SVGID_142_);fill:url(#SVGID_143_);}
	.st74{clip-path:url(#SVGID_142_);fill:#FFFFFF;}
	.st75{clip-path:url(#SVGID_145_);fill:url(#SVGID_146_);}
	.st76{clip-path:url(#SVGID_148_);fill:url(#SVGID_149_);}
	.st77{fill:url(#SVGID_150_);}
	.st78{fill:url(#SVGID_151_);}
	.st79{clip-path:url(#SVGID_153_);fill:url(#SVGID_154_);}
	.st80{fill:url(#SVGID_155_);}
	.st81{fill:url(#SVGID_156_);}
	.st82{fill:url(#SVGID_157_);}
	.st83{clip-path:url(#SVGID_159_);fill:url(#SVGID_160_);}
	.st84{fill:url(#SVGID_161_);}
	.st85{clip-path:url(#SVGID_163_);fill:url(#SVGID_164_);}
	.st86{clip-path:url(#SVGID_166_);fill:url(#SVGID_167_);}
	.st87{clip-path:url(#SVGID_169_);fill:url(#SVGID_170_);}
	.st88{clip-path:url(#SVGID_172_);fill:url(#SVGID_173_);}
	.st89{clip-path:url(#SVGID_175_);fill:url(#SVGID_176_);}
	.st90{clip-path:url(#SVGID_178_);fill:url(#SVGID_179_);}
	.st91{clip-path:url(#SVGID_181_);fill:url(#SVGID_182_);}
	.st92{fill:url(#SVGID_183_);}
	.st93{fill:url(#SVGID_184_);}
	.st94{fill:url(#SVGID_185_);}
	.st95{clip-path:url(#SVGID_187_);fill:url(#SVGID_188_);}
	.st96{fill:url(#SVGID_189_);}
	.st97{clip-path:url(#SVGID_191_);fill:url(#SVGID_192_);}
	.st98{clip-path:url(#SVGID_194_);fill:url(#SVGID_195_);}
	.st99{clip-path:url(#SVGID_197_);fill:url(#SVGID_198_);}
	.st100{clip-path:url(#SVGID_200_);fill:url(#SVGID_201_);}
	.st101{clip-path:url(#SVGID_203_);fill:url(#SVGID_204_);}
	.st102{fill:#199194;}
	.st103{clip-path:url(#SVGID_206_);fill:url(#SVGID_207_);}
	.st104{clip-path:url(#SVGID_206_);fill:#C4C4C4;}
	.st105{fill:url(#SVGID_208_);}
	.st106{fill:#C4C4C4;stroke:#FFFFFF;stroke-width:2;stroke-miterlimit:10;}
	.st107{fill:url(#SVGID_209_);}
	.st108{fill:url(#SVGID_210_);}
	.st109{fill:url(#SVGID_211_);}
	.st110{fill:url(#SVGID_212_);}
	.st111{clip-path:url(#SVGID_214_);fill:url(#SVGID_215_);}
	.st112{clip-path:url(#SVGID_217_);fill:url(#SVGID_218_);}
	.st113{clip-path:url(#SVGID_220_);fill:url(#SVGID_221_);}
	.st114{clip-path:url(#SVGID_220_);fill:#C4C4C4;}
	.st115{clip-path:url(#SVGID_223_);fill:url(#SVGID_224_);}
	.st116{clip-path:url(#SVGID_223_);fill:#C4C4C4;}
</style>
<g>
	<path class="st17" d="M306.83,163.17c-64.76,0-117.25,52.49-117.25,117.24c0,64.76,52.49,117.25,117.25,117.25
		c64.75,0,117.25-52.49,117.25-117.25C424.08,215.67,371.59,163.17,306.83,163.17z M306.83,380.07c-27.52,0-52.43-11.16-70.46-29.19
		c-18.04-18.03-29.19-42.95-29.19-70.47c0-55.04,44.61-99.65,99.65-99.65c27.52,0,52.43,11.15,70.46,29.19
		c18.04,18.03,29.19,42.94,29.19,70.46C406.48,335.46,361.87,380.07,306.83,380.07z"/>
	<path class="st17" d="M353.54,271.06h-29.11h-6.96c-2.6-2.96-6.4-4.83-10.65-4.83c-7.83,0-14.19,6.36-14.19,14.19
		c0,2.93,0.89,5.65,2.41,7.91l-42.11,42.11l-0.01,0c-1.07,1.07-1.07,2.8,0,3.87c1.07,1.06,2.8,1.06,3.87,0c0,0,0,0,0,0l42.12-42.11
		c2.26,1.52,4.98,2.41,7.91,2.41c4.25,0,8.05-1.87,10.65-4.83h6.96h29.11c5.44,0,9.9-4.21,9.9-9.35
		C363.44,275.27,358.99,271.06,353.54,271.06z M314.54,287.45c-1.91,2.09-4.65,3.41-7.71,3.41c-1.89,0-3.66-0.51-5.19-1.39
		l4.57-4.57c1.36,0.19,2.79-0.23,3.83-1.27c1.77-1.78,1.77-4.65,0-6.43c-1.78-1.78-4.65-1.78-6.43,0c-1.04,1.04-1.46,2.47-1.27,3.83
		l-4.57,4.57c-0.88-1.53-1.39-3.3-1.39-5.19c0-5.77,4.68-10.44,10.45-10.44c3.06,0,5.79,1.32,7.71,3.41
		c1.7,1.86,2.74,4.32,2.74,7.03C317.28,283.13,316.23,285.6,314.54,287.45z"/>
	<g>
		<defs>
			<path id="SVGID_81_" d="M341.9,210.9l4.21-7.28c0.98-1.69,2.67-2.74,4.43-2.74c0.72,0,1.43,0.19,2.03,0.54
				c0.94,0.54,1.63,1.46,1.93,2.58c0.36,1.33,0.14,2.83-0.61,4.12l-4.19,7.27c-0.98,1.69-2.68,2.74-4.43,2.74
				c-0.72,0-1.42-0.19-2.03-0.54C341.09,216.36,340.49,213.36,341.9,210.9z M270.42,343.72c-0.61-0.35-1.31-0.54-2.04-0.54
				c-1.76,0-3.45,1.05-4.43,2.74l-4.2,7.27c-1.41,2.46-0.82,5.46,1.33,6.7c0.61,0.35,1.31,0.53,2.03,0.53
				c1.76,0,3.46-1.05,4.43-2.74l4.2-7.27C273.15,347.96,272.55,344.95,270.42,343.72z M373.75,246.34c0.97,0,1.95-0.27,2.82-0.77
				l7.28-4.2c2.45-1.42,3.44-4.32,2.2-6.46c-0.76-1.31-2.21-2.09-3.87-2.09c-0.97,0-1.95,0.27-2.83,0.78l-7.27,4.2
				c-1.13,0.65-2,1.65-2.44,2.8c-0.48,1.25-0.4,2.59,0.23,3.67C370.64,245.56,372.09,246.34,373.75,246.34z M239.89,314.97
				c-0.97,0-1.95,0.27-2.83,0.77l-7.27,4.2c-2.45,1.42-3.44,4.32-2.21,6.47c0.76,1.31,2.21,2.09,3.87,2.09
				c0.97,0,1.95-0.27,2.83-0.77l7.27-4.2c2.46-1.42,3.45-4.32,2.21-6.46C243,315.75,241.56,314.97,239.89,314.97z M383.85,319.94
				l-7.27-4.2c-0.88-0.51-1.85-0.77-2.83-0.77c-1.66,0-3.11,0.78-3.87,2.09c-0.62,1.08-0.7,2.41-0.23,3.67
				c0.44,1.15,1.3,2.14,2.44,2.79l7.27,4.2c0.88,0.51,1.86,0.78,2.83,0.78c1.67,0,3.11-0.78,3.87-2.09
				C387.3,324.26,386.31,321.36,383.85,319.94z M241.55,237.79l-7.27-4.2c-0.88-0.51-1.85-0.77-2.82-0.77
				c-1.67,0-3.12,0.78-3.88,2.1c-1.24,2.14-0.25,5.04,2.21,6.46l7.27,4.2c0.88,0.5,1.86,0.77,2.83,0.77c1.66,0,3.11-0.78,3.87-2.09
				c0.62-1.08,0.7-2.41,0.23-3.67C243.55,239.43,242.69,238.44,241.55,237.79z M349.69,345.92c-0.98-1.69-2.68-2.74-4.43-2.74
				c-0.72,0-1.43,0.19-2.03,0.54c-2.14,1.23-2.74,4.24-1.33,6.7l4.2,7.27c0.98,1.69,2.68,2.74,4.43,2.74c0.72,0,1.42-0.19,2.03-0.54
				c2.15-1.25,2.74-4.25,1.32-6.7L349.69,345.92z M263.95,215.39c0.97,1.69,2.67,2.74,4.43,2.74c0.72,0,1.42-0.19,2.03-0.54
				c2.14-1.24,2.74-4.24,1.32-6.7l-4.2-7.27c-0.98-1.69-2.67-2.74-4.43-2.74c-0.72,0-1.42,0.19-2.03,0.54
				c-2.15,1.24-2.74,4.24-1.33,6.7L263.95,215.39z M392.95,275.94h-17.41c-2.83,0-5.14,2.01-5.14,4.49c0,2.48,2.31,4.5,5.14,4.5
				h17.41c2.84,0,5.14-2.02,5.14-4.5C398.09,277.95,395.78,275.94,392.95,275.94z M306.91,344.01c-2.48,0-4.5,2.31-4.5,5.14v17.41
				c0,2.84,2.02,5.14,4.5,5.14c2.48,0,4.49-2.31,4.49-5.14v-17.41C311.4,346.32,309.39,344.01,306.91,344.01z M243.32,280.53
				c0-2.48-2.31-4.5-5.14-4.5h-17.41c-2.84,0-5.14,2.02-5.14,4.5c0,2.48,2.31,4.49,5.14,4.49h17.41
				C241.02,285.02,243.32,283.01,243.32,280.53z M314.37,259.59v-58.2c0-4.16-3.37-7.53-7.53-7.53c-4.16,0-7.53,3.38-7.53,7.53
				v58.21c2.36-0.86,4.89-1.35,7.53-1.35C309.43,258.25,311.97,258.72,314.37,259.59z"/>
		</defs>
		<clipPath id="SVGID_1_">
			<use xlink:href="#SVGID_81_"  style="overflow:visible;"/>
		</clipPath>
		<linearGradient id="SVGID_2_" gradientUnits="userSpaceOnUse" x1="72.0043" y1="280" x2="545.9177" y2="280">
			<stop  offset="0.3438" style="stop-color:#2FAC66"/>
			<stop  offset="0.5653" style="stop-color:#1B9894"/>
			<stop  offset="0.7718" style="stop-color:#1584AD"/>
			<stop  offset="0.9218" style="stop-color:#1B76B6"/>
			<stop  offset="1" style="stop-color:#1D71B8"/>
		</linearGradient>
		<circle style="clip-path:url(#SVGID_1_);fill:url(#SVGID_2_);" cx="308.96" cy="280" r="236.96"/>
	</g>
	<g>
		<defs>
			<path id="SVGID_84_" d="M308.2,162.75c-64.76,0-117.25,52.49-117.25,117.24c0,64.76,52.49,117.25,117.25,117.25
				c64.75,0,117.25-52.49,117.25-117.25C425.44,215.25,372.95,162.75,308.2,162.75z M308.2,379.65c-27.52,0-52.43-11.16-70.46-29.19
				c-18.04-18.03-29.19-42.95-29.19-70.47c0-55.04,44.61-99.65,99.65-99.65c27.52,0,52.43,11.15,70.46,29.19
				c18.04,18.03,29.19,42.94,29.19,70.46C407.85,335.04,363.24,379.65,308.2,379.65z"/>
		</defs>
		<clipPath id="SVGID_3_">
			<use xlink:href="#SVGID_84_"  style="overflow:visible;"/>
		</clipPath>
		<linearGradient id="SVGID_4_" gradientUnits="userSpaceOnUse" x1="73.3679" y1="279.5818" x2="547.2812" y2="279.5818">
			<stop  offset="0.3438" style="stop-color:#2FAC66"/>
			<stop  offset="0.5653" style="stop-color:#1B9894"/>
			<stop  offset="0.7718" style="stop-color:#1584AD"/>
			<stop  offset="0.9218" style="stop-color:#1B76B6"/>
			<stop  offset="1" style="stop-color:#1D71B8"/>
		</linearGradient>
		<circle style="clip-path:url(#SVGID_3_);fill:url(#SVGID_4_);" cx="310.32" cy="279.58" r="236.96"/>
	</g>
	<g>
		<defs>
			<path id="SVGID_87_" d="M353.54,271.06h-29.11h-6.96c-2.6-2.96-6.4-4.83-10.65-4.83c-7.83,0-14.19,6.36-14.19,14.19
				c0,2.93,0.89,5.65,2.41,7.91l-42.11,42.11l-0.01,0c-1.07,1.07-1.07,2.8,0,3.87c1.07,1.06,2.8,1.06,3.87,0c0,0,0,0,0,0
				l42.12-42.11c2.26,1.52,4.98,2.41,7.91,2.41c4.25,0,8.05-1.87,10.65-4.83h6.96h29.11c5.44,0,9.9-4.21,9.9-9.35
				C363.44,275.27,358.99,271.06,353.54,271.06z M314.54,287.45c-1.91,2.09-4.65,3.41-7.71,3.41c-1.89,0-3.66-0.51-5.19-1.39
				l4.57-4.57c1.36,0.19,2.79-0.23,3.83-1.27c1.77-1.78,1.77-4.65,0-6.43c-1.78-1.78-4.65-1.78-6.43,0
				c-1.04,1.04-1.46,2.47-1.27,3.83l-4.57,4.57c-0.88-1.53-1.39-3.3-1.39-5.19c0-5.77,4.68-10.44,10.45-10.44
				c3.06,0,5.79,1.32,7.71,3.41c1.7,1.86,2.74,4.32,2.74,7.03C317.28,283.13,316.23,285.6,314.54,287.45z"/>
		</defs>
		<clipPath id="SVGID_5_">
			<use xlink:href="#SVGID_87_"  style="overflow:visible;"/>
		</clipPath>
		<linearGradient id="SVGID_6_" gradientUnits="userSpaceOnUse" x1="72.0043" y1="280" x2="545.9177" y2="280">
			<stop  offset="0.3438" style="stop-color:#2FAC66"/>
			<stop  offset="0.5653" style="stop-color:#1B9894"/>
			<stop  offset="0.7718" style="stop-color:#1584AD"/>
			<stop  offset="0.9218" style="stop-color:#1B76B6"/>
			<stop  offset="1" style="stop-color:#1D71B8"/>
		</linearGradient>
		<circle style="clip-path:url(#SVGID_5_);fill:url(#SVGID_6_);" cx="308.96" cy="280" r="236.96"/>
	</g>
</g>
</svg>
