<?xml version="1.0" encoding="utf-8"?>
<!-- Generator: Adobe Illustrator 25.2.2, SVG Export Plug-In . SVG Version: 6.00 Build 0)  -->
<svg version="1.1" id="Calque_1" xmlns="http://www.w3.org/2000/svg" xmlns:xlink="http://www.w3.org/1999/xlink" x="0px" y="0px"
	 viewBox="0 0 625.88 560" style="enable-background:new 0 0 625.88 560;" xml:space="preserve">
<style type="text/css">
	.st0{fill:url(#SVGID_1_);}
	.st1{fill:url(#SVGID_2_);}
	.st2{fill:url(#SVGID_3_);}
	.st3{fill:url(#SVGID_4_);}
	.st4{fill:url(#SVGID_5_);}
	.st5{fill:url(#SVGID_6_);}
	.st6{fill:url(#SVGID_7_);}
	.st7{fill:url(#SVGID_8_);}
	.st8{fill:url(#SVGID_9_);}
	.st9{fill:url(#SVGID_10_);}
	.st10{fill:url(#SVGID_11_);}
	.st11{fill:url(#SVGID_12_);}
	.st12{fill:url(#SVGID_13_);}
	.st13{fill:#1D71B8;}
	.st14{fill:#2FAC66;}
	.st15{fill:url(#SVGID_14_);}
	.st16{fill:#C4C4C4;}
	.st17{fill:#FFFFFF;}
	.st18{fill:#D3D3D3;}
	.st19{fill:#B7B7B7;}
	.st20{fill:url(#SVGID_15_);}
	.st21{fill:url(#SVGID_16_);}
	.st22{fill:url(#SVGID_17_);}
	.st23{fill:url(#SVGID_18_);}
	.st24{fill:url(#SVGID_19_);}
	.st25{fill:url(#SVGID_20_);}
	.st26{fill:url(#SVGID_21_);}
	.st27{fill:url(#SVGID_22_);}
	.st28{fill:url(#SVGID_23_);}
	.st29{fill:url(#SVGID_24_);}
	.st30{fill:url(#SVGID_25_);}
	.st31{fill:url(#SVGID_26_);}
	.st32{fill:url(#SVGID_27_);}
	.st33{fill:url(#SVGID_28_);}
	.st34{fill:url(#SVGID_29_);}
	.st35{clip-path:url(#SVGID_31_);fill:url(#SVGID_32_);}
	.st36{clip-path:url(#SVGID_34_);fill:url(#SVGID_35_);}
	.st37{clip-path:url(#SVGID_37_);fill:url(#SVGID_38_);}
	.st38{clip-path:url(#SVGID_40_);fill:url(#SVGID_41_);}
	.st39{clip-path:url(#SVGID_43_);fill:url(#SVGID_44_);}
	.st40{clip-path:url(#SVGID_46_);fill:url(#SVGID_47_);}
	.st41{clip-path:url(#SVGID_49_);fill:url(#SVGID_50_);}
	.st42{clip-path:url(#SVGID_52_);fill:url(#SVGID_53_);}
	.st43{clip-path:url(#SVGID_55_);fill:url(#SVGID_56_);}
	.st44{clip-path:url(#SVGID_58_);fill:url(#SVGID_59_);}
	.st45{clip-path:url(#SVGID_61_);fill:url(#SVGID_62_);}
	.st46{clip-path:url(#SVGID_64_);fill:url(#SVGID_65_);}
	.st47{clip-path:url(#SVGID_67_);fill:url(#SVGID_68_);}
	.st48{clip-path:url(#SVGID_70_);fill:url(#SVGID_71_);}
	.st49{clip-path:url(#SVGID_73_);fill:url(#SVGID_74_);}
	.st50{clip-path:url(#SVGID_76_);fill:url(#SVGID_77_);}
	.st51{clip-path:url(#SVGID_79_);fill:url(#SVGID_80_);}
	.st52{clip-path:url(#SVGID_82_);fill:url(#SVGID_83_);}
	.st53{clip-path:url(#SVGID_85_);fill:url(#SVGID_86_);}
	.st54{clip-path:url(#SVGID_88_);fill:url(#SVGID_89_);}
	.st55{clip-path:url(#SVGID_91_);fill:url(#SVGID_92_);}
	.st56{clip-path:url(#SVGID_94_);fill:url(#SVGID_95_);}
	.st57{clip-path:url(#SVGID_97_);fill:url(#SVGID_98_);}
	.st58{clip-path:url(#SVGID_100_);fill:url(#SVGID_101_);}
	.st59{clip-path:url(#SVGID_103_);fill:url(#SVGID_104_);}
	.st60{clip-path:url(#SVGID_106_);fill:url(#SVGID_107_);}
	.st61{clip-path:url(#SVGID_109_);fill:url(#SVGID_110_);}
	.st62{clip-path:url(#SVGID_109_);fill:#FFFFFF;}
	.st63{clip-path:url(#SVGID_112_);fill:url(#SVGID_113_);}
	.st64{clip-path:url(#SVGID_115_);fill:url(#SVGID_116_);}
	.st65{clip-path:url(#SVGID_118_);fill:url(#SVGID_119_);}
	.st66{clip-path:url(#SVGID_121_);fill:url(#SVGID_122_);}
	.st67{clip-path:url(#SVGID_124_);fill:url(#SVGID_125_);}
	.st68{clip-path:url(#SVGID_127_);fill:url(#SVGID_128_);}
	.st69{clip-path:url(#SVGID_130_);fill:url(#SVGID_131_);}
	.st70{clip-path:url(#SVGID_133_);fill:url(#SVGID_134_);}
	.st71{clip-path:url(#SVGID_136_);fill:url(#SVGID_137_);}
	.st72{clip-path:url(#SVGID_139_);fill:url(#SVGID_140_);}
	.st73{clip-path:url(#SVGID_142_);fill:url(#SVGID_143_);}
	.st74{clip-path:url(#SVGID_142_);fill:#FFFFFF;}
	.st75{clip-path:url(#SVGID_145_);fill:url(#SVGID_146_);}
	.st76{clip-path:url(#SVGID_148_);fill:url(#SVGID_149_);}
	.st77{fill:url(#SVGID_150_);}
	.st78{fill:url(#SVGID_151_);}
	.st79{clip-path:url(#SVGID_153_);fill:url(#SVGID_154_);}
	.st80{fill:url(#SVGID_155_);}
	.st81{fill:url(#SVGID_156_);}
	.st82{fill:url(#SVGID_157_);}
	.st83{clip-path:url(#SVGID_159_);fill:url(#SVGID_160_);}
	.st84{fill:url(#SVGID_161_);}
	.st85{clip-path:url(#SVGID_163_);fill:url(#SVGID_164_);}
	.st86{clip-path:url(#SVGID_166_);fill:url(#SVGID_167_);}
	.st87{clip-path:url(#SVGID_169_);fill:url(#SVGID_170_);}
	.st88{clip-path:url(#SVGID_172_);fill:url(#SVGID_173_);}
	.st89{clip-path:url(#SVGID_175_);fill:url(#SVGID_176_);}
	.st90{clip-path:url(#SVGID_178_);fill:url(#SVGID_179_);}
	.st91{clip-path:url(#SVGID_181_);fill:url(#SVGID_182_);}
	.st92{fill:url(#SVGID_183_);}
	.st93{fill:url(#SVGID_184_);}
	.st94{fill:url(#SVGID_185_);}
	.st95{clip-path:url(#SVGID_187_);fill:url(#SVGID_188_);}
	.st96{fill:url(#SVGID_189_);}
	.st97{clip-path:url(#SVGID_191_);fill:url(#SVGID_192_);}
	.st98{clip-path:url(#SVGID_194_);fill:url(#SVGID_195_);}
	.st99{clip-path:url(#SVGID_197_);fill:url(#SVGID_198_);}
	.st100{clip-path:url(#SVGID_200_);fill:url(#SVGID_201_);}
	.st101{clip-path:url(#SVGID_203_);fill:url(#SVGID_204_);}
	.st102{fill:#199194;}
	.st103{clip-path:url(#SVGID_206_);fill:url(#SVGID_207_);}
	.st104{clip-path:url(#SVGID_206_);fill:#C4C4C4;}
	.st105{fill:url(#SVGID_208_);}
	.st106{fill:#C4C4C4;stroke:#FFFFFF;stroke-width:2;stroke-miterlimit:10;}
	.st107{fill:url(#SVGID_209_);}
	.st108{fill:url(#SVGID_210_);}
	.st109{fill:url(#SVGID_211_);}
	.st110{fill:url(#SVGID_212_);}
	.st111{clip-path:url(#SVGID_214_);fill:url(#SVGID_215_);}
	.st112{clip-path:url(#SVGID_217_);fill:url(#SVGID_218_);}
	.st113{clip-path:url(#SVGID_220_);fill:url(#SVGID_221_);}
	.st114{clip-path:url(#SVGID_220_);fill:#C4C4C4;}
	.st115{clip-path:url(#SVGID_223_);fill:url(#SVGID_224_);}
	.st116{clip-path:url(#SVGID_223_);fill:#C4C4C4;}
</style>
<g>
	<g>
		<defs>
			<path id="SVGID_36_" d="M403.73,382.04c-17.67,16.18-37.9,28.2-56.96,33.85c-7.93,2.35-15.47,3.54-22.42,3.54h0
				c-9.85,0-18.1-2.34-24.52-6.95l-0.38-0.27l-0.37-0.31l-0.07-0.02c-5.25-3.87-9.22-9.11-11.49-15.17c-0.42-1.1-0.78-2.24-1.08-3.4
				c-0.69-2.69-0.8-4.6-0.81-5.12c-0.09-4.14,2.9-8.54,6.8-10.01l44.38-16.66c1.04-0.39,2.19-0.59,3.4-0.59
				c3.23,0,6.42,1.41,8.32,3.67c0.24,0.29,2.42,2.98,4.18,7.64c0.7,1.86,1.22,3.76,1.57,5.66l0.78,4.31l3.62-2.46
				c8.42-5.72,16.79-12.37,24.88-19.77c8.06-7.38,15.41-15.14,21.87-23.05l2.75-3.38l-4.2-1.16c-1.87-0.52-3.72-1.22-5.49-2.07
				c-4.72-2.25-7.21-4.77-7.23-4.79c-1.24-1.24-2.14-2.87-2.61-4.73c-0.64-2.52-0.44-5.16,0.55-7.24l20.48-42.75
				c1.65-3.44,5.7-5.94,9.62-5.94c0.32,0,0.64,0.02,0.95,0.05c0.12,0.01,3.61,0.38,8.31,2.62c5.94,2.85,10.88,7.37,14.28,13.08
				l0.37,0.63c1.6,2.71,2.82,5.71,3.65,8.94C453.35,315.56,436.02,352.47,403.73,382.04z M408.93,231.25l-5.31,13.45
				c-0.99,2.5,0.25,5.36,2.76,6.35l1.74,0.69c2.5,0.99,5.36-0.25,6.35-2.76l5.31-13.45c0.99-2.51-0.25-5.36-2.76-6.35l-1.74-0.69
				C412.77,227.5,409.92,228.74,408.93,231.25z M397.24,233.39l1.73,0.69c2.51,0.99,5.37-0.25,6.35-2.76l5.31-13.45
				c0.99-2.51-0.25-5.36-2.76-6.35l-1.74-0.69c-2.51-0.99-5.37,0.25-6.35,2.76l-5.31,13.45C393.5,229.54,394.74,232.4,397.24,233.39
				z M388.73,218.98l1.86,0.13c2.69,0.18,5.03-1.87,5.22-4.55l0.98-14.43c0.18-2.69-1.87-5.03-4.55-5.22l-1.86-0.12
				c-2.69-0.18-5.04,1.86-5.22,4.55l-0.98,14.43C383.99,216.46,386.04,218.8,388.73,218.98z M374.67,204.93l1.86,0.13
				c2.69,0.18,5.04-1.87,5.22-4.55l0.98-14.42c0.18-2.69-1.87-5.03-4.56-5.22l-1.86-0.13c-2.69-0.18-5.04,1.87-5.22,4.55
				l-0.98,14.42C369.93,202.4,371.98,204.74,374.67,204.93z M355.44,191.31c0.64,2.62,3.31,4.23,5.92,3.59l1.81-0.44
				c2.62-0.64,4.23-3.31,3.59-5.92l-3.44-14.04c-0.64-2.62-3.31-4.23-5.92-3.59l-1.81,0.44c-2.61,0.64-4.23,3.3-3.59,5.92
				L355.44,191.31z M339.09,182.92c1.05,2.48,3.93,3.66,6.41,2.61l1.72-0.73c2.48-1.05,3.66-3.93,2.61-6.42l-5.62-13.32
				c-1.05-2.48-3.93-3.66-6.42-2.61l-1.72,0.73c-2.48,1.04-3.66,3.93-2.61,6.41L339.09,182.92z M320.91,180.04
				c1.43,2.28,4.46,2.99,6.75,1.57l1.58-0.99c2.29-1.43,2.99-4.46,1.56-6.75l-7.65-12.27c-1.43-2.29-4.46-2.99-6.75-1.56l-1.58,0.99
				c-2.29,1.42-2.99,4.46-1.56,6.74L320.91,180.04z M304.24,177.92c2.07,1.72,5.17,1.43,6.9-0.64l1.19-1.43
				c1.72-2.07,1.44-5.17-0.64-6.9l-11.12-9.24c-2.07-1.72-5.17-1.43-6.9,0.64l-1.19,1.43c-1.72,2.07-1.44,5.17,0.64,6.9
				L304.24,177.92z M284.61,181.08c2.07,1.72,5.18,1.43,6.9-0.64l1.19-1.44c1.72-2.07,1.43-5.18-0.64-6.9l-11.12-9.24
				c-2.07-1.72-5.17-1.44-6.9,0.64l-1.19,1.44c-1.72,2.07-1.43,5.18,0.64,6.9L284.61,181.08z M254.93,179.87l13.45,5.31
				c2.5,0.99,5.36-0.25,6.35-2.76l0.69-1.73c0.99-2.51-0.25-5.37-2.76-6.36l-13.45-5.31c-2.5-0.99-5.36,0.25-6.35,2.76l-0.69,1.73
				C251.18,176.02,252.42,178.88,254.93,179.87z M255,183.47l-13.45-5.31c-2.51-0.99-5.36,0.25-6.35,2.76l-0.68,1.74
				c-0.99,2.5,0.25,5.36,2.76,6.35l13.45,5.31c2.51,0.99,5.37-0.25,6.35-2.76l0.68-1.74C258.74,187.32,257.5,184.46,255,183.47z
				 M222.81,203.35l14.43,0.98c2.69,0.18,5.03-1.87,5.22-4.55l0.13-1.86c0.18-2.69-1.87-5.04-4.55-5.22l-14.43-0.98
				c-2.69-0.18-5.03,1.87-5.22,4.55l-0.13,1.86C218.07,200.82,220.12,203.17,222.81,203.35z M208.75,217.41l14.42,0.98
				c2.69,0.18,5.03-1.87,5.22-4.55l0.12-1.86c0.18-2.69-1.87-5.03-4.55-5.22l-14.42-0.98c-2.69-0.18-5.04,1.87-5.22,4.55l-0.13,1.86
				C204.01,214.88,206.06,217.22,208.75,217.41z M194.51,232.69c0.64,2.62,3.31,4.23,5.92,3.59l14.04-3.44
				c2.62-0.64,4.23-3.31,3.59-5.92l-0.44-1.81c-0.64-2.62-3.31-4.23-5.92-3.59l-14.04,3.44c-2.62,0.64-4.23,3.3-3.59,5.92
				L194.51,232.69z M185.38,250.35c0.64,2.62,3.31,4.23,5.92,3.59l14.04-3.44c2.62-0.64,4.23-3.3,3.59-5.92l-0.44-1.81
				c-0.64-2.62-3.31-4.23-5.92-3.59l-14.04,3.44c-2.62,0.64-4.23,3.31-3.59,5.92L185.38,250.35z M183.83,273.34
				c1.43,2.28,4.46,2.99,6.75,1.56l12.27-7.65c2.28-1.43,2.99-4.46,1.56-6.75l-0.99-1.58c-1.43-2.28-4.46-2.99-6.75-1.56
				l-12.27,7.65c-2.29,1.43-2.99,4.46-1.56,6.75L183.83,273.34z M191.09,295.05l9.24-11.12c1.72-2.07,1.43-5.18-0.64-6.9l-1.43-1.19
				c-2.07-1.72-5.18-1.44-6.9,0.64l-9.24,11.12c-1.72,2.07-1.43,5.17,0.64,6.9l1.43,1.19C186.27,297.41,189.37,297.12,191.09,295.05
				z M194.26,314.67l9.24-11.12c1.72-2.07,1.43-5.18-0.64-6.9l-1.43-1.19c-2.07-1.72-5.17-1.43-6.9,0.64l-9.24,11.12
				c-1.72,2.07-1.44,5.18,0.64,6.9l1.43,1.19C189.43,317.03,192.54,316.74,194.26,314.67z M201.93,333.35l5.31-13.45
				c0.99-2.5-0.25-5.36-2.76-6.35l-1.73-0.69c-2.51-0.99-5.37,0.25-6.36,2.76l-5.31,13.45c-0.99,2.5,0.25,5.36,2.76,6.35l1.74,0.69
				C198.08,337.1,200.94,335.86,201.93,333.35z M213.61,331.21l-1.74-0.68c-2.5-0.99-5.36,0.25-6.35,2.76l-5.31,13.45
				c-0.99,2.51,0.25,5.36,2.75,6.35l1.74,0.68c2.5,0.99,5.36-0.25,6.35-2.76l5.31-13.45C217.36,335.06,216.12,332.2,213.61,331.21z
				 M221.53,346.05l-1.86-0.13c-2.69-0.18-5.04,1.87-5.22,4.55l-0.98,14.43c-0.18,2.69,1.86,5.03,4.55,5.22l1.86,0.13
				c2.69,0.18,5.03-1.87,5.22-4.55l0.98-14.42C226.27,348.58,224.22,346.24,221.53,346.05z M235.59,360.11l-1.86-0.13
				c-2.68-0.18-5.03,1.87-5.22,4.55l-0.98,14.42c-0.18,2.69,1.87,5.04,4.55,5.22l1.86,0.13c2.69,0.18,5.03-1.87,5.22-4.55
				l0.98-14.42C240.32,362.64,238.27,360.29,235.59,360.11z M254.37,374.32c-0.64-2.62-3.3-4.23-5.92-3.59l-1.81,0.44
				c-2.62,0.64-4.23,3.3-3.59,5.92l3.44,14.04c0.64,2.62,3.31,4.23,5.92,3.59l1.81-0.44c2.62-0.64,4.23-3.3,3.59-5.92L254.37,374.32
				z M272.03,383.46c-0.64-2.62-3.31-4.23-5.92-3.59l-1.81,0.44c-2.62,0.64-4.23,3.3-3.59,5.92l3.44,14.04
				c0.64,2.62,3.31,4.23,5.92,3.59l1.81-0.44c2.62-0.64,4.23-3.31,3.59-5.92L272.03,383.46z"/>
		</defs>
		<clipPath id="SVGID_1_">
			<use xlink:href="#SVGID_36_"  style="overflow:visible;"/>
		</clipPath>
		<linearGradient id="SVGID_2_" gradientUnits="userSpaceOnUse" x1="74.2471" y1="283.0681" x2="548.1605" y2="283.0681">
			<stop  offset="0.3438" style="stop-color:#2FAC66"/>
			<stop  offset="0.5653" style="stop-color:#1B9894"/>
			<stop  offset="0.7718" style="stop-color:#1584AD"/>
			<stop  offset="0.9218" style="stop-color:#1B76B6"/>
			<stop  offset="1" style="stop-color:#1D71B8"/>
		</linearGradient>
		<circle style="clip-path:url(#SVGID_1_);fill:url(#SVGID_2_);" cx="311.2" cy="283.07" r="236.96"/>
	</g>
	<g>
		<defs>
			<path id="SVGID_39_" d="M245.18,295.14c-6.16,6.63-7.86,9.76-7.86,13.26c0,0.47,0,0.95,0.09,1.42h19.7v9.47h-30.13v-8.15
				c0-7.39,2.65-12.98,10.42-21.13c7.96-8.43,10.23-13.64,10.23-20.75c0-5.97-2.08-7.58-5.4-7.58c-3.32,0-5.4,1.8-5.4,6.54v7.1
				h-9.85v-6.44c0-10.61,5.31-16.67,15.54-16.67s15.54,6.06,15.54,16.67C258.06,277.71,254.84,284.81,245.18,295.14z M304.16,319.3
				h9l26.15-66.31h-9L304.16,319.3z M362.47,319.3l15.35-57.22v-9.09h-31.26v9.47h20.75l-15.25,56.84H362.47z"/>
		</defs>
		<clipPath id="SVGID_3_">
			<use xlink:href="#SVGID_39_"  style="overflow:visible;"/>
		</clipPath>
		<linearGradient id="SVGID_4_" gradientUnits="userSpaceOnUse" x1="75.642" y1="283.0681" x2="549.5555" y2="283.0681">
			<stop  offset="0.3438" style="stop-color:#2FAC66"/>
			<stop  offset="0.5653" style="stop-color:#1B9894"/>
			<stop  offset="0.7718" style="stop-color:#1584AD"/>
			<stop  offset="0.9218" style="stop-color:#1B76B6"/>
			<stop  offset="1" style="stop-color:#1D71B8"/>
		</linearGradient>
		<circle style="clip-path:url(#SVGID_3_);fill:url(#SVGID_4_);" cx="312.6" cy="283.07" r="236.96"/>
	</g>
	<g>
		<defs>
			<path id="SVGID_42_" d="M290.41,318.92v-12.03h4.93v-9.47h-4.93V252.6h-11.37l-18.95,44.81v9.47h19.89v12.03H290.41z
				 M269.66,297.41l10.14-24.54h0.19v24.54H269.66z"/>
		</defs>
		<clipPath id="SVGID_5_">
			<use xlink:href="#SVGID_42_"  style="overflow:visible;"/>
		</clipPath>
		<linearGradient id="SVGID_6_" gradientUnits="userSpaceOnUse" x1="73.6985" y1="282.6888" x2="547.6119" y2="282.6888">
			<stop  offset="0.3438" style="stop-color:#2FAC66"/>
			<stop  offset="0.5653" style="stop-color:#1B9894"/>
			<stop  offset="0.7718" style="stop-color:#1584AD"/>
			<stop  offset="0.9218" style="stop-color:#1B76B6"/>
			<stop  offset="1" style="stop-color:#1D71B8"/>
		</linearGradient>
		<circle style="clip-path:url(#SVGID_5_);fill:url(#SVGID_6_);" cx="310.66" cy="282.69" r="236.96"/>
	</g>
</g>
</svg>
