<?xml version="1.0" encoding="utf-8"?>
<!-- Generator: Adobe Illustrator 25.2.2, SVG Export Plug-In . SVG Version: 6.00 Build 0)  -->
<svg version="1.1" id="Calque_1" xmlns="http://www.w3.org/2000/svg" xmlns:xlink="http://www.w3.org/1999/xlink" x="0px" y="0px"
	 viewBox="0 0 625.88 560" style="enable-background:new 0 0 625.88 560;" xml:space="preserve">
<style type="text/css">
	.st0{fill:url(#SVGID_1_);}
	.st1{fill:url(#SVGID_2_);}
	.st2{fill:url(#SVGID_3_);}
	.st3{fill:url(#SVGID_4_);}
	.st4{fill:url(#SVGID_5_);}
	.st5{fill:url(#SVGID_6_);}
	.st6{fill:url(#SVGID_7_);}
	.st7{fill:url(#SVGID_8_);}
	.st8{fill:url(#SVGID_9_);}
	.st9{fill:url(#SVGID_10_);}
	.st10{fill:url(#SVGID_11_);}
	.st11{fill:url(#SVGID_12_);}
	.st12{fill:url(#SVGID_13_);}
	.st13{fill:#1D71B8;}
	.st14{fill:#2FAC66;}
	.st15{fill:url(#SVGID_14_);}
	.st16{fill:#C4C4C4;}
	.st17{fill:#FFFFFF;}
	.st18{fill:#D3D3D3;}
	.st19{fill:#B7B7B7;}
	.st20{fill:url(#SVGID_15_);}
	.st21{fill:url(#SVGID_16_);}
	.st22{fill:url(#SVGID_17_);}
	.st23{fill:url(#SVGID_18_);}
	.st24{fill:url(#SVGID_19_);}
	.st25{fill:url(#SVGID_20_);}
	.st26{fill:url(#SVGID_21_);}
	.st27{fill:url(#SVGID_22_);}
	.st28{fill:url(#SVGID_23_);}
	.st29{fill:url(#SVGID_24_);}
	.st30{fill:url(#SVGID_25_);}
	.st31{fill:url(#SVGID_26_);}
	.st32{fill:url(#SVGID_27_);}
	.st33{fill:url(#SVGID_28_);}
	.st34{fill:url(#SVGID_29_);}
	.st35{clip-path:url(#SVGID_31_);fill:url(#SVGID_32_);}
	.st36{clip-path:url(#SVGID_34_);fill:url(#SVGID_35_);}
	.st37{clip-path:url(#SVGID_37_);fill:url(#SVGID_38_);}
	.st38{clip-path:url(#SVGID_40_);fill:url(#SVGID_41_);}
	.st39{clip-path:url(#SVGID_43_);fill:url(#SVGID_44_);}
	.st40{clip-path:url(#SVGID_46_);fill:url(#SVGID_47_);}
	.st41{clip-path:url(#SVGID_49_);fill:url(#SVGID_50_);}
	.st42{clip-path:url(#SVGID_52_);fill:url(#SVGID_53_);}
	.st43{clip-path:url(#SVGID_55_);fill:url(#SVGID_56_);}
	.st44{clip-path:url(#SVGID_58_);fill:url(#SVGID_59_);}
	.st45{clip-path:url(#SVGID_61_);fill:url(#SVGID_62_);}
	.st46{clip-path:url(#SVGID_64_);fill:url(#SVGID_65_);}
	.st47{clip-path:url(#SVGID_67_);fill:url(#SVGID_68_);}
	.st48{clip-path:url(#SVGID_70_);fill:url(#SVGID_71_);}
	.st49{clip-path:url(#SVGID_73_);fill:url(#SVGID_74_);}
	.st50{clip-path:url(#SVGID_76_);fill:url(#SVGID_77_);}
	.st51{clip-path:url(#SVGID_79_);fill:url(#SVGID_80_);}
	.st52{clip-path:url(#SVGID_82_);fill:url(#SVGID_83_);}
	.st53{clip-path:url(#SVGID_85_);fill:url(#SVGID_86_);}
	.st54{clip-path:url(#SVGID_88_);fill:url(#SVGID_89_);}
	.st55{clip-path:url(#SVGID_91_);fill:url(#SVGID_92_);}
	.st56{clip-path:url(#SVGID_94_);fill:url(#SVGID_95_);}
	.st57{clip-path:url(#SVGID_97_);fill:url(#SVGID_98_);}
	.st58{clip-path:url(#SVGID_100_);fill:url(#SVGID_101_);}
	.st59{clip-path:url(#SVGID_103_);fill:url(#SVGID_104_);}
	.st60{clip-path:url(#SVGID_106_);fill:url(#SVGID_107_);}
	.st61{clip-path:url(#SVGID_109_);fill:url(#SVGID_110_);}
	.st62{clip-path:url(#SVGID_109_);fill:#FFFFFF;}
	.st63{clip-path:url(#SVGID_112_);fill:url(#SVGID_113_);}
	.st64{clip-path:url(#SVGID_115_);fill:url(#SVGID_116_);}
	.st65{clip-path:url(#SVGID_118_);fill:url(#SVGID_119_);}
	.st66{clip-path:url(#SVGID_121_);fill:url(#SVGID_122_);}
	.st67{clip-path:url(#SVGID_124_);fill:url(#SVGID_125_);}
	.st68{clip-path:url(#SVGID_127_);fill:url(#SVGID_128_);}
	.st69{clip-path:url(#SVGID_130_);fill:url(#SVGID_131_);}
	.st70{clip-path:url(#SVGID_133_);fill:url(#SVGID_134_);}
	.st71{clip-path:url(#SVGID_136_);fill:url(#SVGID_137_);}
	.st72{clip-path:url(#SVGID_139_);fill:url(#SVGID_140_);}
	.st73{clip-path:url(#SVGID_142_);fill:url(#SVGID_143_);}
	.st74{clip-path:url(#SVGID_142_);fill:#FFFFFF;}
	.st75{clip-path:url(#SVGID_145_);fill:url(#SVGID_146_);}
	.st76{clip-path:url(#SVGID_148_);fill:url(#SVGID_149_);}
	.st77{fill:url(#SVGID_150_);}
	.st78{fill:url(#SVGID_151_);}
	.st79{clip-path:url(#SVGID_153_);fill:url(#SVGID_154_);}
	.st80{fill:url(#SVGID_155_);}
	.st81{fill:url(#SVGID_156_);}
	.st82{fill:url(#SVGID_157_);}
	.st83{clip-path:url(#SVGID_159_);fill:url(#SVGID_160_);}
	.st84{fill:url(#SVGID_161_);}
	.st85{clip-path:url(#SVGID_163_);fill:url(#SVGID_164_);}
	.st86{clip-path:url(#SVGID_166_);fill:url(#SVGID_167_);}
	.st87{clip-path:url(#SVGID_169_);fill:url(#SVGID_170_);}
	.st88{clip-path:url(#SVGID_172_);fill:url(#SVGID_173_);}
	.st89{clip-path:url(#SVGID_175_);fill:url(#SVGID_176_);}
	.st90{clip-path:url(#SVGID_178_);fill:url(#SVGID_179_);}
	.st91{clip-path:url(#SVGID_181_);fill:url(#SVGID_182_);}
	.st92{fill:url(#SVGID_183_);}
	.st93{fill:url(#SVGID_184_);}
	.st94{fill:url(#SVGID_185_);}
	.st95{clip-path:url(#SVGID_187_);fill:url(#SVGID_188_);}
	.st96{fill:url(#SVGID_189_);}
	.st97{clip-path:url(#SVGID_191_);fill:url(#SVGID_192_);}
	.st98{clip-path:url(#SVGID_194_);fill:url(#SVGID_195_);}
	.st99{clip-path:url(#SVGID_197_);fill:url(#SVGID_198_);}
	.st100{clip-path:url(#SVGID_200_);fill:url(#SVGID_201_);}
	.st101{clip-path:url(#SVGID_203_);fill:url(#SVGID_204_);}
	.st102{fill:#199194;}
	.st103{clip-path:url(#SVGID_206_);fill:url(#SVGID_207_);}
	.st104{clip-path:url(#SVGID_206_);fill:#C4C4C4;}
	.st105{fill:url(#SVGID_208_);}
	.st106{fill:#C4C4C4;stroke:#FFFFFF;stroke-width:2;stroke-miterlimit:10;}
	.st107{fill:url(#SVGID_209_);}
	.st108{fill:url(#SVGID_210_);}
	.st109{fill:url(#SVGID_211_);}
	.st110{fill:url(#SVGID_212_);}
	.st111{clip-path:url(#SVGID_214_);fill:url(#SVGID_215_);}
	.st112{clip-path:url(#SVGID_217_);fill:url(#SVGID_218_);}
	.st113{clip-path:url(#SVGID_220_);fill:url(#SVGID_221_);}
	.st114{clip-path:url(#SVGID_220_);fill:#C4C4C4;}
	.st115{clip-path:url(#SVGID_223_);fill:url(#SVGID_224_);}
	.st116{clip-path:url(#SVGID_223_);fill:#C4C4C4;}
</style>
<path class="st17" d="M229.99,352.75c-3.85,0-6.97,3.12-6.97,6.97c0,3.85,3.12,6.97,6.97,6.97c3.85,0,6.97-3.12,6.97-6.97
	C236.96,355.87,233.84,352.75,229.99,352.75z"/>
<path class="st17" d="M229.99,334.78c-13.77,0-24.94,11.17-24.94,24.94c0,13.77,11.17,24.94,24.94,24.94
	c13.77,0,24.94-11.17,24.94-24.94C254.93,345.94,243.77,334.78,229.99,334.78z M229.99,375.93c-8.96,0-16.22-7.26-16.22-16.22
	c0-8.96,7.26-16.22,16.22-16.22c8.96,0,16.22,7.26,16.22,16.22C246.21,368.67,238.95,375.93,229.99,375.93z"/>
<path class="st17" d="M268.91,189.56v31.57h-14.07c-25.92,0-64.01,3.72-67.95,17.3h60.14c1.92,70.09-60.5,71.35-87.74,72.21
	c-8.22,6.92-7.38,11.08-7.46,19.03c7.36-0.41,106.28-0.04,117.08,0v10.81h118.37c6.04-8.54,15.99-14.13,27.26-14.13
	c11.26,0,21.21,5.58,27.26,14.13h14.91V189.56H268.91z M445.46,327.58c-8.24-7.92-19.31-12.47-30.92-12.47
	c-12.39,0-24.18,5.19-32.56,14.13H280.15V200.79h165.31V327.58z"/>
<path class="st17" d="M414.54,334.78c-13.77,0-24.94,11.17-24.94,24.94c0,13.77,11.17,24.94,24.94,24.94s24.94-11.17,24.94-24.94
	C439.47,345.94,428.31,334.78,414.54,334.78z M414.54,375.93c-8.96,0-16.22-7.26-16.22-16.22c0-8.96,7.26-16.22,16.22-16.22
	c8.96,0,16.22,7.26,16.22,16.22C430.75,368.67,423.49,375.93,414.54,375.93z"/>
<path class="st17" d="M414.54,352.75c-3.85,0-6.97,3.12-6.97,6.97c0,3.85,3.12,6.97,6.97,6.97c3.85,0,6.97-3.12,6.97-6.97
	C421.5,355.87,418.38,352.75,414.54,352.75z"/>
<g>
	<g>
		<defs>
			<path id="SVGID_147_" d="M158.67,284.3c5.32-14.82,13.61-37.52,19.97-53.33h54.44C231.08,276.86,181.45,283.26,158.67,284.3z
				 M150.31,322.13c3.58,8.08,11.55,18.78,29.03,20.57c0,0.06-0.01,0.13-0.01,0.19h2.34c1.92,0.1,3.93,0.12,6.07,0h3.64v0
				c0-7.85,2.68-15.08,7.14-20.87c-5.82-0.01-11.55-0.01-16.93-0.01C162.2,322.01,153.86,322.07,150.31,322.13z M264.54,342.89h0.05
				h111.32v0c0-3.43,0.52-6.75,1.46-9.88H264.54V342.89z M443.06,333.02c0.94,3.13,1.46,6.44,1.46,9.88v0h9.91v-9.88H443.06z"/>
		</defs>
		<clipPath id="SVGID_1_">
			<use xlink:href="#SVGID_147_"  style="overflow:visible;"/>
		</clipPath>
		<linearGradient id="SVGID_2_" gradientUnits="userSpaceOnUse" x1="68.6524" y1="267.1806" x2="542.5657" y2="267.1806">
			<stop  offset="0.3438" style="stop-color:#2FAC66"/>
			<stop  offset="0.5653" style="stop-color:#1B9894"/>
			<stop  offset="0.7718" style="stop-color:#1584AD"/>
			<stop  offset="0.9218" style="stop-color:#1B76B6"/>
			<stop  offset="1" style="stop-color:#1D71B8"/>
		</linearGradient>
		<circle style="clip-path:url(#SVGID_1_);fill:url(#SVGID_2_);" cx="305.61" cy="267.18" r="236.96"/>
	</g>
	<linearGradient id="SVGID_3_" gradientUnits="userSpaceOnUse" x1="221.1405" y1="343.1661" x2="253.0364" y2="343.1661">
		<stop  offset="0.3438" style="stop-color:#2FAC66"/>
		<stop  offset="0.5653" style="stop-color:#1B9894"/>
		<stop  offset="0.7718" style="stop-color:#1584AD"/>
		<stop  offset="0.9218" style="stop-color:#1B76B6"/>
		<stop  offset="1" style="stop-color:#1D71B8"/>
	</linearGradient>
	<path class="st2" d="M228.11,336.2c-3.85,0-6.97,3.12-6.97,6.97c0,3.85,3.12,6.97,6.97,6.97c3.85,0,6.97-3.12,6.97-6.97
		C235.07,339.32,231.95,336.2,228.11,336.2z"/>
	<linearGradient id="SVGID_4_" gradientUnits="userSpaceOnUse" x1="203.1683" y1="343.1661" x2="300.6902" y2="343.1661">
		<stop  offset="0.3438" style="stop-color:#2FAC66"/>
		<stop  offset="0.5653" style="stop-color:#1B9894"/>
		<stop  offset="0.7718" style="stop-color:#1584AD"/>
		<stop  offset="0.9218" style="stop-color:#1B76B6"/>
		<stop  offset="1" style="stop-color:#1D71B8"/>
	</linearGradient>
	<path class="st3" d="M228.11,318.23c-13.77,0-24.94,11.17-24.94,24.94c0,13.77,11.17,24.94,24.94,24.94
		c13.77,0,24.94-11.17,24.94-24.94C253.05,329.39,241.88,318.23,228.11,318.23z M228.11,359.38c-8.96,0-16.22-7.26-16.22-16.22
		c0-8.96,7.26-16.22,16.22-16.22c8.96,0,16.22,7.26,16.22,16.22C244.32,352.12,237.06,359.38,228.11,359.38z"/>
	<g>
		<defs>
			<path id="SVGID_152_" d="M267.02,173.01v31.57h-14.07c-25.92,0-64.01,3.72-67.95,17.3h60.14c1.92,70.09-60.5,71.35-87.74,72.22
				c-8.22,6.92-7.38,11.08-7.46,19.03c7.36-0.41,106.28-0.04,117.08,0v10.81h118.37c6.04-8.54,15.99-14.13,27.26-14.13
				c11.26,0,21.21,5.58,27.26,14.13h14.91V173.01H267.02z M443.57,311.03c-8.24-7.92-19.31-12.47-30.92-12.47
				c-12.39,0-24.18,5.19-32.56,14.13H278.26V184.25h165.31V311.03z"/>
		</defs>
		<clipPath id="SVGID_5_">
			<use xlink:href="#SVGID_152_"  style="overflow:visible;"/>
		</clipPath>
		<linearGradient id="SVGID_6_" gradientUnits="userSpaceOnUse" x1="71.0799" y1="267.4516" x2="544.9933" y2="267.4516">
			<stop  offset="0.3438" style="stop-color:#2FAC66"/>
			<stop  offset="0.5653" style="stop-color:#1B9894"/>
			<stop  offset="0.7718" style="stop-color:#1584AD"/>
			<stop  offset="0.9218" style="stop-color:#1B76B6"/>
			<stop  offset="1" style="stop-color:#1D71B8"/>
		</linearGradient>
		<circle style="clip-path:url(#SVGID_5_);fill:url(#SVGID_6_);" cx="308.04" cy="267.45" r="236.96"/>
	</g>
	<linearGradient id="SVGID_7_" gradientUnits="userSpaceOnUse" x1="363.2088" y1="343.1661" x2="413.0858" y2="343.1661">
		<stop  offset="0" style="stop-color:#2FAC66"/>
		<stop  offset="0.3375" style="stop-color:#1B9894"/>
		<stop  offset="0.6522" style="stop-color:#1584AD"/>
		<stop  offset="0.8808" style="stop-color:#1B76B6"/>
		<stop  offset="1" style="stop-color:#1D71B8"/>
	</linearGradient>
	<path class="st6" d="M412.65,318.23c-13.77,0-24.94,11.17-24.94,24.94c0,13.77,11.17,24.94,24.94,24.94s24.94-11.17,24.94-24.94
		C437.59,329.39,426.42,318.23,412.65,318.23z M412.65,359.38c-8.96,0-16.22-7.26-16.22-16.22c0-8.96,7.26-16.22,16.22-16.22
		c8.96,0,16.22,7.26,16.22,16.22C428.86,352.12,421.6,359.38,412.65,359.38z"/>
	<linearGradient id="SVGID_8_" gradientUnits="userSpaceOnUse" x1="392.3479" y1="343.1661" x2="406.7365" y2="343.1661">
		<stop  offset="0" style="stop-color:#2FAC66"/>
		<stop  offset="0.388" style="stop-color:#1C9992"/>
		<stop  offset="1" style="stop-color:#1D71B8"/>
	</linearGradient>
	<path class="st7" d="M412.65,336.2c-3.85,0-6.97,3.12-6.97,6.97c0,3.85,3.12,6.97,6.97,6.97s6.97-3.12,6.97-6.97
		C419.61,339.32,416.49,336.2,412.65,336.2z"/>
</g>
</svg>
